<?xml version="1.0" encoding="UTF-8"?>
<svg id="_Слой_1" data-name="Слой_1" xmlns="http://www.w3.org/2000/svg" xmlns:xlink="http://www.w3.org/1999/xlink" version="1.1" viewBox="0 0 595.28 199.36">
  <!-- Generator: Adobe Illustrator 30.4.0, SVG Export Plug-In . SVG Version: 2.1.3 Build 103)  -->
  <defs>
    <filter id="drop-shadow-1" x="23.5" y="57.86" width="495" height="86" filterUnits="userSpaceOnUse">
      <feOffset dx="2.83" dy="2.83"/>
      <feGaussianBlur result="blur" stdDeviation="2.83"/>
      <feFlood flood-color="#000" flood-opacity=".75"/>
      <feComposite in2="blur" operator="in"/>
      <feComposite in="SourceGraphic"/>
    </filter>
    <filter id="drop-shadow-2" x="28.5" y="133.86" width="540" height="35" filterUnits="userSpaceOnUse">
      <feOffset dx="2.83" dy="2.83"/>
      <feGaussianBlur result="blur1" stdDeviation="2.83"/>
      <feFlood flood-color="#000" flood-opacity=".75"/>
      <feComposite in2="blur1" operator="in"/>
      <feComposite in="SourceGraphic"/>
    </filter>
    <filter id="drop-shadow-3" x="420.5" y="153.86" width="148" height="28" filterUnits="userSpaceOnUse">
      <feOffset dx="2.83" dy="2.83"/>
      <feGaussianBlur result="blur2" stdDeviation="2.83"/>
      <feFlood flood-color="#000" flood-opacity=".75"/>
      <feComposite in2="blur2" operator="in"/>
      <feComposite in="SourceGraphic"/>
    </filter>
    <filter id="drop-shadow-4" x="506.5" y="14.86" width="77" height="129" filterUnits="userSpaceOnUse">
      <feOffset dx="2.83" dy="2.83"/>
      <feGaussianBlur result="blur3" stdDeviation="2.83"/>
      <feFlood flood-color="#000" flood-opacity=".75"/>
      <feComposite in2="blur3" operator="in"/>
      <feComposite in="SourceGraphic"/>
    </filter>
  </defs>
  <g filter="url(#drop-shadow-1)">
    <path d="M62.57,66.11c8.59,0,13.21.92,16.54,2.86,3.6,2.03,5.54,4.9,5.54,9.05,0,3.51-1.48,7.76-3.88,10.53-2.49,2.86-7.21,5.54-11.73,6.65v.55c4.43-.09,9.7,1.2,13.12,3.51,3.6,2.49,5.27,5.73,5.27,10.25,0,6-2.86,12.29-9.52,16.44-6.93,4.34-16.07,4.8-20.97,4.8h-26.7v-2.31l5.27-.83c4.99-.83,5.27-2.96,5.17-5.73l-1.11-47.39c-.09-2.49-.09-4.9-5.45-5.54l-4.34-.55v-2.31h32.79v.02ZM48.35,125.6c2.68.74,6.1,1.48,9.79,1.48,6.47,0,10.99-1.94,13.67-4.53,3.6-3.51,4.25-8.22,4.25-11.45,0-2.68-.28-6.47-2.86-9.15-2.12-2.31-6.19-3.79-12.1-3.79-.92,0-2.86.09-6.74.55v-4.51c5.36.92,11.82-.19,16.63-5.27,2.77-2.96,3.7-5.73,3.7-8.78,0-9.98-10.72-10.35-14.41-10.35s-7.39.37-10.62.92l-1.31,54.88Z" fill="#fff"/>
    <path d="M110.42,69.81c-8.59,0-13.95,7.21-15.7,14.23l-3.51.92,1.02-18.84h56.9l1.02,18.84-3.51-.92c-1.75-7.02-7.11-14.23-15.7-14.23h-5.17l-1.2,52.1c-.09,2.77.18,4.9,5.17,5.73l5.27.83v2.31h-28.64v-2.31l5.27-.83c4.99-.74,5.27-2.96,5.17-5.73l-1.29-52.1h-5.1Z" fill="#fff"/>
    <path d="M187,64.45c21.06,0,34.36,13.95,34.36,32.7,0,20.42-15.15,35.1-34.36,35.1s-34.27-14.69-34.27-35.1c0-18.75,13.21-32.7,34.27-32.7ZM187,128.56c16.9,0,22.82-15.89,22.82-31.41,0-20.05-10.35-29.01-22.72-29.01-9.61,0-22.72,5.82-22.72,29.01-.01,30.95,19.85,31.41,22.62,31.41Z" fill="#fff"/>
    <path d="M256.75,66.11c4.43,0,12.75.37,17.18,4.43,2.12,1.94,4.16,5.45,4.16,10.53,0,6-2.68,11.82-6.84,15.61-4.62,4.16-11.64,6.37-17.37,6.37-3.33,0-7.21-.83-9.52-1.39l.65-3.33c1.85.65,4.62,1.29,8.31,1.29,9.7,0,13.86-7.11,13.86-16.07,0-13.02-9.61-13.76-16.07-13.76-3.05,0-5.36.28-7.85.65l-1.2,51.45c-.09,2.68.18,5.08,5.17,5.73l6.28.83v2.31h-29.65v-2.31l5.27-.83c4.99-.83,5.27-2.96,5.17-5.73l-1.11-47.39c-.09-2.49-.09-4.9-5.45-5.54l-4.34-.55v-2.31h33.35Z" fill="#fff"/>
    <path d="M357.25,66.11v2.31l-4.34.55c-5.36.65-5.36,3.05-5.45,5.54l-1.11,47.39c-.09,2.77.18,4.9,5.17,5.73l5.27.83v2.31h-28.64v-2.31l5.26-.83c4.99-.74,5.27-2.96,5.17-5.73l-.55-22.82c-2.96-.37-7.02-.83-17.83-.83s-13.49.18-17.92,1.02l-.55,22.63c-.09,2.77.18,4.99,5.17,5.73l5.27.83v2.31h-28.64v-2.31l5.27-.83c4.99-.83,5.27-2.96,5.17-5.73l-1.11-47.39c-.09-2.49-.09-4.9-5.45-5.54l-4.34-.55v-2.31h29.56v2.31l-4.34.55c-5.36.65-5.36,3.05-5.45,5.54l-.46,19.49c2.49.37,7.85.92,17.83.92s15.24-.55,17.74-.92l-.46-19.49c-.09-2.49-.09-4.9-5.45-5.54l-4.34-.55v-2.31h29.55Z" fill="#fff"/>
    <path d="M391.8,66.11v2.31l-4.34.55c-5.36.65-5.36,3.05-5.45,5.54l-.92,42.22h.55c18.11-20.88,31.04-38.15,39.81-50.62h15.24v2.31l-4.34.55c-5.36.65-5.36,3.05-5.45,5.54l-1.11,47.39c-.09,2.77.19,4.9,5.17,5.73l5.26.83v2.31h-28.62v-2.31l5.27-.83c4.99-.74,5.27-2.96,5.17-5.73l-1.02-41.66c-16.44,18.75-29.93,36.03-40.65,50.53h-13.67v-2.31l5.27-.83c4.99-.83,5.27-2.96,5.17-5.73l-1.11-47.39c-.09-2.49-.09-4.9-5.45-5.54l-4.34-.55v-2.31h29.56Z" fill="#fff"/>
    <path d="M471.24,66.11v2.31l-4.34.55c-5.36.65-5.36,3.05-5.45,5.54l-1.11,47.39c-.09,2.77.18,4.9,5.17,5.73l5.27.83v2.31h-28.64v-2.31l5.27-.83c4.99-.83,5.27-2.96,5.17-5.73l-1.11-47.39c-.09-2.49-.09-4.9-5.45-5.54l-4.34-.55v-2.31h29.56ZM482.24,66.11h22.91v2.31c-3.33.65-8.5,2.31-17.74,10.25-10.35,8.96-13.12,12.38-13.86,13.49l-.09,1.11c3.42,5.08,14.13,20.05,19.12,26.33,3.88,4.9,6.19,7.48,8.22,7.48.46,0,1.57-.28,4.06-2.49l1.57,2.4c-4.8,3.33-7.11,5.27-9.33,5.27-3.7,0-9.33-6.47-17.27-15.7-8.78-10.25-7.39-9.33-12.29-15.06-2.22-2.59-3.14-3.97-3.14-4.8,0-.65.74-1.48,2.49-3.42l16.91-19.12c1.75-1.94,2.86-3.33,2.86-4.06,0-1.02-2.59-1.39-3.23-1.48l-1.2-.19v-2.32h.01Z" fill="#fff"/>
  </g>
  <g filter="url(#drop-shadow-2)">
    <path d="M38.81,141.09c-1.67,0-2.72,1.4-3.06,2.77l-.68.18.2-3.67h11.09l.2,3.67-.68-.18c-.34-1.37-1.39-2.77-3.06-2.77h-1.02l-.23,10.15c-.02.54.04.95,1.01,1.12l1.03.16v.45h-5.58v-.45l1.03-.16c.97-.14,1.03-.58,1.01-1.12l-.25-10.15h-1.01Z" fill="#fff"/>
    <path d="M49.72,145.68c.85-.72,2.05-.99,3.1-.99s2.21.27,3.06.99c1.22,1.03,1.31,2.5,1.31,3.24,0,1.76-.74,2.79-1.44,3.37-.49.4-1.4.9-2.95.9s-2.47-.5-2.95-.9c-.7-.58-1.44-1.6-1.44-3.37-.01-.74.08-2.21,1.31-3.24ZM50.74,151.55c.36.52,1.01,1.08,2.05,1.08s1.69-.56,2.05-1.08c.5-.76.58-1.75.58-2.61s-.07-1.87-.58-2.63c-.38-.56-.99-1.06-2.05-1.06s-1.67.5-2.05,1.06c-.5.76-.58,1.78-.58,2.63,0,.86.08,1.85.58,2.61Z" fill="#fff"/>
    <path d="M65.95,151.26c.13.63.25,1.21,1.01,1.44v.27h-3.64v-.27l.61-.16c.52-.14.74-.22.74-.59,0-.2-.05-.4-.16-.76l-1.58-5.67h-.38c-.38,1.91-1.21,4.61-1.93,6.27-.54,1.22-1.03,1.4-1.26,1.4-.16,0-.58-.13-.58-1.15,0-.72.09-1.37.85-1.37.22,0,.4.07.5.13.36-.76.56-1.3.77-1.98.47-1.44.59-2.2.59-2.68,0-.34-.05-.61-.74-.61-.38,0-.61.04-.86.09l.09-.61,4.59-.14,1.38,6.39Z" fill="#fff"/>
    <path d="M75.28,152.07c-1.15.79-1.89,1.12-2.93,1.12-1.31,0-2.34-.45-2.99-1.1-.32-.32-1.13-1.24-1.13-2.93s.63-2.85,1.44-3.53c1.04-.88,2.34-.94,2.95-.94,1.94,0,2.77.77,2.77,1.49,0,.38-.25.72-.77.72-.77,0-.97-.58-1.13-.99-.11-.29-.27-.67-.92-.67-1.1,0-2.56.85-2.56,3.56,0,.56.05,1.49.56,2.29.49.77,1.37,1.33,2.36,1.33.81,0,1.62-.5,2.09-.85l.26.5Z" fill="#fff"/>
    <path d="M77.63,147.41l-.54.14v-2.7h7.8l.11,2.79-.65-.23c-.2-1.22-1.28-2.07-2.56-2l-.14,6.14c-.02.83.22.92.7,1.03l.59.13v.27h-3.92v-.27l.61-.13c.74-.16.72-.54.7-1.03l-.14-6.14c-1.28-.07-2.36.78-2.56,2Z" fill="#fff"/>
    <path d="M86.45,144.85h3.96v.29l-.32.09c-.41.11-.83.25-.83,1.15l-.05,5.85c.25.11.58.18.95.18.67,0,1.26-.25,1.69-.68.52-.52.59-1.08.59-1.62,0-1.42-.95-1.55-1.3-1.55-.27,0-.97.14-1.17.22l-.09.04-.11-.45c.49-.22,1.04-.4,1.73-.4.74,0,1.57.14,2.03.58.27.23.61.68.61,1.44,0,1.01-.38,1.69-.92,2.14-.94.77-2.25.85-2.92.85h-3.87v-.27l.61-.13c.67-.14.7-.47.68-1.03l-.13-5.17c-.02-.86-.32-.99-.86-1.15l-.31-.09v-.29h.03ZM94.3,144.85h3.93v.29l-.31.09c-.58.16-.79.29-.83,1.15l-.16,5.17c-.02.83.23.92.7,1.03l.59.13v.27h-3.92v-.27l.61-.13c.68-.14.72-.45.7-1.03l-.16-5.17c-.04-.92-.38-1.03-.83-1.15l-.32-.09s0-.29,0-.29Z" fill="#fff"/>
    <path d="M103.01,145.23c-.45.13-.79.23-.83,1.15l-.18,4.9h.11l4.72-6.43h2.4v.29l-.31.09c-.52.16-.83.29-.85,1.15l-.14,5.17c-.02.68.04.9.68,1.03l.61.13v.27h-3.93v-.27l.61-.13c.59-.13.7-.38.68-1.03l-.18-5.02h-.11l-4.72,6.45h-2.18v-.27l.61-.13c.67-.14.7-.49.68-1.03l-.16-5.17c-.04-.86-.25-.99-.83-1.15l-.31-.09v-.29h3.93v.29l-.3.09ZM105.55,143.21c-.29.43-.52.58-.77.58-.45,0-.95-.27-1.35-.5l-.72-.41.32-.43c.32.2.61.31.94.31.59,0,1.06-.47,1.71-1.13.43-.45.76-.81,1.17-1.3l.45.23-1.75,2.65Z" fill="#fff"/>
    <path d="M115.52,144.69c.34.11.67.16.95.16.25,0,.45-.04,1.28-.11.31-.04.4-.05,1.04-.05.52,0,1.3,0,1.94.38.67.4.85.99.85,1.4,0,.79-.63,1.66-1.66,1.96v.2c.38.04.94.22,1.28.5.29.25.52.67.52,1.21,0,.83-.49,1.64-1.19,2.14-.59.41-1.42.7-2.45.7-1.8,0-3.22-.77-3.22-1.76,0-.45.29-.77.81-.77.61,0,.97.5,1.06,1.06.07.34.22.99,1.13.99,1.19,0,2.11-.88,2.11-2.18,0-1.53-1.24-1.6-1.75-1.6-.31,0-.58.04-.86.13-.09-.11-.13-.22-.13-.4,0-.2.02-.32.13-.43.38.09.63.13.9.13.88,0,1.73-.49,1.73-1.71,0-.9-.65-1.39-1.46-1.39-1.49,0-2.29.97-2.65,1.84l-.49-.09.13-2.31Z" fill="#fff"/>
    <path d="M131.65,152.45c-.36.22-.13.05-.58.32-.31.18-.59.41-.9.41-.18,0-.85-.11-1.19-1.46-.85.59-2.39,1.46-3.29,1.46-1.13,0-2.05-1.03-2.05-2.48,0-.47.13-1.26,1.37-1.66l3.82-1.22.04-1.46c.04-1.17-1.06-1.17-1.37-1.17-1.26,0-1.55.5-1.66.95-.07.31-.22.97-.99.97-.4,0-.81-.23-.81-.77,0-.79.68-1.17,1.26-1.37.49-.16,1.12-.29,2.05-.29.47,0,1.62.04,2.34.36.85.38.81.92.76,1.64-.05.86-.23,2.79-.16,4.38.04.72.07,1.17.5,1.17.23,0,.38-.09.65-.25l.21.47ZM128.83,148.4c-.58.2-.86.29-1.26.41-1.93.61-2.47.99-2.47,1.91,0,.52.13,1.58,1.15,1.58.23,0,1.15-.02,2.57-1.06v-2.84h0Z" fill="#fff"/>
    <path d="M138.06,144.85c.65,0,1.44,0,1.98.47.31.27.49.7.49,1.24,0,.97-.85,1.64-1.82,1.91v.18c1.48-.02,2.09,1.01,2.09,1.87,0,.7-.34,1.26-1.01,1.71-1.06.74-2.09.74-3.11.74h-3.93v-.27l.61-.13c.47-.09.72-.2.7-1.03l-.16-5.17c-.04-.92-.38-1.03-.83-1.15l-.32-.09v-.29h5.31ZM135.4,152.27c.36.07.86.14,1.53.14.52,0,1.19-.07,1.67-.56.4-.4.47-.9.47-1.26,0-1.13-.76-1.69-1.78-1.69-.56,0-.95.09-1.24.2v-.72c1.44.22,2.88-.38,2.88-1.87,0-.99-.74-1.1-1.37-1.1-.56,0-1.37.07-1.94.14l-.22,6.72Z" fill="#fff"/>
    <path d="M145.89,145.23c-.45.13-.79.23-.83,1.15l-.18,4.9h.11l4.72-6.43h2.4v.29l-.31.09c-.52.16-.83.29-.85,1.15l-.14,5.17c-.02.68.04.9.68,1.03l.61.13v.27h-3.93v-.27l.61-.13c.59-.13.7-.38.68-1.03l-.18-5.02h-.11l-4.72,6.45h-2.18v-.27l.61-.13c.67-.14.7-.49.68-1.03l-.16-5.17c-.04-.86-.25-.99-.83-1.15l-.31-.09v-.29h3.93v.29l-.3.09Z" fill="#fff"/>
    <path d="M160.56,152.07c-1.15.79-1.89,1.12-2.93,1.12-1.31,0-2.34-.45-2.99-1.1-.32-.32-1.13-1.24-1.13-2.93s.63-2.85,1.44-3.53c1.04-.88,2.34-.94,2.95-.94,1.94,0,2.77.77,2.77,1.49,0,.38-.25.72-.77.72-.77,0-.97-.58-1.13-.99-.11-.29-.27-.67-.92-.67-1.1,0-2.56.85-2.56,3.56,0,.56.05,1.49.56,2.29.49.77,1.37,1.33,2.36,1.33.81,0,1.62-.5,2.09-.85l.26.5Z" fill="#fff"/>
    <path d="M165.71,145.23c-.45.13-.79.23-.83,1.15l-.18,4.9h.11l4.72-6.43h2.4v.29l-.31.09c-.52.16-.83.29-.85,1.15l-.14,5.17c-.02.68.04.9.68,1.03l.61.13v.27h-3.92v-.27l.61-.13c.59-.13.7-.38.68-1.03l-.18-5.02h-.11l-4.72,6.45h-2.18v-.27l.61-.13c.67-.14.7-.49.68-1.03l-.16-5.17c-.04-.86-.25-.99-.83-1.15l-.31-.09v-.29h3.93v.29l-.31.09Z" fill="#fff"/>
    <path d="M178.76,149.19h.11l1.76-4.34h3.6v.29l-.31.09c-.52.16-.83.29-.85,1.15l-.14,5.17c-.02.56.02.88.68,1.03l.61.13v.27h-3.93v-.27l.61-.13c.63-.13.72-.34.68-1.03l-.34-6.03h-.11l-2.23,5.4-.65.29-2.67-5.69h-.09l-.4,5.78c-.07,1.1.11.94.74,1.15l.72.25v.27h-3.48v-.27c.86-.16,1.12-.59,1.17-1.4l.34-4.54c.05-.59.31-.97-.88-1.37l-.43-.14v-.29h3.82l1.67,4.23Z" fill="#fff"/>
    <path d="M185.42,144.85h3.96v.29l-.32.09c-.41.11-.83.25-.83,1.15l-.05,5.85c.25.11.58.18.95.18.67,0,1.26-.25,1.69-.68.52-.52.59-1.08.59-1.62,0-1.42-.95-1.55-1.3-1.55-.27,0-.97.14-1.17.22l-.09.04-.11-.45c.49-.22,1.04-.4,1.73-.4.74,0,1.57.14,2.03.58.27.23.61.68.61,1.44,0,1.01-.38,1.69-.92,2.14-.94.77-2.25.85-2.92.85h-3.87v-.27l.61-.13c.67-.14.7-.47.68-1.03l-.13-5.17c-.02-.86-.32-.99-.86-1.15l-.31-.09v-.29h.03ZM193.27,144.85h3.93v.29l-.31.09c-.58.16-.79.29-.83,1.15l-.16,5.17c-.02.83.23.92.7,1.03l.59.13v.27h-3.93v-.27l.61-.13c.68-.14.72-.45.7-1.03l-.16-5.17c-.04-.92-.38-1.03-.83-1.15l-.32-.09v-.29h.01Z" fill="#fff"/>
    <path d="M201.98,145.23c-.45.13-.79.23-.83,1.15l-.18,4.9h.11l4.72-6.43h2.4v.29l-.31.09c-.52.16-.83.29-.85,1.15l-.14,5.17c-.02.68.04.9.68,1.03l.61.13v.27h-3.93v-.27l.61-.13c.59-.13.7-.38.68-1.03l-.18-5.02h-.11l-4.72,6.45h-2.18v-.27l.61-.13c.67-.14.7-.49.68-1.03l-.16-5.17c-.04-.86-.25-.99-.83-1.15l-.31-.09v-.29h3.93v.29l-.3.09ZM204.52,143.21c-.29.43-.52.58-.77.58-.45,0-.95-.27-1.35-.5l-.72-.41.32-.43c.32.2.61.31.94.31.59,0,1.06-.47,1.71-1.13.43-.45.76-.81,1.17-1.3l.45.23-1.75,2.65Z" fill="#fff"/>
    <path d="M213.8,143.84l-1.13,2.2c-.05.11-.09.18-.25.18-.09,0-.14-.05-.22-.11l-.65-.43c-.07-.04-.11-.11-.11-.16,0-.14.07-.23.14-.31l1.67-1.75-.02-.09-.59-.11-1.87-.31c-.11-.02-.25-.04-.16-.38l.22-.74c.02-.07.09-.23.25-.23.09,0,.23.05.29.09l2.11,1.06.07-.05-.38-2.32c-.04-.18-.05-.45.32-.45h.72c.38,0,.36.27.32.45l-.38,2.32.07.05,2.11-1.06c.05-.04.2-.09.29-.09.16,0,.23.16.25.23l.22.74c.09.34-.05.36-.16.38l-1.87.31-.59.11-.02.09,1.67,1.75c.07.07.14.16.14.31,0,.05-.04.13-.11.16l-.65.43c-.07.05-.13.11-.22.11-.16,0-.2-.07-.25-.18l-1.13-2.2h-.1Z" fill="#fff"/>
    <path d="M231,151.26c.13.63.25,1.21,1.01,1.44v.27h-3.64v-.27l.61-.16c.52-.14.74-.22.74-.59,0-.2-.05-.4-.16-.76l-1.58-5.67h-.38c-.38,1.91-1.21,4.61-1.93,6.27-.54,1.22-1.03,1.4-1.26,1.4-.16,0-.58-.13-.58-1.15,0-.72.09-1.37.85-1.37.22,0,.4.07.5.13.36-.76.56-1.3.77-1.98.47-1.44.59-2.2.59-2.68,0-.34-.05-.61-.74-.61-.38,0-.61.04-.86.09l.09-.61,4.59-.14,1.38,6.39Z" fill="#fff"/>
    <path d="M236.65,145.23c-.45.13-.79.23-.83,1.15l-.18,4.9h.11l4.72-6.43h2.4v.29l-.31.09c-.52.16-.83.29-.85,1.15l-.14,5.17c-.02.68.04.9.68,1.03l.61.13v.27h-3.93v-.27l.61-.13c.59-.13.7-.38.68-1.03l-.18-5.02h-.11l-4.72,6.45h-2.18v-.27l.61-.13c.67-.14.7-.49.68-1.03l-.16-5.17c-.04-.86-.25-.99-.83-1.15l-.31-.09v-.29h3.93v.29l-.3.09Z" fill="#fff"/>
    <path d="M244.85,147.41l-.54.14v-2.7h7.8l.11,2.79-.65-.23c-.2-1.22-1.28-2.07-2.56-2l-.14,6.14c-.02.83.22.92.7,1.03l.59.13v.27h-3.92v-.27l.61-.13c.74-.16.72-.54.7-1.03l-.14-6.14c-1.28-.07-2.36.78-2.56,2Z" fill="#fff"/>
    <path d="M260.82,152.24c-.97.77-2,.95-2.75.95-1.35,0-2.43-.49-3.1-1.19-.56-.59-1.08-1.6-1.08-3.04,0-1.24.43-2.14.92-2.77.72-.94,1.73-1.49,3.15-1.49.77,0,1.46.18,2.05.63.67.5,1.21,1.35,1.21,2.74,0,.54-.27.49-.56.49h-4.99c-.02.92.11,1.51.25,1.93.61,1.76,1.82,1.96,2.61,1.96.59,0,1.24-.16,1.98-.74l.31.53ZM259.36,147.93c.41,0,.45-.22.45-.52,0-.81-.36-2.16-1.84-2.16s-2.27,1.26-2.3,2.68h3.69Z" fill="#fff"/>
    <path d="M265.73,145.29h.11c.52-.31,1.24-.59,2.3-.59.81,0,2.02.13,2.88,1.1.76.85.88,1.87.88,2.68,0,1.82-.81,2.9-1.42,3.49-.86.81-2.05,1.22-3.19,1.22-.68,0-1.42-.14-1.73-.22l-.07,2.36c-.02.41-.07.88.7,1.01l.86.14v.27h-4.19v-.27l.63-.14c.52-.13.7-.16.68-1.01l-.18-7.87c-.02-.7.02-1.12-.14-1.37-.23-.36-.68-.36-1.19-.31v-.49c1.73-.05,2.72-.45,3.08-.61v.61ZM265.61,152.29c.49.25.92.34,1.4.34,1.42,0,2.16-.79,2.52-1.31.56-.81.61-1.71.61-2.32,0-.95-.07-1.82-.45-2.48-.49-.86-1.21-1.12-1.98-1.12-.47,0-1.31.11-1.98.86l-.12,6.03Z" fill="#fff"/>
    <path d="M281.72,152.45c-.36.22-.13.05-.58.32-.31.18-.59.41-.9.41-.18,0-.85-.11-1.19-1.46-.85.59-2.39,1.46-3.29,1.46-1.13,0-2.05-1.03-2.05-2.48,0-.47.13-1.26,1.37-1.66l3.82-1.22.04-1.46c.04-1.17-1.06-1.17-1.37-1.17-1.26,0-1.55.5-1.66.95-.07.31-.22.97-.99.97-.4,0-.81-.23-.81-.77,0-.79.68-1.17,1.26-1.37.49-.16,1.12-.29,2.05-.29.47,0,1.62.04,2.34.36.85.38.81.92.76,1.64-.05.86-.23,2.79-.16,4.38.04.72.07,1.17.5,1.17.23,0,.38-.09.65-.25l.21.47ZM278.89,148.4c-.58.2-.86.29-1.26.41-1.93.61-2.47.99-2.47,1.91,0,.52.13,1.58,1.15,1.58.23,0,1.15-.02,2.57-1.06v-2.84h.01Z" fill="#fff"/>
    <path d="M283.63,147.41l-.54.14v-2.7h7.8l.11,2.79-.65-.23c-.2-1.22-1.28-2.07-2.56-2l-.14,6.14c-.02.83.22.92.7,1.03l.59.13v.27h-3.92v-.27l.61-.13c.74-.16.72-.54.7-1.03l-.14-6.14c-1.29-.07-2.37.78-2.56,2Z" fill="#fff"/>
    <path d="M299.4,146.37c.04-.11.11-.47.11-.58,0-.32-.52-.63-1.06-.65v-.29h3.15v.29c-.65.09-.94.49-1.46,1.73l-2.58,6.16c-1.04,2.5-2.21,3.91-3.4,3.91-.86,0-.88-.72-.88-.83,0-.65.58-.95,1.12-.95s.18.16.88.16c.63,0,1.06-.83,1.42-1.67l-2.74-6.64c-.36-.86-.63-1.66-1.55-1.85v-.29h3.73v.29c-.81.05-.99.45-.99.7,0,.2.25.97.34,1.21l1.76,4.92h.11l2.04-5.62Z" fill="#fff"/>
    <path d="M305.51,145.29h.11c.52-.31,1.24-.59,2.3-.59.81,0,2.02.13,2.88,1.1.76.85.88,1.87.88,2.68,0,1.82-.81,2.9-1.42,3.49-.86.81-2.05,1.22-3.19,1.22-.68,0-1.42-.14-1.73-.22l-.07,2.36c-.02.41-.07.88.7,1.01l.86.14v.27h-4.2v-.27l.63-.14c.52-.13.7-.16.68-1.01l-.18-7.87c-.02-.7.02-1.12-.14-1.37-.23-.36-.68-.36-1.19-.31v-.49c1.73-.05,2.72-.45,3.08-.61v.61ZM305.39,152.29c.49.25.92.34,1.4.34,1.42,0,2.16-.79,2.52-1.31.56-.81.61-1.71.61-2.32,0-.95-.07-1.82-.45-2.48-.49-.86-1.21-1.12-1.98-1.12-.47,0-1.31.11-1.98.86l-.12,6.03Z" fill="#fff"/>
    <path d="M316.71,145.23c-.47.14-.83.23-.85,1.15l-.05,1.87c1.42.09,2.86.09,4.29,0l-.05-1.87c-.02-.92-.38-1.03-.83-1.15l-.32-.09v-.29h3.93v.29l-.31.09c-.58.16-.79.29-.83,1.15l-.16,5.17c-.02.54.02.88.68,1.03l.61.13v.27h-3.93v-.27l.61-.13c.67-.14.72-.45.7-1.03l-.09-2.61c-1.44-.09-2.88-.09-4.32,0l-.07,2.61c-.02.68.04.9.68,1.03l.61.13v.27h-3.93v-.27l.61-.13c.67-.14.7-.47.68-1.03l-.14-5.17c-.02-.86-.32-.99-.85-1.15l-.31-.09v-.29h3.93v.29l-.29.09Z" fill="#fff"/>
    <path d="M325.55,145.68c.85-.72,2.05-.99,3.1-.99s2.21.27,3.06.99c1.22,1.03,1.31,2.5,1.31,3.24,0,1.76-.74,2.79-1.44,3.37-.49.4-1.4.9-2.95.9s-2.47-.5-2.95-.9c-.7-.58-1.44-1.6-1.44-3.37,0-.74.08-2.21,1.31-3.24ZM326.57,151.55c.36.52,1.01,1.08,2.05,1.08s1.69-.56,2.05-1.08c.5-.76.58-1.75.58-2.61s-.07-1.87-.58-2.63c-.38-.56-.99-1.06-2.05-1.06s-1.67.5-2.05,1.06c-.5.76-.58,1.78-.58,2.63,0,.86.08,1.85.58,2.61Z" fill="#fff"/>
    <path d="M335.19,148.06c.54.04,1.17.07,1.89.07.61,0,2.16-.04,2.72-.07l-.25.77c-.25,0-1.39-.04-2.02-.04-.88,0-1.73.04-2.63.14l.29-.87Z" fill="#fff"/>
    <path d="M347.8,146.15c.13-.16.23-.31.23-.45,0-.11-.11-.29-.36-.4-.11-.05-.22-.07-.52-.16v-.29h3.24v.29c-.56.2-1.01.5-1.73,1.31l-1.94,2.21,2.23,2.84c.56.72.85,1.03,1.44,1.19v.27h-3.39v-.27l.45-.05c.11-.02.47-.04.47-.27,0-.11-.23-.41-.31-.49l-1.84-2.2h-.09l-1.39,2.03c-.09.14-.27.47-.27.59,0,.31.31.32.49.34l.41.04v.27h-3.46v-.27c.68-.16,1.66-1.04,2.12-1.6l1.66-1.98-2.2-2.77c-.58-.74-1.04-1.03-1.48-1.21v-.29h3.82v.29c-.67.02-.9.36-.9.54,0,.16.31.61.41.76l1.3,1.75h.14l1.47-2.02Z" fill="#fff"/>
    <path d="M358.7,146.37c.04-.11.11-.47.11-.58,0-.32-.52-.63-1.06-.65v-.29h3.15v.29c-.65.09-.94.49-1.46,1.73l-2.57,6.16c-1.04,2.5-2.21,3.91-3.4,3.91-.86,0-.88-.72-.88-.83,0-.65.58-.95,1.12-.95s.18.16.88.16c.63,0,1.06-.83,1.42-1.67l-2.74-6.64c-.36-.86-.63-1.66-1.55-1.85v-.29h3.73v.29c-.81.05-.99.45-.99.7,0,.2.25.97.34,1.21l1.76,4.92h.11l2.03-5.62Z" fill="#fff"/>
    <path d="M369.83,152.34h.88v3.06l-.63.27c-.13-.56-.13-.67-.18-1.01-.29-1.51-.94-1.69-1.39-1.69h-4.18c-.72,0-1.49.23-1.85,2.48l-.63.22v-3.33h.36c.58,0,.88-.59,1.12-1.1.65-1.39,1.31-3.33,1.58-4.1.2-.59.27-.81.27-1.01,0-.56-.49-.61-1.1-.58l-.36.02.09-.61,4.09-.11,1.93,7.49ZM366.35,145.59h-.32c-.07.29-.13.52-.29,1.1-.31,1.08-.45,1.51-.88,2.74-.4,1.1-.63,1.75-.83,2.25-.18.43-.2.5-.2.54,0,.05.04.2.25.2h4.43l-2.16-6.83Z" fill="#fff"/>
    <path d="M373.48,145.68c.85-.72,2.05-.99,3.1-.99s2.21.27,3.06.99c1.22,1.03,1.31,2.5,1.31,3.24,0,1.76-.74,2.79-1.44,3.37-.49.4-1.4.9-2.95.9s-2.47-.5-2.95-.9c-.7-.58-1.44-1.6-1.44-3.37,0-.74.09-2.21,1.31-3.24ZM374.51,151.55c.36.52,1.01,1.08,2.05,1.08s1.69-.56,2.05-1.08c.5-.76.58-1.75.58-2.61s-.07-1.87-.58-2.63c-.38-.56-.99-1.06-2.05-1.06s-1.67.5-2.05,1.06c-.5.76-.58,1.78-.58,2.63,0,.86.07,1.85.58,2.61Z" fill="#fff"/>
    <path d="M385.81,145.14c-.34.05-.76.14-.76.43,0,.18.22.43.49.7l1.96,2c.09.09.29.31.29.43,0,.25-1.51,2.05-1.64,2.2-1.66,1.89-2.2,2.29-2.58,2.29s-.72-.29-.97-.47c-.16-.11-.23-.16-.4-.31l.32-.41c.2.18.5.38.65.38.14,0,.31-.09.88-.77.74-.88,2-2.59,2.45-3.38v-.07c-.92-.81-1.37-1.21-1.8-1.55-1.12-.9-1.6-1.26-2.29-1.46v-.29h3.38v.28h.02ZM390.98,144.85v.29l-.31.09c-.52.16-.83.29-.85,1.15l-.14,5.17c-.02.56.02.88.68,1.03l.61.13v.27h-3.92v-.27l.61-.13c.65-.13.7-.34.68-1.03l-.14-5.17c-.02-.92-.38-1.01-.85-1.15l-.31-.09v-.29h3.94ZM395.62,144.85v.29c-.68.2-1.17.56-2.29,1.46-.43.34-.88.74-1.8,1.55v.07c.45.79,1.71,2.5,2.45,3.38.58.68.74.77.88.77s.45-.2.65-.38l.32.41c-.16.14-.23.2-.4.31-.25.18-.59.47-.97.47s-.92-.4-2.58-2.29c-.13-.14-1.64-1.94-1.64-2.2,0-.13.2-.34.29-.43l1.96-2c.27-.27.49-.52.49-.7,0-.29-.41-.38-.76-.43v-.29h3.4Z" fill="#fff"/>
    <path d="M404.03,152.24c-.97.77-2,.95-2.75.95-1.35,0-2.43-.49-3.1-1.19-.56-.59-1.08-1.6-1.08-3.04,0-1.24.43-2.14.92-2.77.72-.94,1.73-1.49,3.15-1.49.77,0,1.46.18,2.05.63.67.5,1.21,1.35,1.21,2.74,0,.54-.27.49-.56.49h-4.99c-.02.92.11,1.51.25,1.93.61,1.76,1.82,1.96,2.61,1.96.59,0,1.24-.16,1.98-.74l.31.53ZM402.57,147.93c.41,0,.45-.22.45-.52,0-.81-.36-2.16-1.84-2.16s-2.27,1.26-2.3,2.68h3.69Z" fill="#fff"/>
    <path d="M413.15,152.07c-1.15.79-1.89,1.12-2.93,1.12-1.31,0-2.34-.45-2.99-1.1-.32-.32-1.13-1.24-1.13-2.93s.63-2.85,1.44-3.53c1.04-.88,2.34-.94,2.95-.94,1.95,0,2.77.77,2.77,1.49,0,.38-.25.72-.77.72-.77,0-.97-.58-1.13-.99-.11-.29-.27-.67-.92-.67-1.1,0-2.56.85-2.56,3.56,0,.56.05,1.49.56,2.29.49.77,1.37,1.33,2.36,1.33.81,0,1.62-.5,2.09-.85l.26.5Z" fill="#fff"/>
    <path d="M415.51,147.41l-.54.14v-2.7h7.8l.11,2.79-.65-.23c-.2-1.22-1.28-2.07-2.56-2l-.14,6.14c-.02.83.22.92.7,1.03l.59.13v.27h-3.92v-.27l.61-.13c.74-.16.72-.54.7-1.03l-.14-6.14c-1.28-.07-2.36.78-2.56,2Z" fill="#fff"/>
    <path d="M429.64,144.85c.65,0,1.44,0,1.98.47.31.27.49.7.49,1.24,0,.97-.85,1.64-1.82,1.91v.18c1.48-.02,2.09,1.01,2.09,1.87,0,.7-.34,1.26-1.01,1.71-1.06.74-2.09.74-3.11.74h-3.93v-.27l.61-.13c.47-.09.72-.2.7-1.03l-.16-5.17c-.04-.92-.38-1.03-.83-1.15l-.32-.09v-.29h5.31ZM426.97,152.27c.36.07.86.14,1.53.14.52,0,1.19-.07,1.67-.56.4-.4.47-.9.47-1.26,0-1.13-.76-1.69-1.78-1.69-.56,0-.96.09-1.24.2v-.72c1.44.22,2.88-.38,2.88-1.87,0-.99-.74-1.1-1.37-1.1-.56,0-1.37.07-1.94.14l-.22,6.72Z" fill="#fff"/>
    <path d="M441.02,152.24c-.97.77-2,.95-2.75.95-1.35,0-2.43-.49-3.1-1.19-.56-.59-1.08-1.6-1.08-3.04,0-1.24.43-2.14.92-2.77.72-.94,1.73-1.49,3.15-1.49.77,0,1.46.18,2.05.63.67.5,1.21,1.35,1.21,2.74,0,.54-.27.49-.56.49h-4.99c-.02.92.11,1.51.25,1.93.61,1.76,1.82,1.96,2.61,1.96.59,0,1.24-.16,1.98-.74l.31.53ZM439.56,147.93c.41,0,.45-.22.45-.52,0-.81-.36-2.16-1.84-2.16s-2.27,1.26-2.3,2.68h3.69Z" fill="#fff"/>
    <path d="M446.49,145.23c-.47.14-.83.23-.85,1.15l-.05,1.87c1.42.09,2.86.09,4.29,0l-.05-1.87c-.02-.92-.38-1.03-.83-1.15l-.32-.09v-.29h3.93v.29l-.31.09c-.58.16-.79.29-.83,1.15l-.16,5.17c-.02.54.02.88.68,1.03l.61.13v.27h-3.93v-.27l.61-.13c.67-.14.72-.45.7-1.03l-.09-2.61c-1.44-.09-2.88-.09-4.32,0l-.07,2.61c-.02.68.04.9.68,1.03l.61.13v.27h-3.93v-.27l.61-.13c.67-.14.7-.47.68-1.03l-.14-5.17c-.02-.86-.32-.99-.85-1.15l-.31-.09v-.29h3.93v.29l-.29.09Z" fill="#fff"/>
    <path d="M457.41,145.23c-.47.14-.83.23-.85,1.15l-.05,1.87c1.42.09,2.86.09,4.29,0l-.05-1.87c-.02-.92-.38-1.03-.83-1.15l-.32-.09v-.29h3.93v.29l-.31.09c-.58.16-.79.29-.83,1.15l-.16,5.17c-.02.54.02.88.68,1.03l.61.13v.27h-3.93v-.27l.61-.13c.67-.14.72-.45.7-1.03l-.09-2.61c-1.44-.09-2.88-.09-4.32,0l-.07,2.61c-.02.68.04.9.68,1.03l.61.13v.27h-3.93v-.27l.61-.13c.67-.14.7-.47.68-1.03l-.14-5.17c-.02-.86-.32-.99-.85-1.15l-.31-.09v-.29h3.93v.29l-.29.09Z" fill="#fff"/>
    <path d="M464.72,144.85h3.96v.29l-.32.09c-.41.11-.83.25-.83,1.15l-.05,5.85c.25.11.58.18.96.18.67,0,1.26-.25,1.69-.68.52-.52.59-1.08.59-1.62,0-1.42-.95-1.55-1.3-1.55-.27,0-.97.14-1.17.22l-.09.04-.11-.45c.49-.22,1.04-.4,1.73-.4.74,0,1.57.14,2.04.58.27.23.61.68.61,1.44,0,1.01-.38,1.69-.92,2.14-.94.77-2.25.85-2.92.85h-3.87v-.27l.61-.13c.67-.14.7-.47.68-1.03l-.13-5.17c-.02-.86-.32-.99-.86-1.15l-.31-.09v-.29h.01ZM472.57,144.85h3.93v.29l-.31.09c-.58.16-.79.29-.83,1.15l-.16,5.17c-.02.83.23.92.7,1.03l.59.13v.27h-3.93v-.27l.61-.13c.68-.14.72-.45.7-1.03l-.16-5.17c-.04-.92-.38-1.03-.83-1.15l-.32-.09v-.29h0Z" fill="#fff"/>
    <path d="M481.28,145.23c-.45.13-.79.23-.83,1.15l-.18,4.9h.11l4.72-6.43h2.39v.29l-.31.09c-.52.16-.83.29-.85,1.15l-.14,5.17c-.02.68.04.9.68,1.03l.61.13v.27h-3.93v-.27l.61-.13c.59-.13.7-.38.68-1.03l-.18-5.02h-.11l-4.72,6.45h-2.18v-.27l.61-.13c.67-.14.7-.49.68-1.03l-.16-5.17c-.04-.86-.25-.99-.83-1.15l-.31-.09v-.29h3.93v.29l-.29.09ZM483.82,143.21c-.29.43-.52.58-.77.58-.45,0-.95-.27-1.35-.5l-.72-.41.32-.43c.32.2.61.31.94.31.59,0,1.06-.47,1.71-1.13.43-.45.76-.81,1.17-1.3l.45.23-1.75,2.65Z" fill="#fff"/>
    <path d="M496.33,145.14c-.34.05-.76.14-.76.43,0,.18.22.43.49.7l1.96,2c.09.09.29.31.29.43,0,.25-1.51,2.05-1.64,2.2-1.66,1.89-2.2,2.29-2.58,2.29s-.72-.29-.97-.47c-.16-.11-.23-.16-.4-.31l.32-.41c.2.18.5.38.65.38.14,0,.31-.09.88-.77.74-.88,2-2.59,2.45-3.38v-.07c-.92-.81-1.37-1.21-1.8-1.55-1.12-.9-1.6-1.26-2.29-1.46v-.29h3.38v.28h.02ZM501.49,144.85v.29l-.31.09c-.52.16-.83.29-.85,1.15l-.14,5.17c-.02.56.02.88.68,1.03l.61.13v.27h-3.92v-.27l.61-.13c.65-.13.7-.34.68-1.03l-.14-5.17c-.02-.92-.38-1.01-.85-1.15l-.31-.09v-.29h3.94ZM506.14,144.85v.29c-.68.2-1.17.56-2.29,1.46-.43.34-.88.74-1.8,1.55v.07c.45.79,1.71,2.5,2.45,3.38.58.68.74.77.88.77s.45-.2.65-.38l.32.41c-.16.14-.23.2-.4.31-.25.18-.59.47-.97.47s-.92-.4-2.58-2.29c-.13-.14-1.64-1.94-1.64-2.2,0-.13.2-.34.29-.43l1.96-2c.27-.27.49-.52.49-.7,0-.29-.41-.38-.76-.43v-.29h3.4Z" fill="#fff"/>
    <path d="M514.35,146.37c.04-.11.11-.47.11-.58,0-.32-.52-.63-1.06-.65v-.29h3.15v.29c-.65.09-.94.49-1.46,1.73l-2.57,6.16c-1.04,2.5-2.21,3.91-3.4,3.91-.86,0-.88-.72-.88-.83,0-.65.58-.95,1.12-.95s.18.16.88.16c.63,0,1.06-.83,1.42-1.67l-2.74-6.64c-.36-.86-.63-1.66-1.55-1.85v-.29h3.73v.29c-.81.05-.99.45-.99.7,0,.2.25.97.34,1.21l1.76,4.92h.11l2.03-5.62Z" fill="#fff"/>
    <path d="M520.46,145.29h.11c.52-.31,1.24-.59,2.3-.59.81,0,2.02.13,2.88,1.1.76.85.88,1.87.88,2.68,0,1.82-.81,2.9-1.42,3.49-.86.81-2.05,1.22-3.19,1.22-.68,0-1.42-.14-1.73-.22l-.07,2.36c-.02.41-.07.88.7,1.01l.86.14v.27h-4.2v-.27l.63-.14c.52-.13.7-.16.68-1.01l-.18-7.87c-.02-.7.02-1.12-.14-1.37-.23-.36-.68-.36-1.19-.31v-.49c1.73-.05,2.72-.45,3.08-.61v.61ZM520.34,152.29c.49.25.92.34,1.4.34,1.42,0,2.16-.79,2.52-1.31.56-.81.61-1.71.61-2.32,0-.95-.07-1.82-.45-2.48-.49-.86-1.21-1.12-1.98-1.12-.47,0-1.31.11-1.98.86l-.12,6.03Z" fill="#fff"/>
    <path d="M531.66,145.23c-.47.14-.83.23-.85,1.15l-.05,1.87c1.42.09,2.86.09,4.29,0l-.05-1.87c-.02-.92-.38-1.03-.83-1.15l-.32-.09v-.29h3.93v.29l-.31.09c-.58.16-.79.29-.83,1.15l-.16,5.17c-.02.54.02.88.68,1.03l.61.13v.27h-3.93v-.27l.61-.13c.67-.14.72-.45.7-1.03l-.09-2.61c-1.44-.09-2.88-.09-4.32,0l-.07,2.61c-.02.68.04.9.68,1.03l.61.13v.27h-3.93v-.27l.61-.13c.67-.14.7-.47.68-1.03l-.14-5.17c-.02-.86-.32-.99-.85-1.15l-.31-.09v-.29h3.93v.29l-.29.09Z" fill="#fff"/>
    <path d="M547.38,152.45c-.36.22-.13.05-.58.32-.31.18-.59.41-.9.41-.18,0-.85-.11-1.19-1.46-.85.59-2.39,1.46-3.29,1.46-1.13,0-2.05-1.03-2.05-2.48,0-.47.13-1.26,1.37-1.66l3.82-1.22.04-1.46c.04-1.17-1.06-1.17-1.37-1.17-1.26,0-1.55.5-1.66.95-.07.31-.22.97-.99.97-.4,0-.81-.23-.81-.77,0-.79.68-1.17,1.26-1.37.49-.16,1.12-.29,2.05-.29.47,0,1.62.04,2.34.36.85.38.81.92.76,1.64-.05.86-.23,2.79-.16,4.38.04.72.07,1.17.5,1.17.23,0,.38-.09.65-.25l.21.47ZM544.55,148.4c-.58.2-.86.29-1.26.41-1.93.61-2.47.99-2.47,1.91,0,.52.13,1.58,1.15,1.58.23,0,1.15-.02,2.57-1.06v-2.84h0Z" fill="#fff"/>
    <path d="M555.83,151.26c.13.63.25,1.21,1.01,1.44v.27h-3.64v-.27l.61-.16c.52-.14.74-.22.74-.59,0-.2-.05-.4-.16-.76l-1.58-5.67h-.38c-.38,1.91-1.21,4.61-1.93,6.27-.54,1.22-1.03,1.4-1.26,1.4-.16,0-.58-.13-.58-1.15,0-.72.09-1.37.85-1.37.22,0,.4.07.5.13.36-.76.56-1.3.77-1.98.47-1.44.59-2.2.59-2.68,0-.34-.05-.61-.74-.61-.38,0-.61.04-.86.09l.09-.61,4.59-.14,1.38,6.39Z" fill="#fff"/>
  </g>
  <g filter="url(#drop-shadow-3)">
    <path d="M428.69,162.48l-.69,1.34c-.03.07-.06.11-.15.11-.05,0-.09-.03-.13-.07l-.4-.26s-.07-.07-.07-.1c0-.09.04-.14.09-.19l1.02-1.07v-.05s-.37-.07-.37-.07l-1.14-.19c-.07,0-.15-.02-.1-.23l.13-.45s.05-.14.15-.14c.05,0,.14.03.18.05l1.29.65.04-.03-.23-1.42c-.02-.11-.03-.28.2-.28h.44c.23,0,.22.17.2.28l-.23,1.42.04.03,1.29-.65s.12-.05.18-.05c.1,0,.14.1.15.14l.13.45c.05.21-.03.22-.1.23l-1.14.19-.36.07v.05s1.01,1.07,1.01,1.07c.04.04.09.1.09.19,0,.03-.02.08-.07.1l-.4.26s-.08.07-.13.07c-.1,0-.12-.04-.15-.11l-.69-1.34h-.08Z" fill="#fff"/>
    <path d="M435.63,163.6c.52-.44,1.25-.6,1.89-.6s1.35.17,1.87.6c.75.63.8,1.53.8,1.98,0,1.08-.45,1.71-.88,2.06-.3.24-.86.55-1.8.55s-1.51-.31-1.8-.55c-.43-.35-.88-.98-.88-2.06-.01-.45.05-1.35.8-1.98ZM436.25,167.19c.22.32.62.66,1.25.66s1.03-.34,1.25-.66c.31-.46.35-1.07.35-1.6s-.04-1.14-.35-1.61c-.23-.34-.6-.65-1.25-.65s-1.02.31-1.25.65c-.31.46-.35,1.09-.35,1.61s.05,1.13.35,1.6Z" fill="#fff"/>
    <path d="M441.54,164.66l-.33.09v-1.65h4.76l.07,1.71-.4-.14c-.12-.75-.78-1.27-1.56-1.22l-.09,3.75c-.01.51.13.56.43.63l.36.08v.17h-2.4v-.17l.37-.08c.45-.1.44-.33.43-.63l-.09-3.75c-.76-.06-1.42.46-1.55,1.21Z" fill="#fff"/>
    <path d="M454.43,167.67h.54v1.87l-.38.17c-.08-.34-.08-.41-.11-.62-.18-.92-.57-1.03-.85-1.03h-2.55c-.44,0-.91.14-1.13,1.52l-.38.13v-2.04h.22c.35,0,.54-.36.68-.67.4-.85.8-2.04.97-2.51.12-.36.17-.5.17-.62,0-.34-.3-.37-.67-.35h-.22s.06-.36.06-.36l2.5-.07,1.15,4.58ZM452.3,163.55h-.2c-.04.18-.08.32-.18.67-.19.66-.27.92-.54,1.67-.24.67-.39,1.07-.51,1.38-.11.26-.12.31-.12.33,0,.03.02.12.15.12h2.71l-1.31-4.17Z" fill="#fff"/>
    <path d="M457.93,163.33c-.29.09-.51.14-.52.7l-.03,1.14c.87.05,1.75.05,2.62,0l-.03-1.14c-.01-.56-.23-.63-.51-.7l-.2-.06v-.18h2.4v.18l-.19.06c-.35.1-.48.18-.51.7l-.1,3.16c-.01.33.01.54.42.63l.37.08v.17h-2.4v-.17l.38-.08c.41-.09.44-.27.43-.63l-.05-1.6c-.88-.06-1.76-.06-2.64,0l-.04,1.6c-.01.42.02.55.42.63l.37.08v.17h-2.4v-.17l.37-.08c.41-.09.43-.29.42-.63l-.09-3.16c-.01-.53-.2-.61-.52-.7l-.19-.06v-.18h2.4v.18l-.18.06Z" fill="#fff"/>
    <path d="M467.52,163.33c-.29.09-.51.14-.52.7l-.09,3.16c-.01.42.02.55.42.63l.37.08v.17h-2.4v-.17l.37-.08c.41-.09.43-.29.42-.63l-.11-3.75h-.43c-.59,0-1.53.07-1.53.96,0,.36.14.58.39.77s.6.29.89.29c.22,0,.22-.04.32-.04.06,0,.08.04.08.08,0,.03-.03.08-.07.12-.69.9-.31.42-.7.94-.8,1.07-1.3,1.65-1.66,1.65-.14,0-.35-.12-.97-.58l.23-.22c.19.17.29.23.36.23.3,0,.75-.65.98-.98.26-.37.41-.6.6-.94v-.07c-.37,0-.79-.14-1.07-.35-.31-.24-.44-.56-.44-.85,0-.41.21-.88.78-1.13.19-.08.58-.21,1.39-.21h2.56v.18l-.17.04Z" fill="#fff"/>
    <path d="M473.2,163.33c-.29.09-.51.14-.52.7l-.03,1.14c.87.05,1.75.05,2.62,0l-.03-1.14c-.01-.56-.23-.63-.51-.7l-.2-.06v-.18h2.4v.18l-.19.06c-.35.1-.48.18-.51.7l-.1,3.16c-.01.33.01.54.42.63l.37.08v.17h-2.4v-.17l.38-.08c.41-.09.44-.27.43-.63l-.05-1.6c-.88-.06-1.76-.06-2.64,0l-.04,1.6c-.01.42.02.55.42.63l.37.08v.17h-2.4v-.17l.37-.08c.41-.09.43-.29.42-.63l-.09-3.16c-.01-.53-.2-.61-.52-.7l-.19-.06v-.18h2.4v.18l-.18.06Z" fill="#fff"/>
    <path d="M482.03,167.6c-.59.47-1.22.58-1.68.58-.82,0-1.48-.3-1.89-.73-.34-.36-.66-.98-.66-1.86,0-.76.26-1.31.56-1.69.44-.57,1.06-.91,1.92-.91.47,0,.89.11,1.25.38.41.31.74.83.74,1.67,0,.33-.17.3-.34.3h-3.05c-.01.56.07.92.15,1.18.37,1.08,1.11,1.2,1.6,1.2.36,0,.76-.1,1.21-.45l.19.33ZM481.14,164.98c.25,0,.28-.13.28-.32,0-.5-.22-1.32-1.12-1.32s-1.39.77-1.41,1.64h2.25Z" fill="#fff"/>
    <path d="M488.1,167.67h.54v1.87l-.39.17c-.08-.34-.08-.41-.11-.62-.18-.92-.57-1.03-.85-1.03h-2.55c-.44,0-.91.14-1.13,1.52l-.38.13v-2.04h.22c.35,0,.54-.36.68-.67.4-.85.8-2.04.97-2.51.12-.36.16-.5.16-.62,0-.34-.3-.37-.67-.35h-.22s.05-.36.05-.36l2.5-.07,1.18,4.58ZM485.97,163.55h-.2c-.04.18-.08.32-.18.67-.19.66-.28.92-.54,1.67-.24.67-.39,1.07-.51,1.38-.11.26-.12.31-.12.33,0,.03.02.12.15.12h2.71l-1.31-4.17Z" fill="#fff"/>
    <path d="M493.76,167.6c-.59.47-1.22.58-1.68.58-.83,0-1.49-.3-1.89-.73-.34-.36-.66-.98-.66-1.86,0-.76.26-1.31.56-1.69.44-.57,1.06-.91,1.92-.91.47,0,.89.11,1.25.38.41.31.74.83.74,1.67,0,.33-.17.3-.34.3h-3.05c-.01.56.07.92.15,1.18.37,1.08,1.11,1.2,1.59,1.2.36,0,.76-.1,1.21-.45l.2.33ZM492.87,164.98c.25,0,.28-.13.28-.32,0-.5-.22-1.32-1.12-1.32s-1.39.77-1.41,1.64h2.25Z" fill="#fff"/>
    <path d="M499.39,167.01c.08.38.15.74.62.88v.17h-2.22v-.17l.37-.1c.32-.09.45-.13.45-.36,0-.12-.03-.24-.1-.46l-.97-3.47h-.23c-.23,1.17-.74,2.82-1.18,3.83-.33.75-.63.86-.77.86-.1,0-.35-.08-.35-.7,0-.44.06-.84.52-.84.13,0,.24.04.31.08.22-.46.34-.79.47-1.21.29-.88.36-1.34.36-1.64,0-.21-.03-.37-.45-.37-.23,0-.37.02-.53.06l.05-.37,2.8-.09.85,3.9Z" fill="#fff"/>
    <path d="M502.85,163.33c-.28.08-.48.14-.51.7l-.11,2.99h.07l2.88-3.93h1.46v.18l-.19.06c-.32.1-.51.18-.52.7l-.09,3.16c-.01.42.02.55.42.63l.37.08v.17h-2.4v-.17l.37-.08c.36-.08.43-.23.42-.63l-.11-3.07h-.07l-2.88,3.94h-1.33v-.17l.38-.08c.41-.09.43-.3.42-.63l-.1-3.16c-.02-.53-.15-.61-.51-.7l-.19-.06v-.18h2.4v.18l-.18.07Z" fill="#fff"/>
    <path d="M512.13,163.33c-.28.08-.48.14-.51.7l-.11,2.99h.07l2.88-3.93h1.46v.18l-.19.06c-.32.1-.51.18-.52.7l-.09,3.16c-.01.42.02.55.42.63l.37.08v.17h-2.4v-.17l.38-.08c.36-.08.43-.23.42-.63l-.11-3.07h-.07l-2.88,3.94h-1.33v-.17l.37-.08c.41-.09.43-.3.42-.63l-.1-3.16c-.02-.53-.15-.61-.51-.7l-.19-.06v-.18h2.4v.18l-.18.07Z" fill="#fff"/>
    <path d="M520.79,167.19c-.01.29-.01.54.4.63l.37.08v.17h-2.34v-.17l.36-.08c.33-.07.43-.18.42-.63l-.09-3.17c-.01-.51-.2-.6-.51-.69l-.19-.06v-.18h5.9v.18l-.19.06c-.41.12-.5.22-.51.7l-.1,3.16c-.01.51.14.56.43.63l.36.08v.17h-2.4v-.17l.37-.08c.42-.09.44-.27.43-.63l-.11-3.75h-2.52l-.08,3.75Z" fill="#fff"/>
    <path d="M526.77,163.6c.52-.44,1.25-.6,1.89-.6s1.35.17,1.87.6c.75.63.8,1.53.8,1.98,0,1.08-.45,1.71-.88,2.06-.3.24-.86.55-1.8.55s-1.51-.31-1.8-.55c-.43-.35-.88-.98-.88-2.06,0-.45.05-1.35.8-1.98ZM527.4,167.19c.22.32.62.66,1.25.66s1.03-.34,1.25-.66c.31-.46.35-1.07.35-1.6s-.04-1.14-.35-1.61c-.23-.34-.6-.65-1.25-.65s-1.02.31-1.25.65c-.31.46-.35,1.09-.35,1.61,0,.53.04,1.13.35,1.6Z" fill="#fff"/>
    <path d="M534.75,168.06h-2.55v-.17l.37-.08c.41-.09.43-.3.42-.63l-.1-3.16c-.02-.57-.19-.62-.51-.7l-.19-.06v-.18h4.16l.09,1.57-.36.14c-.02-.11-.08-.44-.15-.69-.21-.65-.58-.68-.94-.68h-1.09l-.11,3.75c-.01.33.01.57.43.63l.53.08v.18Z" fill="#fff"/>
    <path d="M538.15,163.6c.52-.44,1.25-.6,1.89-.6s1.35.17,1.87.6c.75.63.8,1.53.8,1.98,0,1.08-.45,1.71-.88,2.06-.3.24-.86.55-1.8.55s-1.51-.31-1.8-.55c-.43-.35-.88-.98-.88-2.06-.01-.45.05-1.35.8-1.98ZM538.77,167.19c.22.32.62.66,1.25.66s1.03-.34,1.25-.66c.31-.46.35-1.07.35-1.6s-.04-1.14-.35-1.61c-.23-.34-.61-.65-1.25-.65s-1.02.31-1.25.65c-.31.46-.35,1.09-.35,1.61,0,.53.04,1.13.35,1.6Z" fill="#fff"/>
    <path d="M548.5,167.67h.54v1.87l-.39.17c-.08-.34-.08-.41-.11-.62-.18-.92-.57-1.03-.85-1.03h-2.55c-.44,0-.91.14-1.13,1.52l-.38.13v-2.04h.22c.35,0,.54-.36.68-.67.4-.85.8-2.04.97-2.51.12-.36.16-.5.16-.62,0-.34-.3-.37-.67-.35h-.22s.05-.36.05-.36l2.5-.07,1.18,4.58ZM546.37,163.55h-.2c-.04.18-.08.32-.18.67-.19.66-.28.92-.54,1.67-.24.67-.39,1.07-.51,1.38-.11.26-.12.31-.12.33,0,.03.02.12.15.12h2.71l-1.31-4.17Z" fill="#fff"/>
    <path d="M549.79,163.09h2.42v.18l-.2.06c-.25.07-.51.15-.51.7l-.03,3.58c.15.07.35.11.58.11.41,0,.77-.15,1.03-.42.32-.32.36-.66.36-.99,0-.87-.58-.95-.79-.95-.17,0-.59.09-.71.13l-.06.02-.07-.27c.3-.13.64-.24,1.06-.24.45,0,.96.09,1.24.35.17.14.37.42.37.88,0,.62-.23,1.03-.56,1.31-.57.47-1.38.52-1.78.52h-2.37v-.17l.37-.08c.41-.09.43-.29.42-.63l-.08-3.16c-.01-.53-.2-.61-.53-.7l-.19-.06v-.17h.03ZM554.59,163.09h2.4v.18l-.19.06c-.35.1-.48.18-.51.7l-.1,3.16c-.01.51.14.56.43.63l.36.08v.17h-2.4v-.17l.37-.08c.42-.09.44-.27.43-.63l-.1-3.16c-.02-.56-.23-.63-.51-.7l-.2-.06v-.18h.02Z" fill="#fff"/>
  </g>
  <g filter="url(#drop-shadow-4)">
    <polygon points="537.52 100.56 537.52 100.56 537.52 100.56 537.52 100.56 537.52 100.56" fill="#fff"/>
    <path d="M570.76,67.07c-.83-.86-2.18-.87-3.21-.07-.43.33-.93.62-1.44.8-2.28.81-4.03,2.25-5.27,4.31-.24.4-.46.81-.82,1.43-1.55-.96-3.11-1.71-4.39-2.78-1.86-1.55-1.99-3.44-.45-5.31,1.63-1.97,3.52-3.63,6.13-4.22.2-.05.38-.29.5-.48.04-.07-.13-.4-.21-.4-1.22,0-2.29-.32-3.22-1.16-.17-.16-.59-.04-.9-.05-.35-.01-.69-.04-1.12-.06.25-1.31-.25-2.06-1.73-2.08.1-.64,0-1.37.31-1.68,1.05-1.03.66-1.64-.05-2.01-.27-.8-.36-1.34-.64-1.76-.08-.13-.91-.02-.99.16-.19.41-.13.94-.18,1.54-1.21.52-1.27.93-.16,2.08.18.19.19.54.28.81-2.33-2.18-5.29-2.49-8.45-3.18.57-.25.82-.45,1.07-.46,3.03-.16,3.91-2.11,4.17-4.32.1-.83.36-1.64.59-2.63-.06-.03-.38-.19-.7-.35.09-.39.21-.73.24-1.07.11-1.49.9-2.38,2.23-3.06,1.19-.61,2.29-1.46,3.29-2.36,2.8-2.54,3.69-6.46,2.34-9.84-.69-1.74-1.93-2.42-3.74-1.88-.95.28-1.86.75-2.73,1.23-.71.39-1.34.91-2.1,1.44-.16-1.2-1.22-2.1-.45-3.32.06-.11-.39-.57-.65-.83-.17-.17-.41-.27-.79-.5.77-.13,1.32-.13,1.79-.32.34-.14.6-.51.9-.78-.32-.31-.61-.8-.99-.88-.31-.07-.72.35-1.11.52-.5.21-1.06.62-1.51.53-1.26-.26-2.47-.77-3.72-1.13-.71-.21-1.24-.35-.43-1.15.19-.19.1-.66.14-1-.64-.04-1.28-.1-1.92-.06-.06,0-.24.75-.09.95.75,1.02.11,1.18-.7,1.28-1.73.21-3.32.71-4.48,2.14-.12.15-.35.22-.55.28-.99.29-1.2.78-.47,1.59.13.15.18.49.12.69-.73,2.5-1.5,4.99-2.26,7.51-3.05.09-5.54-1.68-6.35-4.6-.6-2.15-1.08-4.32-1.74-6.44-.39-1.25-1.02-1.34-1.84-.31-.64.8-1.13,1.72-1.74,2.68,1.93.06,2.49.65,2.74,2.61.17,1.34.27,2.7.54,4.02.96,4.71,3.08,8.52,8.08,10.02.92.28,1.14,1.88.58,2.57.2.7.45,1.26.49,1.84.2,2.96,1.37,4.29,4.31,4.84.2.04.37.23.76.47-3.12.52-6.04.93-8.54,2.8.74-1.02,1.52-1.97.15-2.52-.15-.74-.16-1.27-.39-1.67-.09-.15-.93-.13-1,.01-.21.45-.21.99-.31,1.61-1.08.41-1.32,1.02-.67,1.85.39.5.6,1.15.92,1.79q-1.95.5-2.12,2.19c-.78.09-1.99-.1-2.24.31-.52.85-1.13.82-1.88.88-.21.01-.39.33-.59.51.18.15.33.39.53.45,2.64.75,4.62,2.42,6.21,4.55,1.21,1.61,1.15,3.26-.3,4.61-1.17,1.09-2.64,1.85-4.07,2.83-1.21-3.1-3.02-5.11-5.77-6.25-.66-.27-1.3-.64-1.89-1.05-.97-.67-2.39-.56-3.1.29-.7.83-.6,1.96.24,2.68.85.73,2.04.69,3-.07.28-.21.68-.53.94-.47,1.31.3,2.47.88,3.17,2.12,1.01,1.78.66,3.6-.89,4.88-2.46,2.04-3.28,4.74-2.64,7.77.88,4.19,4.33,5.96,7.69,7.91q.34-2.22,1.29-2.16c0,1.95.02,3.91-.04,5.87,0,.28-.39.55-.6.83-.17-.27-.46-.54-.48-.82-.07-.89-.02-1.78-.02-2.78-.19,1.57-1.43.97-2.16,1.13-1.5.33-2.9.66-3.69,2.13,1.28-.89,2.68-1.27,4.18-1.41.48-.05.96-.07,1.45-.08.2.56.17.93-.1,1.17-.16.15-.4.25-.74.33-1.4.3-2.71.72-3.67,1.72-.32.34-.6.74-.84,1.23-.03.05-.07.1-.11.14-.32.29-1.14.34-1.68.53-.05-.53-.14-1.07-.13-1.61,0-.07.02-.15.04-.22.03-.14.1-.28.16-.42.03-.07.05-.14.08-.21-.51.85-1.08,1.67-1.52,2.55-.39.78.02,1.22.8,1.43,1.08.3,1.96-.15,2.53-1.48.87-2.04,2.63-3.11,4.59-3.19,1.05-.04,1.92.58,2.82-.59.31-.41,1.45-.37,2.13-.21.38.09.58.85.9,1.29.23.32.55.57.77.89.16.23.3.51.32.78.15,1.71.28,3.43.39,5.14.01.18-.13.4-.25.57-1.08,1.62-1.52,3.43-1.53,5.34-.01,4.23-1.4,8.05-3.27,11.75-.41.81-.72,1.66-1.15,2.65-.26,0-.82-.12-1.3.03-.52.16-1.34.51-1.39.87-.16,1.22-.11,2.48,0,3.72.07.87.41,1.71.58,2.58.08.45.05.93.07,1.44,1.15,0,2.17.01,3.33.01.01-.77.04-1.46,0-2.15-.04-.77.2-1.11,1.03-1.1,3.94.04,7.87.05,11.81.04.68,0,.94.26.91.93-.03.77-.01,1.53-.01,2.3,1.2,0,2.18,0,3.27,0,0-1.07.01-2.06.01-3.17,4.89.01,9.68.03,14.86.04-.43,1.16-.8,2.18-1.16,3.18.98,0,1.97.01,3,.01.03-.29.06-.5.07-.71.04-1.19.1-2.29.64-3.49.48-1.05.23-2.6-.16-3.78-.14-.45-1.57-.47-2.41-.69-.11-.03-.22-.1-.02-.01-.32-.86-.37-1.79-.8-2.02-1.41-.78-2.07-2.08-2.41-3.43-.56-2.27-.94-4.6-1.16-6.93-.26-2.71.29-5.55-1.63-7.91-.08-.1-.04-.33-.03-.49.04-.78.12-1.56.14-2.34.05-1.47-.33-3.03,1.1-4.14.21-.16.33-.53.37-.82.2-1.37,1.13-2.12,2.23-2.73,1.26-.7,2.58-1.3,3.77-2.11,1.62-1.1,3.32-2.18,4.66-3.57,3.02-3.15,2.73-8.39-.56-11.13-.97-.81-1.15-1.62-.96-2.73.31-1.8,1.43-2.88,3.1-3.35.47-.13,1.17.01,1.57.29,1.09.76,2.37.81,3.22-.05.76-.77.78-1.95.04-2.71ZM554.11,28.71c1.04.18,1.99,1.01,2.6,2.03.23.38.4.79.51,1.2.18.69.19,1.39-.06,1.99,0,.02-.02.03-.02.05-1.2,2.88-3.46,4.75-6.01,6.23-.33-2.63-.68-5.16-.94-7.69-.02-.17-.04-.34-.06-.51-.01-.12,0-.25.04-.39.31-1.37,2.67-3.14,3.94-2.91ZM514.69,68.22c-.41-.04-.75-.62-1.12-.97.35-.32.7-.88,1.07-.89.43-.02.87.44,1.67.91-.78.49-1.23.99-1.62.95ZM549.28,33.34c.49,1.45.67,2.88.69,4.32,0,.48,0,.97-.02,1.46-.05,1.26-.45,1.9-1.73,2.3-.79.25-1.45,1.14-1.95,1.89-.02.03-.04.08-.04.12-.04.33.3.91.43,1.36.43-.19.88-.34,1.27-.59.27-.17.45-.48.91-1,0,0,0,0,0,.01,0,0,0,0,0,0-.31,1.45-.63,2.23-2.06,2.17-2.49-.11-4.98-.08-7.47-.02-.89.02-1.34-.3-1.68-1.08-.24-.55-.45-1.1-.62-1.65-1.25-3.83-1.01-7.63.79-11.4.32-.66.77-1.28,1.24-1.84,2.48-2.96,6.37-2.76,8.52.45.09.14.13.33.12.54,0,.2-.04.42-.1.58-.09.24-.18.48-.27.72-.45,1.26-.75,2.52-.27,3.86.14.06.29.11.43.17.57-.74,1.14-1.48,1.81-2.37ZM542.23,23.49c1.27,0,2.5.26,3.17.77-1.26,1.06-4.79,1.1-6.58,0,.83-.53,2.14-.78,3.41-.78ZM534.68,25.93h.01c4.59.01,9.18.02,13.77.04-.01.1-.01.2,0,.3-4.59,0-9.19-.02-13.78-.04v-.3ZM531.93,42.6c-2.32-.58-4.1-1.89-5.37-3.89-1.37-2.16-1.83-4.59-2.16-7.07-.12-.95-.29-1.9-.56-2.81-.37-1.31-.74-2.68-2.1-2.88.59-.54,1.25-1.13,2-1.8.16.47.47,1.2.66,1.97.53,2.16,1.05,4.32,1.49,6.5.23,1.11.84,1.9,1.87,2.14,1.72.39,3.48.69,5.23.82.7.05,1.1.17,1.43.79.89,1.68,1.12,3.36.14,5.1-.15.27-.32.49-.5.67-.02.02-.05.04-.08.06-.07.06-.13.12-.2.17-.5.34-1.1.41-1.85.23ZM533.62,46s-.03-.08-.04-.12c5.35.01,10.7.03,16.06.04v.12h-.01c-5.33-.01-10.67-.03-16.01-.04ZM544.38,47.52c-.35.38-.59.66-.84.92-.17-.32-.49-.65-.48-.97.01-.35.33-.68.52-1.02.23.31.46.62.8,1.07ZM542,48.66c-.74-.71-1.31-1.25-1.88-1.8,0,0,0,0,0,0,0,0,0,0,0,0,.26-.11.51-.27.78-.31.86-.12,1.29.11,1.35.69.04.35-.05.82-.25,1.43ZM536.61,51.08c-.1,0-.2,0-.3,0-.41-.02-.8-.51-1.21-.78.42-.26.83-.74,1.25-.75,1.72-.03,3.44-.03,5.17-.03,1.72,0,3.45.02,5.17.06.42,0,.82.53,1.22.81-.43.25-.84.7-1.27.72-.07,0-.15,0-.22,0-1.62.07-3.25.03-4.88.02-1.65,0-3.3.04-4.93-.04ZM541.19,55.16c3.07.02,6.15.31,9.23.81-.09.05-.2.1-.32.15-3.09,1.28-15.4,1.23-18.12-.13,3.07-.59,6.14-.85,9.21-.83ZM527.59,54.04c0-.09.06-.2.16-.32.13-.17.33-.37.51-.62.12.13.23.24.33.34.21.22.37.4.53.57-.27.25-.52.64-.82.69-.08.01-.2-.05-.31-.14-.19-.14-.37-.35-.4-.52ZM528.03,57.91c1.31-.05,2.62-.01,3.93-.01,3.14.01,6.29.02,9.43.03,4.15.01,8.29.02,12.43.02.35,0,.71-.04,1.04.05.09.03.19.11.26.22.08.1.14.22.16.32.02.11-.22.37-.38.41-.34.07-.69.05-1.04.05-8.42-.02-16.85-.04-25.27-.07-.17,0-.37.05-.52-.01-.31-.13-.6-.32-.9-.49,0,0,0,0,.01,0,0,0-.01,0-.02-.01.29-.17.58-.49.87-.5ZM524.92,59.89v-.12c10.97.03,21.94.06,32.91.09v.12c-10.97-.03-21.94-.06-32.91-.09ZM530,67.38c.73-.3,1.35-.67,2.01-.82,4.52-1,9.1-.92,13.68-.62,1.56.1,3.11.39,4.65.68.62.13,1.21.5,1.9.79-.24.24-.6.46-1.07.66-4.51,1.91-18.66,1.67-21.18-.68,0,0,0,0,.01,0,0,0,0,0,0,0ZM531.86,61.14s.02.04.02.06c.61,0,1.23,0,1.86,0,0,0,0,0,0,.01h.01c-.02.18-.03.34-.04.5-.01.23-.03.46-.05.7h-1.33s0,0,0,0c0,0,0,0,0,0-.14-.38-.27-.74-.44-1.2-.03,0-.06,0-.08,0-.45.53-.8.95-1.14,1.37-.1-.08-.21-.15-.31-.23h0s0,0,0-.01c-.02-.36-.05-.73-.08-1.14.52,0,1.02,0,1.53,0,0,0,0,0,0,0,0,0,.01,0,.02,0,.02-.03.04-.05.06-.07ZM534.53,61.25h0c.74,0,1.47,0,2.21,0,0-.01,0-.02.01-.04.12.01.23.01.34.02,0,0,0,.01,0,.02,1.17,0,2.34,0,3.51,0,0,0,0-.01,0-.01.09,0,.17.01.25.02,1.34,0,2.68,0,4.02.01.07-.09.14-.19.23-.32.04.12.07.22.11.32.86,0,1.72,0,2.59,0h0c-.03.34-.07.73-.11,1.18h0c-.69,0-1.38,0-2.07-.01-.07-.2-.14-.4-.22-.64-.05-.16-.12-.34-.19-.54-.11,0-.23,0-.34,0,0,0,0,0,0,0h0c-.18.25-.28.38-.33.52-.05.19-.01.41-.01.66h0c-1.11,0-2.15,0-3.21,0-.13-.39-.27-.78-.4-1.18-.02,0-.05,0-.07,0-.08,0-.17,0-.25,0-.15.35-.28.71-.47,1.15,0,0,0,0,0,.01h0c-.81,0-1.71,0-2.62-.01-.14-.37-.28-.76-.41-1.15-.12,0-.24,0-.36,0-.15.37-.3.74-.47,1.17,0,0,0,0,0,0h-1.58c-.05-.36-.09-.71-.15-1.18h0ZM548.59,61.29h1.67v1.17c-.54.01-1,.01-1.56,0-.04-.4-.06-.73-.11-1.17ZM525.35,88.49c-.61-.61-1.29-.96-1.33-1.39-.08-.79.42-.88.96-.88.18,0,.36.01.52,0h0c.5,0,1.08,0,1.27.4.01.03.02.07.03.11.01.04.03.07.03.12,0,.08,0,.17-.02.27,0,.01,0,.02,0,.03-.08.44-.78.75-1.45,1.33ZM525.98,94.31c.31-.33.59-.88.88-.89,5.06-.12,10.11-.18,15.17-.22,0,0,0,0,0,0,0,0,0,0,0,0,.08,0,.17.01.25.02.04,0,.08,0,.12.01.05,0,.1.02.15.04.24.05.48.13.73.2.08.02.16.05.24.06,0,.14.03.28.04.42-.67.13-1.33.38-1.99.38-1.27,0-2.55,0-3.83,0-3.83,0-7.71-.02-11.77-.03ZM552.01,109.21c.03.83-.23,1.33-.77,1.57-.25.11-.56.17-.94.17,0,0-.01,0-.02,0h0c-1.4-.02-2.8-.02-4.2-.02-1.4,0-2.8,0-4.2,0-2.8-.01-5.6-.01-8.4-.02-1.54,0-1.94-.41-1.95-1.93-.01-1.09.03-2.19,0-3.28-.02-.62.13-1.05.42-1.33.3-.28.74-.41,1.34-.41h0c5.69.02,11.37.04,17.06.05,1.12,0,1.71.48,1.67,1.67-.02.58-.03,1.16-.03,1.74,0,.01,0,.02,0,.03,0,.59,0,1.18.03,1.77ZM532.8,99.32c.08,0,.17,0,.27.01.41.06.73.64,1.36,1.24-.63.61-.97,1.22-1.36,1.25-.92.08-.74-.73-.75-1.32,0-.49-.08-1.13.48-1.18ZM535.43,100.53c.09-.44.47-.83.72-1.24,0,0,0,0,0,0,0,0,0,0,0,0,.14.12.28.25.43.38.23.2.49.44.82.75.62-.54.97-1.08,1.34-1.08,1.04-.02.77.9.69,1.46-.05.39-.48.74-.74,1.1-.33-.38-.68-.77-1.18-1.34-.61.61-.95,1.23-1.34,1.27,0,0,0,0,0,0,0,0,0,0,0,0-.89.09-.86-.73-.74-1.3ZM542.31,100.71c0,.08,0,.16,0,.24,0,.54-.14,1.04-.82.9-.4-.09-.69-.71-1.21-1.29.54-.57.83-1.17,1.19-1.22,1.05-.12.79.76.83,1.37ZM543.62,100.63c.02-.54-.07-1.2.52-1.27.08-.01.18,0,.3,0,.39.05.69.67,1.21,1.21-.32.37-.55.72-.76.97-.14.16-.27.29-.4.31-.11.02-.2.02-.28.01-.58-.05-.6-.67-.59-1.24ZM546.15,100.59c.4-.41.68-.86.96-1.09.09-.08.19-.13.29-.14.91-.14.8.67.82,1.27.03.56,0,1.19-.58,1.24-.08,0-.18,0-.29-.01-.38-.06-.66-.67-1.2-1.27ZM550.19,101.87c-.9.1-.8-.67-.8-1.28s-.06-1.4.85-1.21c.1.02.19.08.28.16.18.16.35.43.55.72.1.15.21.3.34.45-.55.55-.86,1.12-1.22,1.16ZM551.23,98.02c-.33.19-.67.53-1,.53-5.86.02-11.71,0-17.57-.04-.36,0-.71-.32-1.06-.49,0,0,0,0,.01,0,0,0,0,0,0,0,.34-.17.68-.48,1.02-.49,2.92-.03,5.85,0,8.78,0,1.76,0,3.51,0,5.27.01,1.17,0,2.35,0,3.52.03.35.01.69.29,1.04.44,0,0,0,0-.01,0,0,0,0,0,0,0ZM546.34,95.14c-1.36,1.82-5.63,1.76-7.37-.09-.12-.12-.22-.25-.32-.39,1.1.08,2.09.31,3.03.19.86-.11,2.42-.75,2.39-.92-.05-.29-.16-.51-.31-.66-.45-.46-1.26-.4-1.95-.45-.51-.04-1.03-.01-1.54-.01h0s0-.01,0-.01c0-.13,0-.26,0-.39,1.91-.6,3.79-.61,5.56.51.11.07.2.14.29.21.63.52.81,1.22.22,2.01ZM542.73,130.74q-1.17.05-.96-2.05c.42-.06.67-.1.82,0,.26.16.22.67.14,2.05ZM557.43,124.27c.2,0,.4-.01.6-.01.21,0,.41.02.58.1.29.14.65.52.66.8.01.3-.29.73-.57.89-.24.13-.55.14-.86.13-.1,0-.21,0-.31,0-10.73-.02-21.48-.05-32.21-.09-.16,0-.33.02-.5.03-.16,0-.32,0-.42-.09-.34-.24-.72-.63-.78-1-.03-.23.46-.65.79-.8.17-.07.37-.08.57-.08.21,0,.42.03.62.03,5.28.02,10.57.03,15.85.04,5.31.01,10.64.03,15.98.05ZM552.43,118.08c.65.12,1.26.46,2.1.78-.21.17-.48.33-.81.47-.33.15-.73.28-1.17.41-.44.13-.94.24-1.47.34-.8.15-1.7.28-2.66.39-.32.04-.65.07-.98.1-2,.18-4.22.26-6.43.25-.74,0-1.47-.02-2.2-.04-.36-.01-.72-.03-1.08-.05-.71-.04-1.41-.08-2.09-.14-2.03-.17-3.85-.44-5.23-.79-.46-.12-.87-.25-1.23-.39-.18-.07-.34-.14-.49-.22-.29-.15-.53-.31-.69-.48.92-.29,1.69-.66,2.51-.78,3.66-.57,7.31-.85,10.96-.83s7.31.34,10.96.97ZM560.71,82.29c-.82,1.85-2.34,3.02-4.03,3.99-3.35,1.93-7.03,2.86-10.82,3.33-2.2.27-4.4.41-6.58.39-3.65-.03-7.27-.48-10.87-1.44-.89-.24-1.51-.53-1.34-1.63.04-.3-.29-.67-.48-.99-.17-.29-.37-.57-.73-1.13,0,0,.01,0,.02,0,0,0,0,0,0,0,3.14.13,5.79.34,7.68,2.9.44.6,1.46,1.04,2.24,1.08,2.81.12,5.33-.79,7.37-2.77,1.52-1.47,1.62-3.35.04-4.72-1.32-1.15-2.89-2.13-4.51-2.81-.54-.23-1.01-.36-1.42-.38-1.23-.07-1.91.77-2.35,2.56,0,0-.01,0-.02,0,0,0,0,0,0,0-.44-.09-.89-.2-1.34-.29-.55-.1-1.08-.19-1.61-.2-.87-.02-1.73.16-2.6.78-.63.45-1.4.83-2.22.81-.49,0-1.01-.17-1.53-.55-.03-.02-.07-.04-.12-.04-.3-.01-.84.3-1.29.5-.08.03-.15.06-.22.09.27.4.49.72.66.97.2-.11.46-.26.73-.4,0,0,0,0,0,0,0,0,.01,0,.02,0,.14.29.37.57.41.88.06.56-.01,1.13.02,1.7.03.55-.13.78-.44.81-.18.02-.41-.03-.69-.13v-.35c-.41.48-.78.91-1.32,1.54,0,0,0,0-.01,0,0,0,0,0,0,0-1.26-1.04-2.59-1.92-3.63-3.05-1.99-2.18-1.89-4.78.13-6.94,2.32-2.49,5.37-3.71,8.56-4.54,3.61-.94,7.21-1.45,10.79-1.49,4.61-.06,9.19.64,13.75,2.16,1.52.5,2.96,1.29,4.36,2.08,1.21.69,2.37,1.5,2.46,3.15.02.4.31.86.61,1.14,1,.93.77,1.96.32,3ZM531.73,82.99c.94-.1,1.52-.16,2.25-.24-.76-.78-1.53-.88-2.23-.36-.39.29-.79.95-.72,1.36.06.34.86.83,1.26.77,1.06-.15,2.08-.59,3.13-.85.36-.09.83-.11,1.15.05.51.25.97.38,1.41.36.77-.03,1.5-.49,2.4-1.52-1.33-.15-2.38-.27-3.41-.39-.04-.23-.06-.44-.07-.64,0,0,0,0,0-.01,0-.19,0-.36.02-.51,0-.03.02-.06.02-.09.02-.12.05-.23.09-.33.26-.6.91-.76,1.95-.47,1.27.34,2.61.73,3.05,2.04.02.05.02.12.04.17.04.14.08.28.09.44,0,0,0,0,0,0h0c.19,1.84-1.04,2.96-2.54,3.59-1.18.49-2.51.62-3.78.85-.3.05-.76-.05-.97-.26-2.23-2.26-5.07-2.73-8.05-2.87-.17-.01-.33-.06-.59-.1h0s0-.01,0-.01v-1.58c1.67-.55,3.23-1.34,4.86-1.52,1.2-.14,2.55.35,3.71.86.21.1.36.22.45.37.28.43.01,1-.7,1.27-.83.31-1.77.83-2.82-.39,0,0,0,0,0,0,0,0,0,0,0,0ZM562.45,78.45c-.66-.3-1.33-.57-1.95-.93-.16-.09-.12-.5-.18-.77.18-.02.41-.09.57-.07.06,0,.11.02.15.04.58.43,1.11.93,1.65,1.4-.09.11-.17.22-.24.33ZM562.99,77.38c-.13.07-.27.14-.41.21-.61-.73-1.24-1.44-1.8-2.21-.04-.05-.07-.12-.08-.19-.03-.14-.03-.32-.03-.48,0-.08,0-.17,0-.24.33.1.83.1.97.33.52.82.92,1.72,1.36,2.59ZM570.16,68.33c.07.31-.5.77-1,1.45-.54-.67-1.07-1.04-1.08-1.44-.01-.17.19-.42.42-.61.13-.11.28-.2.4-.24.05-.01.09-.02.13-.02.42.02,1.02.48,1.12.86,0,0,0,0,0,0h0Z" fill="#fff"/>
    <path d="M523.52,84.56c.34.16.68.33,1.18.57v-1.08c-.45.09-.81.17-1.17.24,0,.09-.01.19-.01.28Z" fill="#fff"/>
  </g>
</svg>