<?xml version="1.0" encoding="UTF-8"?>
<svg id="_Слой_1" data-name="Слой_1" xmlns="http://www.w3.org/2000/svg" baseProfile="tiny" version="1.2" viewBox="0 0 595.28 199.36">
  <!-- Generator: Adobe Illustrator 30.2.1, SVG Export Plug-In . SVG Version: 2.1.1 Build 1)  -->
  <g>
    <path d="M62.57,66.11c8.59,0,13.21.92,16.54,2.86,3.6,2.03,5.54,4.9,5.54,9.05,0,3.51-1.48,7.76-3.88,10.53-2.49,2.86-7.21,5.54-11.73,6.65v.55c4.43-.09,9.7,1.2,13.12,3.51,3.6,2.49,5.27,5.73,5.27,10.25,0,6-2.86,12.29-9.52,16.44-6.93,4.34-16.07,4.8-20.97,4.8h-26.7v-2.31l5.27-.83c4.99-.83,5.27-2.96,5.17-5.73l-1.11-47.39c-.09-2.49-.09-4.9-5.45-5.54l-4.34-.55v-2.31h32.79v.02ZM48.35,125.6c2.68.74,6.1,1.48,9.79,1.48,6.47,0,10.99-1.94,13.67-4.53,3.6-3.51,4.25-8.22,4.25-11.45,0-2.68-.28-6.47-2.86-9.15-2.12-2.31-6.19-3.79-12.1-3.79-.92,0-2.86.09-6.74.55v-4.51c5.36.92,11.82-.19,16.63-5.27,2.77-2.96,3.7-5.73,3.7-8.78,0-9.98-10.72-10.35-14.41-10.35s-7.39.37-10.62.92l-1.31,54.88Z" fill="#7c1414"/>
    <path d="M110.42,69.81c-8.59,0-13.95,7.21-15.7,14.23l-3.51.92,1.02-18.84h56.9l1.02,18.84-3.51-.92c-1.75-7.02-7.11-14.23-15.7-14.23h-5.17l-1.2,52.1c-.09,2.77.18,4.9,5.17,5.73l5.27.83v2.31h-28.64v-2.31l5.27-.83c4.99-.74,5.27-2.96,5.17-5.73l-1.29-52.1h-5.1Z" fill="#7c1414"/>
    <path d="M187,64.45c21.06,0,34.36,13.95,34.36,32.7,0,20.42-15.15,35.1-34.36,35.1s-34.27-14.69-34.27-35.1c0-18.75,13.21-32.7,34.27-32.7ZM187,128.56c16.9,0,22.82-15.89,22.82-31.41,0-20.05-10.35-29.01-22.72-29.01-9.61,0-22.72,5.82-22.72,29.01-.01,30.95,19.85,31.41,22.62,31.41Z" fill="#7c1414"/>
    <path d="M256.75,66.11c4.43,0,12.75.37,17.18,4.43,2.12,1.94,4.16,5.45,4.16,10.53,0,6-2.68,11.82-6.84,15.61-4.62,4.16-11.64,6.37-17.37,6.37-3.33,0-7.21-.83-9.52-1.39l.65-3.33c1.85.65,4.62,1.29,8.31,1.29,9.7,0,13.86-7.11,13.86-16.07,0-13.02-9.61-13.76-16.07-13.76-3.05,0-5.36.28-7.85.65l-1.2,51.45c-.09,2.68.18,5.08,5.17,5.73l6.28.83v2.31h-29.65v-2.31l5.27-.83c4.99-.83,5.27-2.96,5.17-5.73l-1.11-47.39c-.09-2.49-.09-4.9-5.45-5.54l-4.34-.55v-2.31h33.35Z" fill="#7c1414"/>
    <path d="M357.25,66.11v2.31l-4.34.55c-5.36.65-5.36,3.05-5.45,5.54l-1.11,47.39c-.09,2.77.18,4.9,5.17,5.73l5.27.83v2.31h-28.64v-2.31l5.26-.83c4.99-.74,5.27-2.96,5.17-5.73l-.55-22.82c-2.96-.37-7.02-.83-17.83-.83s-13.49.18-17.92,1.02l-.55,22.63c-.09,2.77.18,4.99,5.17,5.73l5.27.83v2.31h-28.64v-2.31l5.27-.83c4.99-.83,5.27-2.96,5.17-5.73l-1.11-47.39c-.09-2.49-.09-4.9-5.45-5.54l-4.34-.55v-2.31h29.56v2.31l-4.34.55c-5.36.65-5.36,3.05-5.45,5.54l-.46,19.49c2.49.37,7.85.92,17.83.92s15.24-.55,17.74-.92l-.46-19.49c-.09-2.49-.09-4.9-5.45-5.54l-4.34-.55v-2.31h29.55Z" fill="#7c1414"/>
    <path d="M391.8,66.11v2.31l-4.34.55c-5.36.65-5.36,3.05-5.45,5.54l-.92,42.22h.55c18.11-20.88,31.04-38.15,39.81-50.62h15.24v2.31l-4.34.55c-5.36.65-5.36,3.05-5.45,5.54l-1.11,47.39c-.09,2.77.19,4.9,5.17,5.73l5.26.83v2.31h-28.62v-2.31l5.27-.83c4.99-.74,5.27-2.96,5.17-5.73l-1.02-41.66c-16.44,18.75-29.93,36.03-40.65,50.53h-13.67v-2.31l5.27-.83c4.99-.83,5.27-2.96,5.17-5.73l-1.11-47.39c-.09-2.49-.09-4.9-5.45-5.54l-4.34-.55v-2.31h29.56Z" fill="#7c1414"/>
    <path d="M471.24,66.11v2.31l-4.34.55c-5.36.65-5.36,3.05-5.45,5.54l-1.11,47.39c-.09,2.77.18,4.9,5.17,5.73l5.27.83v2.31h-28.64v-2.31l5.27-.83c4.99-.83,5.27-2.96,5.17-5.73l-1.11-47.39c-.09-2.49-.09-4.9-5.45-5.54l-4.34-.55v-2.31h29.56ZM482.24,66.11h22.91v2.31c-3.33.65-8.5,2.31-17.74,10.25-10.35,8.96-13.12,12.38-13.86,13.49l-.09,1.11c3.42,5.08,14.13,20.05,19.12,26.33,3.88,4.9,6.19,7.48,8.22,7.48.46,0,1.57-.28,4.06-2.49l1.57,2.4c-4.8,3.33-7.11,5.27-9.33,5.27-3.7,0-9.33-6.47-17.27-15.7-8.78-10.25-7.39-9.33-12.29-15.06-2.22-2.59-3.14-3.97-3.14-4.8,0-.65.74-1.48,2.49-3.42l16.91-19.12c1.75-1.94,2.86-3.33,2.86-4.06,0-1.02-2.59-1.39-3.23-1.48l-1.2-.19v-2.32h.01Z" fill="#7c1414"/>
  </g>
  <g>
    <path d="M38.81,141.09c-1.67,0-2.72,1.4-3.06,2.77l-.68.18.2-3.67h11.09l.2,3.67-.68-.18c-.34-1.37-1.39-2.77-3.06-2.77h-1.02l-.23,10.15c-.02.54.04.95,1.01,1.12l1.03.16v.45h-5.58v-.45l1.03-.16c.97-.14,1.03-.58,1.01-1.12l-.25-10.15h-1.01Z" fill="#7c1414"/>
    <path d="M49.72,145.68c.85-.72,2.05-.99,3.1-.99s2.21.27,3.06.99c1.22,1.03,1.31,2.5,1.31,3.24,0,1.76-.74,2.79-1.44,3.37-.49.4-1.4.9-2.95.9s-2.47-.5-2.95-.9c-.7-.58-1.44-1.6-1.44-3.37-.01-.74.08-2.21,1.31-3.24ZM50.74,151.55c.36.52,1.01,1.08,2.05,1.08s1.69-.56,2.05-1.08c.5-.76.58-1.75.58-2.61s-.07-1.87-.58-2.63c-.38-.56-.99-1.06-2.05-1.06s-1.67.5-2.05,1.06c-.5.76-.58,1.78-.58,2.63,0,.86.08,1.85.58,2.61Z" fill="#7c1414"/>
    <path d="M65.95,151.26c.13.63.25,1.21,1.01,1.44v.27h-3.64v-.27l.61-.16c.52-.14.74-.22.74-.59,0-.2-.05-.4-.16-.76l-1.58-5.67h-.38c-.38,1.91-1.21,4.61-1.93,6.27-.54,1.22-1.03,1.4-1.26,1.4-.16,0-.58-.13-.58-1.15,0-.72.09-1.37.85-1.37.22,0,.4.07.5.13.36-.76.56-1.3.77-1.98.47-1.44.59-2.2.59-2.68,0-.34-.05-.61-.74-.61-.38,0-.61.04-.86.09l.09-.61,4.59-.14,1.38,6.39Z" fill="#7c1414"/>
    <path d="M75.28,152.07c-1.15.79-1.89,1.12-2.93,1.12-1.31,0-2.34-.45-2.99-1.1-.32-.32-1.13-1.24-1.13-2.93s.63-2.85,1.44-3.53c1.04-.88,2.34-.94,2.95-.94,1.94,0,2.77.77,2.77,1.49,0,.38-.25.72-.77.72-.77,0-.97-.58-1.13-.99-.11-.29-.27-.67-.92-.67-1.1,0-2.56.85-2.56,3.56,0,.56.05,1.49.56,2.29.49.77,1.37,1.33,2.36,1.33.81,0,1.62-.5,2.09-.85l.26.5Z" fill="#7c1414"/>
    <path d="M77.63,147.41l-.54.14v-2.7h7.8l.11,2.79-.65-.23c-.2-1.22-1.28-2.07-2.56-2l-.14,6.14c-.02.83.22.92.7,1.03l.59.13v.27h-3.92v-.27l.61-.13c.74-.16.72-.54.7-1.03l-.14-6.14c-1.28-.07-2.36.78-2.56,2Z" fill="#7c1414"/>
    <path d="M86.45,144.85h3.96v.29l-.32.09c-.41.11-.83.25-.83,1.15l-.05,5.85c.25.11.58.18.95.18.67,0,1.26-.25,1.69-.68.52-.52.59-1.08.59-1.62,0-1.42-.95-1.55-1.3-1.55-.27,0-.97.14-1.17.22l-.09.04-.11-.45c.49-.22,1.04-.4,1.73-.4.74,0,1.57.14,2.03.58.27.23.61.68.61,1.44,0,1.01-.38,1.69-.92,2.14-.94.77-2.25.85-2.92.85h-3.87v-.27l.61-.13c.67-.14.7-.47.68-1.03l-.13-5.17c-.02-.86-.32-.99-.86-1.15l-.31-.09v-.29h.03ZM94.3,144.85h3.93v.29l-.31.09c-.58.16-.79.29-.83,1.15l-.16,5.17c-.02.83.23.92.7,1.03l.59.13v.27h-3.92v-.27l.61-.13c.68-.14.72-.45.7-1.03l-.16-5.17c-.04-.92-.38-1.03-.83-1.15l-.32-.09s0-.29,0-.29Z" fill="#7c1414"/>
    <path d="M103.01,145.23c-.45.13-.79.23-.83,1.15l-.18,4.9h.11l4.72-6.43h2.4v.29l-.31.09c-.52.16-.83.29-.85,1.15l-.14,5.17c-.02.68.04.9.68,1.03l.61.13v.27h-3.93v-.27l.61-.13c.59-.13.7-.38.68-1.03l-.18-5.02h-.11l-4.72,6.45h-2.18v-.27l.61-.13c.67-.14.7-.49.68-1.03l-.16-5.17c-.04-.86-.25-.99-.83-1.15l-.31-.09v-.29h3.93v.29l-.3.09ZM105.55,143.21c-.29.43-.52.58-.77.58-.45,0-.95-.27-1.35-.5l-.72-.41.32-.43c.32.2.61.31.94.31.59,0,1.06-.47,1.71-1.13.43-.45.76-.81,1.17-1.3l.45.23-1.75,2.65Z" fill="#7c1414"/>
    <path d="M115.52,144.69c.34.11.67.16.95.16.25,0,.45-.04,1.28-.11.31-.04.4-.05,1.04-.05.52,0,1.3,0,1.94.38.67.4.85.99.85,1.4,0,.79-.63,1.66-1.66,1.96v.2c.38.04.94.22,1.28.5.29.25.52.67.52,1.21,0,.83-.49,1.64-1.19,2.14-.59.41-1.42.7-2.45.7-1.8,0-3.22-.77-3.22-1.76,0-.45.29-.77.81-.77.61,0,.97.5,1.06,1.06.07.34.22.99,1.13.99,1.19,0,2.11-.88,2.11-2.18,0-1.53-1.24-1.6-1.75-1.6-.31,0-.58.04-.86.13-.09-.11-.13-.22-.13-.4,0-.2.02-.32.13-.43.38.09.63.13.9.13.88,0,1.73-.49,1.73-1.71,0-.9-.65-1.39-1.46-1.39-1.49,0-2.29.97-2.65,1.84l-.49-.09.13-2.31Z" fill="#7c1414"/>
    <path d="M131.65,152.45c-.36.22-.13.05-.58.32-.31.18-.59.41-.9.41-.18,0-.85-.11-1.19-1.46-.85.59-2.39,1.46-3.29,1.46-1.13,0-2.05-1.03-2.05-2.48,0-.47.13-1.26,1.37-1.66l3.82-1.22.04-1.46c.04-1.17-1.06-1.17-1.37-1.17-1.26,0-1.55.5-1.66.95-.07.31-.22.97-.99.97-.4,0-.81-.23-.81-.77,0-.79.68-1.17,1.26-1.37.49-.16,1.12-.29,2.05-.29.47,0,1.62.04,2.34.36.85.38.81.92.76,1.64-.05.86-.23,2.79-.16,4.38.04.72.07,1.17.5,1.17.23,0,.38-.09.65-.25l.21.47ZM128.83,148.4c-.58.2-.86.29-1.26.41-1.93.61-2.47.99-2.47,1.91,0,.52.13,1.58,1.15,1.58.23,0,1.15-.02,2.57-1.06v-2.84h0Z" fill="#7c1414"/>
    <path d="M138.06,144.85c.65,0,1.44,0,1.98.47.31.27.49.7.49,1.24,0,.97-.85,1.64-1.82,1.91v.18c1.48-.02,2.09,1.01,2.09,1.87,0,.7-.34,1.26-1.01,1.71-1.06.74-2.09.74-3.11.74h-3.93v-.27l.61-.13c.47-.09.72-.2.7-1.03l-.16-5.17c-.04-.92-.38-1.03-.83-1.15l-.32-.09v-.29h5.31ZM135.4,152.27c.36.07.86.14,1.53.14.52,0,1.19-.07,1.67-.56.4-.4.47-.9.47-1.26,0-1.13-.76-1.69-1.78-1.69-.56,0-.95.09-1.24.2v-.72c1.44.22,2.88-.38,2.88-1.87,0-.99-.74-1.1-1.37-1.1-.56,0-1.37.07-1.94.14l-.22,6.72Z" fill="#7c1414"/>
    <path d="M145.89,145.23c-.45.13-.79.23-.83,1.15l-.18,4.9h.11l4.72-6.43h2.4v.29l-.31.09c-.52.16-.83.29-.85,1.15l-.14,5.17c-.02.68.04.9.68,1.03l.61.13v.27h-3.93v-.27l.61-.13c.59-.13.7-.38.68-1.03l-.18-5.02h-.11l-4.72,6.45h-2.18v-.27l.61-.13c.67-.14.7-.49.68-1.03l-.16-5.17c-.04-.86-.25-.99-.83-1.15l-.31-.09v-.29h3.93v.29l-.3.09Z" fill="#7c1414"/>
    <path d="M160.56,152.07c-1.15.79-1.89,1.12-2.93,1.12-1.31,0-2.34-.45-2.99-1.1-.32-.32-1.13-1.24-1.13-2.93s.63-2.85,1.44-3.53c1.04-.88,2.34-.94,2.95-.94,1.94,0,2.77.77,2.77,1.49,0,.38-.25.72-.77.72-.77,0-.97-.58-1.13-.99-.11-.29-.27-.67-.92-.67-1.1,0-2.56.85-2.56,3.56,0,.56.05,1.49.56,2.29.49.77,1.37,1.33,2.36,1.33.81,0,1.62-.5,2.09-.85l.26.5Z" fill="#7c1414"/>
    <path d="M165.71,145.23c-.45.13-.79.23-.83,1.15l-.18,4.9h.11l4.72-6.43h2.4v.29l-.31.09c-.52.16-.83.29-.85,1.15l-.14,5.17c-.02.68.04.9.68,1.03l.61.13v.27h-3.92v-.27l.61-.13c.59-.13.7-.38.68-1.03l-.18-5.02h-.11l-4.72,6.45h-2.18v-.27l.61-.13c.67-.14.7-.49.68-1.03l-.16-5.17c-.04-.86-.25-.99-.83-1.15l-.31-.09v-.29h3.93v.29l-.31.09Z" fill="#7c1414"/>
    <path d="M178.76,149.19h.11l1.76-4.34h3.6v.29l-.31.09c-.52.16-.83.29-.85,1.15l-.14,5.17c-.02.56.02.88.68,1.03l.61.13v.27h-3.93v-.27l.61-.13c.63-.13.72-.34.68-1.03l-.34-6.03h-.11l-2.23,5.4-.65.29-2.67-5.69h-.09l-.4,5.78c-.07,1.1.11.94.74,1.15l.72.25v.27h-3.48v-.27c.86-.16,1.12-.59,1.17-1.4l.34-4.54c.05-.59.31-.97-.88-1.37l-.43-.14v-.29h3.82l1.67,4.23Z" fill="#7c1414"/>
    <path d="M185.42,144.85h3.96v.29l-.32.09c-.41.11-.83.25-.83,1.15l-.05,5.85c.25.11.58.18.95.18.67,0,1.26-.25,1.69-.68.52-.52.59-1.08.59-1.62,0-1.42-.95-1.55-1.3-1.55-.27,0-.97.14-1.17.22l-.09.04-.11-.45c.49-.22,1.04-.4,1.73-.4.74,0,1.57.14,2.03.58.27.23.61.68.61,1.44,0,1.01-.38,1.69-.92,2.14-.94.77-2.25.85-2.92.85h-3.87v-.27l.61-.13c.67-.14.7-.47.68-1.03l-.13-5.17c-.02-.86-.32-.99-.86-1.15l-.31-.09v-.29h.03ZM193.27,144.85h3.93v.29l-.31.09c-.58.16-.79.29-.83,1.15l-.16,5.17c-.02.83.23.92.7,1.03l.59.13v.27h-3.93v-.27l.61-.13c.68-.14.72-.45.7-1.03l-.16-5.17c-.04-.92-.38-1.03-.83-1.15l-.32-.09v-.29h.01Z" fill="#7c1414"/>
    <path d="M201.98,145.23c-.45.13-.79.23-.83,1.15l-.18,4.9h.11l4.72-6.43h2.4v.29l-.31.09c-.52.16-.83.29-.85,1.15l-.14,5.17c-.02.68.04.9.68,1.03l.61.13v.27h-3.93v-.27l.61-.13c.59-.13.7-.38.68-1.03l-.18-5.02h-.11l-4.72,6.45h-2.18v-.27l.61-.13c.67-.14.7-.49.68-1.03l-.16-5.17c-.04-.86-.25-.99-.83-1.15l-.31-.09v-.29h3.93v.29l-.3.09ZM204.52,143.21c-.29.43-.52.58-.77.58-.45,0-.95-.27-1.35-.5l-.72-.41.32-.43c.32.2.61.31.94.31.59,0,1.06-.47,1.71-1.13.43-.45.76-.81,1.17-1.3l.45.23-1.75,2.65Z" fill="#7c1414"/>
    <path d="M213.8,143.84l-1.13,2.2c-.05.11-.09.18-.25.18-.09,0-.14-.05-.22-.11l-.65-.43c-.07-.04-.11-.11-.11-.16,0-.14.07-.23.14-.31l1.67-1.75-.02-.09-.59-.11-1.87-.31c-.11-.02-.25-.04-.16-.38l.22-.74c.02-.07.09-.23.25-.23.09,0,.23.05.29.09l2.11,1.06.07-.05-.38-2.32c-.04-.18-.05-.45.32-.45h.72c.38,0,.36.27.32.45l-.38,2.32.07.05,2.11-1.06c.05-.04.2-.09.29-.09.16,0,.23.16.25.23l.22.74c.09.34-.05.36-.16.38l-1.87.31-.59.11-.02.09,1.67,1.75c.07.07.14.16.14.31,0,.05-.04.13-.11.16l-.65.43c-.07.05-.13.11-.22.11-.16,0-.2-.07-.25-.18l-1.13-2.2h-.1Z" fill="#7c1414"/>
    <path d="M231,151.26c.13.63.25,1.21,1.01,1.44v.27h-3.64v-.27l.61-.16c.52-.14.74-.22.74-.59,0-.2-.05-.4-.16-.76l-1.58-5.67h-.38c-.38,1.91-1.21,4.61-1.93,6.27-.54,1.22-1.03,1.4-1.26,1.4-.16,0-.58-.13-.58-1.15,0-.72.09-1.37.85-1.37.22,0,.4.07.5.13.36-.76.56-1.3.77-1.98.47-1.44.59-2.2.59-2.68,0-.34-.05-.61-.74-.61-.38,0-.61.04-.86.09l.09-.61,4.59-.14,1.38,6.39Z" fill="#7c1414"/>
    <path d="M236.65,145.23c-.45.13-.79.23-.83,1.15l-.18,4.9h.11l4.72-6.43h2.4v.29l-.31.09c-.52.16-.83.29-.85,1.15l-.14,5.17c-.02.68.04.9.68,1.03l.61.13v.27h-3.93v-.27l.61-.13c.59-.13.7-.38.68-1.03l-.18-5.02h-.11l-4.72,6.45h-2.18v-.27l.61-.13c.67-.14.7-.49.68-1.03l-.16-5.17c-.04-.86-.25-.99-.83-1.15l-.31-.09v-.29h3.93v.29l-.3.09Z" fill="#7c1414"/>
    <path d="M244.85,147.41l-.54.14v-2.7h7.8l.11,2.79-.65-.23c-.2-1.22-1.28-2.07-2.56-2l-.14,6.14c-.02.83.22.92.7,1.03l.59.13v.27h-3.92v-.27l.61-.13c.74-.16.72-.54.7-1.03l-.14-6.14c-1.28-.07-2.36.78-2.56,2Z" fill="#7c1414"/>
    <path d="M260.82,152.24c-.97.77-2,.95-2.75.95-1.35,0-2.43-.49-3.1-1.19-.56-.59-1.08-1.6-1.08-3.04,0-1.24.43-2.14.92-2.77.72-.94,1.73-1.49,3.15-1.49.77,0,1.46.18,2.05.63.67.5,1.21,1.35,1.21,2.74,0,.54-.27.49-.56.49h-4.99c-.02.92.11,1.51.25,1.93.61,1.76,1.82,1.96,2.61,1.96.59,0,1.24-.16,1.98-.74l.31.53ZM259.36,147.93c.41,0,.45-.22.45-.52,0-.81-.36-2.16-1.84-2.16s-2.27,1.26-2.3,2.68h3.69Z" fill="#7c1414"/>
    <path d="M265.73,145.29h.11c.52-.31,1.24-.59,2.3-.59.81,0,2.02.13,2.88,1.1.76.85.88,1.87.88,2.68,0,1.82-.81,2.9-1.42,3.49-.86.81-2.05,1.22-3.19,1.22-.68,0-1.42-.14-1.73-.22l-.07,2.36c-.02.41-.07.88.7,1.01l.86.14v.27h-4.19v-.27l.63-.14c.52-.13.7-.16.68-1.01l-.18-7.87c-.02-.7.02-1.12-.14-1.37-.23-.36-.68-.36-1.19-.31v-.49c1.73-.05,2.72-.45,3.08-.61v.61ZM265.61,152.29c.49.25.92.34,1.4.34,1.42,0,2.16-.79,2.52-1.31.56-.81.61-1.71.61-2.32,0-.95-.07-1.82-.45-2.48-.49-.86-1.21-1.12-1.98-1.12-.47,0-1.31.11-1.98.86l-.12,6.03Z" fill="#7c1414"/>
    <path d="M281.72,152.45c-.36.22-.13.05-.58.32-.31.18-.59.41-.9.41-.18,0-.85-.11-1.19-1.46-.85.59-2.39,1.46-3.29,1.46-1.13,0-2.05-1.03-2.05-2.48,0-.47.13-1.26,1.37-1.66l3.82-1.22.04-1.46c.04-1.17-1.06-1.17-1.37-1.17-1.26,0-1.55.5-1.66.95-.07.31-.22.97-.99.97-.4,0-.81-.23-.81-.77,0-.79.68-1.17,1.26-1.37.49-.16,1.12-.29,2.05-.29.47,0,1.62.04,2.34.36.85.38.81.92.76,1.64-.05.86-.23,2.79-.16,4.38.04.72.07,1.17.5,1.17.23,0,.38-.09.65-.25l.21.47ZM278.89,148.4c-.58.2-.86.29-1.26.41-1.93.61-2.47.99-2.47,1.91,0,.52.13,1.58,1.15,1.58.23,0,1.15-.02,2.57-1.06v-2.84h.01Z" fill="#7c1414"/>
    <path d="M283.63,147.41l-.54.14v-2.7h7.8l.11,2.79-.65-.23c-.2-1.22-1.28-2.07-2.56-2l-.14,6.14c-.02.83.22.92.7,1.03l.59.13v.27h-3.92v-.27l.61-.13c.74-.16.72-.54.7-1.03l-.14-6.14c-1.29-.07-2.37.78-2.56,2Z" fill="#7c1414"/>
    <path d="M299.4,146.37c.04-.11.11-.47.11-.58,0-.32-.52-.63-1.06-.65v-.29h3.15v.29c-.65.09-.94.49-1.46,1.73l-2.58,6.16c-1.04,2.5-2.21,3.91-3.4,3.91-.86,0-.88-.72-.88-.83,0-.65.58-.95,1.12-.95s.18.16.88.16c.63,0,1.06-.83,1.42-1.67l-2.74-6.64c-.36-.86-.63-1.66-1.55-1.85v-.29h3.73v.29c-.81.05-.99.45-.99.7,0,.2.25.97.34,1.21l1.76,4.92h.11l2.04-5.62Z" fill="#7c1414"/>
    <path d="M305.51,145.29h.11c.52-.31,1.24-.59,2.3-.59.81,0,2.02.13,2.88,1.1.76.85.88,1.87.88,2.68,0,1.82-.81,2.9-1.42,3.49-.86.81-2.05,1.22-3.19,1.22-.68,0-1.42-.14-1.73-.22l-.07,2.36c-.02.41-.07.88.7,1.01l.86.14v.27h-4.2v-.27l.63-.14c.52-.13.7-.16.68-1.01l-.18-7.87c-.02-.7.02-1.12-.14-1.37-.23-.36-.68-.36-1.19-.31v-.49c1.73-.05,2.72-.45,3.08-.61v.61ZM305.39,152.29c.49.25.92.34,1.4.34,1.42,0,2.16-.79,2.52-1.31.56-.81.61-1.71.61-2.32,0-.95-.07-1.82-.45-2.48-.49-.86-1.21-1.12-1.98-1.12-.47,0-1.31.11-1.98.86l-.12,6.03Z" fill="#7c1414"/>
    <path d="M316.71,145.23c-.47.14-.83.23-.85,1.15l-.05,1.87c1.42.09,2.86.09,4.29,0l-.05-1.87c-.02-.92-.38-1.03-.83-1.15l-.32-.09v-.29h3.93v.29l-.31.09c-.58.16-.79.29-.83,1.15l-.16,5.17c-.02.54.02.88.68,1.03l.61.13v.27h-3.93v-.27l.61-.13c.67-.14.72-.45.7-1.03l-.09-2.61c-1.44-.09-2.88-.09-4.32,0l-.07,2.61c-.02.68.04.9.68,1.03l.61.13v.27h-3.93v-.27l.61-.13c.67-.14.7-.47.68-1.03l-.14-5.17c-.02-.86-.32-.99-.85-1.15l-.31-.09v-.29h3.93v.29l-.29.09Z" fill="#7c1414"/>
    <path d="M325.55,145.68c.85-.72,2.05-.99,3.1-.99s2.21.27,3.06.99c1.22,1.03,1.31,2.5,1.31,3.24,0,1.76-.74,2.79-1.44,3.37-.49.4-1.4.9-2.95.9s-2.47-.5-2.95-.9c-.7-.58-1.44-1.6-1.44-3.37,0-.74.08-2.21,1.31-3.24ZM326.57,151.55c.36.52,1.01,1.08,2.05,1.08s1.69-.56,2.05-1.08c.5-.76.58-1.75.58-2.61s-.07-1.87-.58-2.63c-.38-.56-.99-1.06-2.05-1.06s-1.67.5-2.05,1.06c-.5.76-.58,1.78-.58,2.63,0,.86.08,1.85.58,2.61Z" fill="#7c1414"/>
    <path d="M335.19,148.06c.54.04,1.17.07,1.89.07.61,0,2.16-.04,2.72-.07l-.25.77c-.25,0-1.39-.04-2.02-.04-.88,0-1.73.04-2.63.14l.29-.87Z" fill="#7c1414"/>
    <path d="M347.8,146.15c.13-.16.23-.31.23-.45,0-.11-.11-.29-.36-.4-.11-.05-.22-.07-.52-.16v-.29h3.24v.29c-.56.2-1.01.5-1.73,1.31l-1.94,2.21,2.23,2.84c.56.72.85,1.03,1.44,1.19v.27h-3.39v-.27l.45-.05c.11-.02.47-.04.47-.27,0-.11-.23-.41-.31-.49l-1.84-2.2h-.09l-1.39,2.03c-.09.14-.27.47-.27.59,0,.31.31.32.49.34l.41.04v.27h-3.46v-.27c.68-.16,1.66-1.04,2.12-1.6l1.66-1.98-2.2-2.77c-.58-.74-1.04-1.03-1.48-1.21v-.29h3.82v.29c-.67.02-.9.36-.9.54,0,.16.31.61.41.76l1.3,1.75h.14l1.47-2.02Z" fill="#7c1414"/>
    <path d="M358.7,146.37c.04-.11.11-.47.11-.58,0-.32-.52-.63-1.06-.65v-.29h3.15v.29c-.65.09-.94.49-1.46,1.73l-2.57,6.16c-1.04,2.5-2.21,3.91-3.4,3.91-.86,0-.88-.72-.88-.83,0-.65.58-.95,1.12-.95s.18.16.88.16c.63,0,1.06-.83,1.42-1.67l-2.74-6.64c-.36-.86-.63-1.66-1.55-1.85v-.29h3.73v.29c-.81.05-.99.45-.99.7,0,.2.25.97.34,1.21l1.76,4.92h.11l2.03-5.62Z" fill="#7c1414"/>
    <path d="M369.83,152.34h.88v3.06l-.63.27c-.13-.56-.13-.67-.18-1.01-.29-1.51-.94-1.69-1.39-1.69h-4.18c-.72,0-1.49.23-1.85,2.48l-.63.22v-3.33h.36c.58,0,.88-.59,1.12-1.1.65-1.39,1.31-3.33,1.58-4.1.2-.59.27-.81.27-1.01,0-.56-.49-.61-1.1-.58l-.36.02.09-.61,4.09-.11,1.93,7.49ZM366.35,145.59h-.32c-.07.29-.13.52-.29,1.1-.31,1.08-.45,1.51-.88,2.74-.4,1.1-.63,1.75-.83,2.25-.18.43-.2.5-.2.54,0,.05.04.2.25.2h4.43l-2.16-6.83Z" fill="#7c1414"/>
    <path d="M373.48,145.68c.85-.72,2.05-.99,3.1-.99s2.21.27,3.06.99c1.22,1.03,1.31,2.5,1.31,3.24,0,1.76-.74,2.79-1.44,3.37-.49.4-1.4.9-2.95.9s-2.47-.5-2.95-.9c-.7-.58-1.44-1.6-1.44-3.37,0-.74.09-2.21,1.31-3.24ZM374.51,151.55c.36.52,1.01,1.08,2.05,1.08s1.69-.56,2.05-1.08c.5-.76.58-1.75.58-2.61s-.07-1.87-.58-2.63c-.38-.56-.99-1.06-2.05-1.06s-1.67.5-2.05,1.06c-.5.76-.58,1.78-.58,2.63,0,.86.07,1.85.58,2.61Z" fill="#7c1414"/>
    <path d="M385.81,145.14c-.34.05-.76.14-.76.43,0,.18.22.43.49.7l1.96,2c.09.09.29.31.29.43,0,.25-1.51,2.05-1.64,2.2-1.66,1.89-2.2,2.29-2.58,2.29s-.72-.29-.97-.47c-.16-.11-.23-.16-.4-.31l.32-.41c.2.18.5.38.65.38.14,0,.31-.09.88-.77.74-.88,2-2.59,2.45-3.38v-.07c-.92-.81-1.37-1.21-1.8-1.55-1.12-.9-1.6-1.26-2.29-1.46v-.29h3.38v.28h.02ZM390.98,144.85v.29l-.31.09c-.52.16-.83.29-.85,1.15l-.14,5.17c-.02.56.02.88.68,1.03l.61.13v.27h-3.92v-.27l.61-.13c.65-.13.7-.34.68-1.03l-.14-5.17c-.02-.92-.38-1.01-.85-1.15l-.31-.09v-.29h3.94ZM395.62,144.85v.29c-.68.2-1.17.56-2.29,1.46-.43.34-.88.74-1.8,1.55v.07c.45.79,1.71,2.5,2.45,3.38.58.68.74.77.88.77s.45-.2.65-.38l.32.41c-.16.14-.23.2-.4.31-.25.18-.59.47-.97.47s-.92-.4-2.58-2.29c-.13-.14-1.64-1.94-1.64-2.2,0-.13.2-.34.29-.43l1.96-2c.27-.27.49-.52.49-.7,0-.29-.41-.38-.76-.43v-.29h3.4Z" fill="#7c1414"/>
    <path d="M404.03,152.24c-.97.77-2,.95-2.75.95-1.35,0-2.43-.49-3.1-1.19-.56-.59-1.08-1.6-1.08-3.04,0-1.24.43-2.14.92-2.77.72-.94,1.73-1.49,3.15-1.49.77,0,1.46.18,2.05.63.67.5,1.21,1.35,1.21,2.74,0,.54-.27.49-.56.49h-4.99c-.02.92.11,1.51.25,1.93.61,1.76,1.82,1.96,2.61,1.96.59,0,1.24-.16,1.98-.74l.31.53ZM402.57,147.93c.41,0,.45-.22.45-.52,0-.81-.36-2.16-1.84-2.16s-2.27,1.26-2.3,2.68h3.69Z" fill="#7c1414"/>
    <path d="M413.15,152.07c-1.15.79-1.89,1.12-2.93,1.12-1.31,0-2.34-.45-2.99-1.1-.32-.32-1.13-1.24-1.13-2.93s.63-2.85,1.44-3.53c1.04-.88,2.34-.94,2.95-.94,1.95,0,2.77.77,2.77,1.49,0,.38-.25.72-.77.72-.77,0-.97-.58-1.13-.99-.11-.29-.27-.67-.92-.67-1.1,0-2.56.85-2.56,3.56,0,.56.05,1.49.56,2.29.49.77,1.37,1.33,2.36,1.33.81,0,1.62-.5,2.09-.85l.26.5Z" fill="#7c1414"/>
    <path d="M415.51,147.41l-.54.14v-2.7h7.8l.11,2.79-.65-.23c-.2-1.22-1.28-2.07-2.56-2l-.14,6.14c-.02.83.22.92.7,1.03l.59.13v.27h-3.92v-.27l.61-.13c.74-.16.72-.54.7-1.03l-.14-6.14c-1.28-.07-2.36.78-2.56,2Z" fill="#7c1414"/>
    <path d="M429.64,144.85c.65,0,1.44,0,1.98.47.31.27.49.7.49,1.24,0,.97-.85,1.64-1.82,1.91v.18c1.48-.02,2.09,1.01,2.09,1.87,0,.7-.34,1.26-1.01,1.71-1.06.74-2.09.74-3.11.74h-3.93v-.27l.61-.13c.47-.09.72-.2.7-1.03l-.16-5.17c-.04-.92-.38-1.03-.83-1.15l-.32-.09v-.29h5.31ZM426.97,152.27c.36.07.86.14,1.53.14.52,0,1.19-.07,1.67-.56.4-.4.47-.9.47-1.26,0-1.13-.76-1.69-1.78-1.69-.56,0-.96.09-1.24.2v-.72c1.44.22,2.88-.38,2.88-1.87,0-.99-.74-1.1-1.37-1.1-.56,0-1.37.07-1.94.14l-.22,6.72Z" fill="#7c1414"/>
    <path d="M441.02,152.24c-.97.77-2,.95-2.75.95-1.35,0-2.43-.49-3.1-1.19-.56-.59-1.08-1.6-1.08-3.04,0-1.24.43-2.14.92-2.77.72-.94,1.73-1.49,3.15-1.49.77,0,1.46.18,2.05.63.67.5,1.21,1.35,1.21,2.74,0,.54-.27.49-.56.49h-4.99c-.02.92.11,1.51.25,1.93.61,1.76,1.82,1.96,2.61,1.96.59,0,1.24-.16,1.98-.74l.31.53ZM439.56,147.93c.41,0,.45-.22.45-.52,0-.81-.36-2.16-1.84-2.16s-2.27,1.26-2.3,2.68h3.69Z" fill="#7c1414"/>
    <path d="M446.49,145.23c-.47.14-.83.23-.85,1.15l-.05,1.87c1.42.09,2.86.09,4.29,0l-.05-1.87c-.02-.92-.38-1.03-.83-1.15l-.32-.09v-.29h3.93v.29l-.31.09c-.58.16-.79.29-.83,1.15l-.16,5.17c-.02.54.02.88.68,1.03l.61.13v.27h-3.93v-.27l.61-.13c.67-.14.72-.45.7-1.03l-.09-2.61c-1.44-.09-2.88-.09-4.32,0l-.07,2.61c-.02.68.04.9.68,1.03l.61.13v.27h-3.93v-.27l.61-.13c.67-.14.7-.47.68-1.03l-.14-5.17c-.02-.86-.32-.99-.85-1.15l-.31-.09v-.29h3.93v.29l-.29.09Z" fill="#7c1414"/>
    <path d="M457.41,145.23c-.47.14-.83.23-.85,1.15l-.05,1.87c1.42.09,2.86.09,4.29,0l-.05-1.87c-.02-.92-.38-1.03-.83-1.15l-.32-.09v-.29h3.93v.29l-.31.09c-.58.16-.79.29-.83,1.15l-.16,5.17c-.02.54.02.88.68,1.03l.61.13v.27h-3.93v-.27l.61-.13c.67-.14.72-.45.7-1.03l-.09-2.61c-1.44-.09-2.88-.09-4.32,0l-.07,2.61c-.02.68.04.9.68,1.03l.61.13v.27h-3.93v-.27l.61-.13c.67-.14.7-.47.68-1.03l-.14-5.17c-.02-.86-.32-.99-.85-1.15l-.31-.09v-.29h3.93v.29l-.29.09Z" fill="#7c1414"/>
    <path d="M464.72,144.85h3.96v.29l-.32.09c-.41.11-.83.25-.83,1.15l-.05,5.85c.25.11.58.18.96.18.67,0,1.26-.25,1.69-.68.52-.52.59-1.08.59-1.62,0-1.42-.95-1.55-1.3-1.55-.27,0-.97.14-1.17.22l-.09.04-.11-.45c.49-.22,1.04-.4,1.73-.4.74,0,1.57.14,2.04.58.27.23.61.68.61,1.44,0,1.01-.38,1.69-.92,2.14-.94.77-2.25.85-2.92.85h-3.87v-.27l.61-.13c.67-.14.7-.47.68-1.03l-.13-5.17c-.02-.86-.32-.99-.86-1.15l-.31-.09v-.29h.01ZM472.57,144.85h3.93v.29l-.31.09c-.58.16-.79.29-.83,1.15l-.16,5.17c-.02.83.23.92.7,1.03l.59.13v.27h-3.93v-.27l.61-.13c.68-.14.72-.45.7-1.03l-.16-5.17c-.04-.92-.38-1.03-.83-1.15l-.32-.09v-.29h0Z" fill="#7c1414"/>
    <path d="M481.28,145.23c-.45.13-.79.23-.83,1.15l-.18,4.9h.11l4.72-6.43h2.39v.29l-.31.09c-.52.16-.83.29-.85,1.15l-.14,5.17c-.02.68.04.9.68,1.03l.61.13v.27h-3.93v-.27l.61-.13c.59-.13.7-.38.68-1.03l-.18-5.02h-.11l-4.72,6.45h-2.18v-.27l.61-.13c.67-.14.7-.49.68-1.03l-.16-5.17c-.04-.86-.25-.99-.83-1.15l-.31-.09v-.29h3.93v.29l-.29.09ZM483.82,143.21c-.29.43-.52.58-.77.58-.45,0-.95-.27-1.35-.5l-.72-.41.32-.43c.32.2.61.31.94.31.59,0,1.06-.47,1.71-1.13.43-.45.76-.81,1.17-1.3l.45.23-1.75,2.65Z" fill="#7c1414"/>
    <path d="M496.33,145.14c-.34.05-.76.14-.76.43,0,.18.22.43.49.7l1.96,2c.09.09.29.31.29.43,0,.25-1.51,2.05-1.64,2.2-1.66,1.89-2.2,2.29-2.58,2.29s-.72-.29-.97-.47c-.16-.11-.23-.16-.4-.31l.32-.41c.2.18.5.38.65.38.14,0,.31-.09.88-.77.74-.88,2-2.59,2.45-3.38v-.07c-.92-.81-1.37-1.21-1.8-1.55-1.12-.9-1.6-1.26-2.29-1.46v-.29h3.38v.28h.02ZM501.49,144.85v.29l-.31.09c-.52.16-.83.29-.85,1.15l-.14,5.17c-.02.56.02.88.68,1.03l.61.13v.27h-3.92v-.27l.61-.13c.65-.13.7-.34.68-1.03l-.14-5.17c-.02-.92-.38-1.01-.85-1.15l-.31-.09v-.29h3.94ZM506.14,144.85v.29c-.68.2-1.17.56-2.29,1.46-.43.34-.88.74-1.8,1.55v.07c.45.79,1.71,2.5,2.45,3.38.58.68.74.77.88.77s.45-.2.65-.38l.32.41c-.16.14-.23.2-.4.31-.25.18-.59.47-.97.47s-.92-.4-2.58-2.29c-.13-.14-1.64-1.94-1.64-2.2,0-.13.2-.34.29-.43l1.96-2c.27-.27.49-.52.49-.7,0-.29-.41-.38-.76-.43v-.29h3.4Z" fill="#7c1414"/>
    <path d="M514.35,146.37c.04-.11.11-.47.11-.58,0-.32-.52-.63-1.06-.65v-.29h3.15v.29c-.65.09-.94.49-1.46,1.73l-2.57,6.16c-1.04,2.5-2.21,3.91-3.4,3.91-.86,0-.88-.72-.88-.83,0-.65.58-.95,1.12-.95s.18.16.88.16c.63,0,1.06-.83,1.42-1.67l-2.74-6.64c-.36-.86-.63-1.66-1.55-1.85v-.29h3.73v.29c-.81.05-.99.45-.99.7,0,.2.25.97.34,1.21l1.76,4.92h.11l2.03-5.62Z" fill="#7c1414"/>
    <path d="M520.46,145.29h.11c.52-.31,1.24-.59,2.3-.59.81,0,2.02.13,2.88,1.1.76.85.88,1.87.88,2.68,0,1.82-.81,2.9-1.42,3.49-.86.81-2.05,1.22-3.19,1.22-.68,0-1.42-.14-1.73-.22l-.07,2.36c-.02.41-.07.88.7,1.01l.86.14v.27h-4.2v-.27l.63-.14c.52-.13.7-.16.68-1.01l-.18-7.87c-.02-.7.02-1.12-.14-1.37-.23-.36-.68-.36-1.19-.31v-.49c1.73-.05,2.72-.45,3.08-.61v.61ZM520.34,152.29c.49.25.92.34,1.4.34,1.42,0,2.16-.79,2.52-1.31.56-.81.61-1.71.61-2.32,0-.95-.07-1.82-.45-2.48-.49-.86-1.21-1.12-1.98-1.12-.47,0-1.31.11-1.98.86l-.12,6.03Z" fill="#7c1414"/>
    <path d="M531.66,145.23c-.47.14-.83.23-.85,1.15l-.05,1.87c1.42.09,2.86.09,4.29,0l-.05-1.87c-.02-.92-.38-1.03-.83-1.15l-.32-.09v-.29h3.93v.29l-.31.09c-.58.16-.79.29-.83,1.15l-.16,5.17c-.02.54.02.88.68,1.03l.61.13v.27h-3.93v-.27l.61-.13c.67-.14.72-.45.7-1.03l-.09-2.61c-1.44-.09-2.88-.09-4.32,0l-.07,2.61c-.02.68.04.9.68,1.03l.61.13v.27h-3.93v-.27l.61-.13c.67-.14.7-.47.68-1.03l-.14-5.17c-.02-.86-.32-.99-.85-1.15l-.31-.09v-.29h3.93v.29l-.29.09Z" fill="#7c1414"/>
    <path d="M547.38,152.45c-.36.22-.13.05-.58.32-.31.18-.59.41-.9.41-.18,0-.85-.11-1.19-1.46-.85.59-2.39,1.46-3.29,1.46-1.13,0-2.05-1.03-2.05-2.48,0-.47.13-1.26,1.37-1.66l3.82-1.22.04-1.46c.04-1.17-1.06-1.17-1.37-1.17-1.26,0-1.55.5-1.66.95-.07.31-.22.97-.99.97-.4,0-.81-.23-.81-.77,0-.79.68-1.17,1.26-1.37.49-.16,1.12-.29,2.05-.29.47,0,1.62.04,2.34.36.85.38.81.92.76,1.64-.05.86-.23,2.79-.16,4.38.04.72.07,1.17.5,1.17.23,0,.38-.09.65-.25l.21.47ZM544.55,148.4c-.58.2-.86.29-1.26.41-1.93.61-2.47.99-2.47,1.91,0,.52.13,1.58,1.15,1.58.23,0,1.15-.02,2.57-1.06v-2.84h0Z" fill="#7c1414"/>
    <path d="M555.83,151.26c.13.63.25,1.21,1.01,1.44v.27h-3.64v-.27l.61-.16c.52-.14.74-.22.74-.59,0-.2-.05-.4-.16-.76l-1.58-5.67h-.38c-.38,1.91-1.21,4.61-1.93,6.27-.54,1.22-1.03,1.4-1.26,1.4-.16,0-.58-.13-.58-1.15,0-.72.09-1.37.85-1.37.22,0,.4.07.5.13.36-.76.56-1.3.77-1.98.47-1.44.59-2.2.59-2.68,0-.34-.05-.61-.74-.61-.38,0-.61.04-.86.09l.09-.61,4.59-.14,1.38,6.39Z" fill="#7c1414"/>
  </g>
  <g>
    <path d="M428.69,162.48l-.69,1.34c-.03.07-.06.11-.15.11-.05,0-.09-.03-.13-.07l-.4-.26s-.07-.07-.07-.1c0-.09.04-.14.09-.19l1.02-1.07v-.05s-.37-.07-.37-.07l-1.14-.19c-.07,0-.15-.02-.1-.23l.13-.45s.05-.14.15-.14c.05,0,.14.03.18.05l1.29.65.04-.03-.23-1.42c-.02-.11-.03-.28.2-.28h.44c.23,0,.22.17.2.28l-.23,1.42.04.03,1.29-.65s.12-.05.18-.05c.1,0,.14.1.15.14l.13.45c.05.21-.03.22-.1.23l-1.14.19-.36.07v.05s1.01,1.07,1.01,1.07c.04.04.09.1.09.19,0,.03-.02.08-.07.1l-.4.26s-.08.07-.13.07c-.1,0-.12-.04-.15-.11l-.69-1.34h-.08Z" fill="#7c1414"/>
    <path d="M435.63,163.6c.52-.44,1.25-.6,1.89-.6s1.35.17,1.87.6c.75.63.8,1.53.8,1.98,0,1.08-.45,1.71-.88,2.06-.3.24-.86.55-1.8.55s-1.51-.31-1.8-.55c-.43-.35-.88-.98-.88-2.06-.01-.45.05-1.35.8-1.98ZM436.25,167.19c.22.32.62.66,1.25.66s1.03-.34,1.25-.66c.31-.46.35-1.07.35-1.6s-.04-1.14-.35-1.61c-.23-.34-.6-.65-1.25-.65s-1.02.31-1.25.65c-.31.46-.35,1.09-.35,1.61s.05,1.13.35,1.6Z" fill="#7c1414"/>
    <path d="M441.54,164.66l-.33.09v-1.65h4.76l.07,1.71-.4-.14c-.12-.75-.78-1.27-1.56-1.22l-.09,3.75c-.01.51.13.56.43.63l.36.08v.17h-2.4v-.17l.37-.08c.45-.1.44-.33.43-.63l-.09-3.75c-.76-.06-1.42.46-1.55,1.21Z" fill="#7c1414"/>
    <path d="M454.43,167.67h.54v1.87l-.38.17c-.08-.34-.08-.41-.11-.62-.18-.92-.57-1.03-.85-1.03h-2.55c-.44,0-.91.14-1.13,1.52l-.38.13v-2.04h.22c.35,0,.54-.36.68-.67.4-.85.8-2.04.97-2.51.12-.36.17-.5.17-.62,0-.34-.3-.37-.67-.35h-.22s.06-.36.06-.36l2.5-.07,1.15,4.58ZM452.3,163.55h-.2c-.04.18-.08.32-.18.67-.19.66-.27.92-.54,1.67-.24.67-.39,1.07-.51,1.38-.11.26-.12.31-.12.33,0,.03.02.12.15.12h2.71l-1.31-4.17Z" fill="#7c1414"/>
    <path d="M457.93,163.33c-.29.09-.51.14-.52.7l-.03,1.14c.87.05,1.75.05,2.62,0l-.03-1.14c-.01-.56-.23-.63-.51-.7l-.2-.06v-.18h2.4v.18l-.19.06c-.35.1-.48.18-.51.7l-.1,3.16c-.01.33.01.54.42.63l.37.08v.17h-2.4v-.17l.38-.08c.41-.09.44-.27.43-.63l-.05-1.6c-.88-.06-1.76-.06-2.64,0l-.04,1.6c-.01.42.02.55.42.63l.37.08v.17h-2.4v-.17l.37-.08c.41-.09.43-.29.42-.63l-.09-3.16c-.01-.53-.2-.61-.52-.7l-.19-.06v-.18h2.4v.18l-.18.06Z" fill="#7c1414"/>
    <path d="M467.52,163.33c-.29.09-.51.14-.52.7l-.09,3.16c-.01.42.02.55.42.63l.37.08v.17h-2.4v-.17l.37-.08c.41-.09.43-.29.42-.63l-.11-3.75h-.43c-.59,0-1.53.07-1.53.96,0,.36.14.58.39.77s.6.29.89.29c.22,0,.22-.04.32-.04.06,0,.08.04.08.08,0,.03-.03.08-.07.12-.69.9-.31.42-.7.94-.8,1.07-1.3,1.65-1.66,1.65-.14,0-.35-.12-.97-.58l.23-.22c.19.17.29.23.36.23.3,0,.75-.65.98-.98.26-.37.41-.6.6-.94v-.07c-.37,0-.79-.14-1.07-.35-.31-.24-.44-.56-.44-.85,0-.41.21-.88.78-1.13.19-.08.58-.21,1.39-.21h2.56v.18l-.17.04Z" fill="#7c1414"/>
    <path d="M473.2,163.33c-.29.09-.51.14-.52.7l-.03,1.14c.87.05,1.75.05,2.62,0l-.03-1.14c-.01-.56-.23-.63-.51-.7l-.2-.06v-.18h2.4v.18l-.19.06c-.35.1-.48.18-.51.7l-.1,3.16c-.01.33.01.54.42.63l.37.08v.17h-2.4v-.17l.38-.08c.41-.09.44-.27.43-.63l-.05-1.6c-.88-.06-1.76-.06-2.64,0l-.04,1.6c-.01.42.02.55.42.63l.37.08v.17h-2.4v-.17l.37-.08c.41-.09.43-.29.42-.63l-.09-3.16c-.01-.53-.2-.61-.52-.7l-.19-.06v-.18h2.4v.18l-.18.06Z" fill="#7c1414"/>
    <path d="M482.03,167.6c-.59.47-1.22.58-1.68.58-.82,0-1.48-.3-1.89-.73-.34-.36-.66-.98-.66-1.86,0-.76.26-1.31.56-1.69.44-.57,1.06-.91,1.92-.91.47,0,.89.11,1.25.38.41.31.74.83.74,1.67,0,.33-.17.3-.34.3h-3.05c-.01.56.07.92.15,1.18.37,1.08,1.11,1.2,1.6,1.2.36,0,.76-.1,1.21-.45l.19.33ZM481.14,164.98c.25,0,.28-.13.28-.32,0-.5-.22-1.32-1.12-1.32s-1.39.77-1.41,1.64h2.25Z" fill="#7c1414"/>
    <path d="M488.1,167.67h.54v1.87l-.39.17c-.08-.34-.08-.41-.11-.62-.18-.92-.57-1.03-.85-1.03h-2.55c-.44,0-.91.14-1.13,1.52l-.38.13v-2.04h.22c.35,0,.54-.36.68-.67.4-.85.8-2.04.97-2.51.12-.36.16-.5.16-.62,0-.34-.3-.37-.67-.35h-.22s.05-.36.05-.36l2.5-.07,1.18,4.58ZM485.97,163.55h-.2c-.04.18-.08.32-.18.67-.19.66-.28.92-.54,1.67-.24.67-.39,1.07-.51,1.38-.11.26-.12.31-.12.33,0,.03.02.12.15.12h2.71l-1.31-4.17Z" fill="#7c1414"/>
    <path d="M493.76,167.6c-.59.47-1.22.58-1.68.58-.83,0-1.49-.3-1.89-.73-.34-.36-.66-.98-.66-1.86,0-.76.26-1.31.56-1.69.44-.57,1.06-.91,1.92-.91.47,0,.89.11,1.25.38.41.31.74.83.74,1.67,0,.33-.17.3-.34.3h-3.05c-.01.56.07.92.15,1.18.37,1.08,1.11,1.2,1.59,1.2.36,0,.76-.1,1.21-.45l.2.33ZM492.87,164.98c.25,0,.28-.13.28-.32,0-.5-.22-1.32-1.12-1.32s-1.39.77-1.41,1.64h2.25Z" fill="#7c1414"/>
    <path d="M499.39,167.01c.08.38.15.74.62.88v.17h-2.22v-.17l.37-.1c.32-.09.45-.13.45-.36,0-.12-.03-.24-.1-.46l-.97-3.47h-.23c-.23,1.17-.74,2.82-1.18,3.83-.33.75-.63.86-.77.86-.1,0-.35-.08-.35-.7,0-.44.06-.84.52-.84.13,0,.24.04.31.08.22-.46.34-.79.47-1.21.29-.88.36-1.34.36-1.64,0-.21-.03-.37-.45-.37-.23,0-.37.02-.53.06l.05-.37,2.8-.09.85,3.9Z" fill="#7c1414"/>
    <path d="M502.85,163.33c-.28.08-.48.14-.51.7l-.11,2.99h.07l2.88-3.93h1.46v.18l-.19.06c-.32.1-.51.18-.52.7l-.09,3.16c-.01.42.02.55.42.63l.37.08v.17h-2.4v-.17l.37-.08c.36-.08.43-.23.42-.63l-.11-3.07h-.07l-2.88,3.94h-1.33v-.17l.38-.08c.41-.09.43-.3.42-.63l-.1-3.16c-.02-.53-.15-.61-.51-.7l-.19-.06v-.18h2.4v.18l-.18.07Z" fill="#7c1414"/>
    <path d="M512.13,163.33c-.28.08-.48.14-.51.7l-.11,2.99h.07l2.88-3.93h1.46v.18l-.19.06c-.32.1-.51.18-.52.7l-.09,3.16c-.01.42.02.55.42.63l.37.08v.17h-2.4v-.17l.38-.08c.36-.08.43-.23.42-.63l-.11-3.07h-.07l-2.88,3.94h-1.33v-.17l.37-.08c.41-.09.43-.3.42-.63l-.1-3.16c-.02-.53-.15-.61-.51-.7l-.19-.06v-.18h2.4v.18l-.18.07Z" fill="#7c1414"/>
    <path d="M520.79,167.19c-.01.29-.01.54.4.63l.37.08v.17h-2.34v-.17l.36-.08c.33-.07.43-.18.42-.63l-.09-3.17c-.01-.51-.2-.6-.51-.69l-.19-.06v-.18h5.9v.18l-.19.06c-.41.12-.5.22-.51.7l-.1,3.16c-.01.51.14.56.43.63l.36.08v.17h-2.4v-.17l.37-.08c.42-.09.44-.27.43-.63l-.11-3.75h-2.52l-.08,3.75Z" fill="#7c1414"/>
    <path d="M526.77,163.6c.52-.44,1.25-.6,1.89-.6s1.35.17,1.87.6c.75.63.8,1.53.8,1.98,0,1.08-.45,1.71-.88,2.06-.3.24-.86.55-1.8.55s-1.51-.31-1.8-.55c-.43-.35-.88-.98-.88-2.06,0-.45.05-1.35.8-1.98ZM527.4,167.19c.22.32.62.66,1.25.66s1.03-.34,1.25-.66c.31-.46.35-1.07.35-1.6s-.04-1.14-.35-1.61c-.23-.34-.6-.65-1.25-.65s-1.02.31-1.25.65c-.31.46-.35,1.09-.35,1.61,0,.53.04,1.13.35,1.6Z" fill="#7c1414"/>
    <path d="M534.75,168.06h-2.55v-.17l.37-.08c.41-.09.43-.3.42-.63l-.1-3.16c-.02-.57-.19-.62-.51-.7l-.19-.06v-.18h4.16l.09,1.57-.36.14c-.02-.11-.08-.44-.15-.69-.21-.65-.58-.68-.94-.68h-1.09l-.11,3.75c-.01.33.01.57.43.63l.53.08v.18Z" fill="#7c1414"/>
    <path d="M538.15,163.6c.52-.44,1.25-.6,1.89-.6s1.35.17,1.87.6c.75.63.8,1.53.8,1.98,0,1.08-.45,1.71-.88,2.06-.3.24-.86.55-1.8.55s-1.51-.31-1.8-.55c-.43-.35-.88-.98-.88-2.06-.01-.45.05-1.35.8-1.98ZM538.77,167.19c.22.32.62.66,1.25.66s1.03-.34,1.25-.66c.31-.46.35-1.07.35-1.6s-.04-1.14-.35-1.61c-.23-.34-.61-.65-1.25-.65s-1.02.31-1.25.65c-.31.46-.35,1.09-.35,1.61,0,.53.04,1.13.35,1.6Z" fill="#7c1414"/>
    <path d="M548.5,167.67h.54v1.87l-.39.17c-.08-.34-.08-.41-.11-.62-.18-.92-.57-1.03-.85-1.03h-2.55c-.44,0-.91.14-1.13,1.52l-.38.13v-2.04h.22c.35,0,.54-.36.68-.67.4-.85.8-2.04.97-2.51.12-.36.16-.5.16-.62,0-.34-.3-.37-.67-.35h-.22s.05-.36.05-.36l2.5-.07,1.18,4.58ZM546.37,163.55h-.2c-.04.18-.08.32-.18.67-.19.66-.28.92-.54,1.67-.24.67-.39,1.07-.51,1.38-.11.26-.12.31-.12.33,0,.03.02.12.15.12h2.71l-1.31-4.17Z" fill="#7c1414"/>
    <path d="M549.79,163.09h2.42v.18l-.2.06c-.25.07-.51.15-.51.7l-.03,3.58c.15.07.35.11.58.11.41,0,.77-.15,1.03-.42.32-.32.36-.66.36-.99,0-.87-.58-.95-.79-.95-.17,0-.59.09-.71.13l-.06.02-.07-.27c.3-.13.64-.24,1.06-.24.45,0,.96.09,1.24.35.17.14.37.42.37.88,0,.62-.23,1.03-.56,1.31-.57.47-1.38.52-1.78.52h-2.37v-.17l.37-.08c.41-.09.43-.29.42-.63l-.08-3.16c-.01-.53-.2-.61-.53-.7l-.19-.06v-.17h.03ZM554.59,163.09h2.4v.18l-.19.06c-.35.1-.48.18-.51.7l-.1,3.16c-.01.51.14.56.43.63l.36.08v.17h-2.4v-.17l.37-.08c.42-.09.44-.27.43-.63l-.1-3.16c-.02-.56-.23-.63-.51-.7l-.2-.06v-.18h.02Z" fill="#7c1414"/>
  </g>
  <path d="M518.82,95.09c.79-1.47,2.19-1.8,3.69-2.13.73-.16,1.97.44,2.16-1.13,0,1-.05,1.89.02,2.78.02.28.31.55.48.82.21-.28.59-.55.6-.83.06-1.96.04-3.92.04-5.87q-.95-.06-1.29,2.16c-3.36-1.95-6.81-3.72-7.69-7.91-.64-3.03.18-5.73,2.64-7.77,1.55-1.28,1.9-3.1.89-4.88-.7-1.24-1.86-1.82-3.17-2.12-.26-.06-.66.26-.94.47-.96.76-2.15.8-3,.07-.84-.72-.94-1.85-.24-2.68.71-.85,2.13-.96,3.1-.29.59.41,1.23.78,1.89,1.05,2.75,1.14,4.56,3.15,5.77,6.25,1.43-.98,2.9-1.74,4.07-2.83,1.45-1.35,1.51-3,.3-4.61-1.59-2.13-3.57-3.8-6.21-4.55-.2-.06-.35-.3-.53-.45.2-.18.38-.5.59-.51.75-.06,1.36-.03,1.88-.88.25-.41,1.46-.22,2.24-.31q.17-1.69,2.12-2.19c-.32-.64-.53-1.29-.92-1.79-.65-.83-.41-1.44.67-1.85.1-.62.1-1.16.31-1.61.07-.14.91-.16,1,0,.23.4.24.93.39,1.67,1.37.55.59,1.5-.15,2.52,2.5-1.87,5.42-2.28,8.54-2.8-.39-.24-.56-.43-.76-.47-2.94-.55-4.11-1.88-4.31-4.84-.04-.58-.29-1.14-.49-1.84.56-.69.34-2.29-.58-2.57-5-1.5-7.12-5.31-8.08-10.02-.27-1.32-.37-2.68-.54-4.02-.25-1.96-.81-2.55-2.74-2.61.61-.96,1.1-1.88,1.74-2.68.82-1.03,1.45-.94,1.84.31.66,2.12,1.14,4.29,1.74,6.44.81,2.92,3.3,4.69,6.35,4.6.76-2.52,1.53-5.01,2.26-7.51.06-.2.01-.54-.12-.69-.73-.81-.52-1.3.47-1.59.2-.06.43-.13.55-.28,1.16-1.43,2.75-1.93,4.48-2.14.81-.1,1.45-.26.7-1.28-.15-.2.03-.95.09-.95.64-.04,1.28.02,1.92.06-.04.34.05.81-.14,1-.81.8-.28.94.43,1.15,1.25.36,2.46.87,3.72,1.13.45.09,1.01-.32,1.51-.53.39-.17.8-.59,1.11-.52.38.08.67.57.99.88-.3.27-.56.64-.9.78-.47.19-1.02.19-1.79.32.38.23.62.33.79.5.26.26.71.72.65.83-.77,1.22.29,2.12.45,3.32.76-.53,1.39-1.05,2.1-1.44.87-.48,1.78-.95,2.73-1.23,1.81-.54,3.05.14,3.74,1.88,1.35,3.38.46,7.3-2.34,9.84-1,.9-2.1,1.75-3.29,2.36-1.33.68-2.12,1.57-2.23,3.06-.03.34-.15.68-.24,1.07.32.16.64.32.7.35-.23.99-.49,1.8-.59,2.63-.26,2.21-1.14,4.16-4.17,4.32-.25,0-.5.21-1.07.46,3.16.69,6.12,1,8.45,3.18-.09-.27-.1-.62-.28-.81-1.11-1.15-1.05-1.56.16-2.08.05-.6-.01-1.13.18-1.54.08-.18.91-.29.99-.16.28.42.37.96.64,1.76.71.37,1.1.98.05,2.01-.31.31-.21,1.04-.31,1.68,1.48.02,1.98.77,1.73,2.08.43.02.77.05,1.12.06.31,0,.73-.11.9.05.93.84,2,1.16,3.22,1.16.08,0,.25.33.21.4-.12.19-.3.43-.5.48-2.61.59-4.5,2.25-6.13,4.22-1.54,1.87-1.41,3.76.45,5.31,1.28,1.07,2.84,1.82,4.39,2.78.36-.62.58-1.03.82-1.43,1.24-2.06,2.99-3.5,5.27-4.31.51-.18,1.01-.47,1.44-.8,1.03-.8,2.38-.79,3.21.07.74.76.72,1.94-.04,2.71-.85.86-2.13.81-3.22.05-.4-.28-1.1-.42-1.57-.29-1.67.47-2.79,1.55-3.1,3.35-.19,1.11-.01,1.92.96,2.73,3.29,2.74,3.58,7.98.56,11.13-1.34,1.39-3.04,2.47-4.66,3.57-1.19.81-2.51,1.41-3.77,2.11-1.1.61-2.03,1.36-2.23,2.73-.04.29-.16.66-.37.82-1.43,1.11-1.05,2.67-1.1,4.14-.02.78-.1,1.56-.14,2.34-.01.16-.05.39.03.49,1.92,2.36,1.37,5.2,1.63,7.91.22,2.33.6,4.66,1.16,6.93.34,1.35,1,2.65,2.41,3.43.43.23.48,1.16.8,2.02-.2-.09-.09-.02.02.01.84.22,2.27.24,2.41.69.39,1.18.64,2.73.16,3.78-.54,1.2-.6,2.3-.64,3.49-.01.21-.04.42-.07.71-1.03,0-2.02,0-3,0,.36-1,.73-2.02,1.16-3.18-5.18,0-9.97-.03-14.86-.04,0,1.11-.01,2.1-.01,3.17-1.09,0-2.07,0-3.27,0,0-.77-.02-1.53.01-2.3.03-.67-.23-.93-.91-.93-3.94,0-7.87,0-11.81-.04-.83,0-1.07.33-1.03,1.1.04.69.01,1.38,0,2.15-1.16,0-2.18,0-3.33,0-.02-.51.01-.99-.07-1.44-.17-.87-.51-1.71-.58-2.58-.11-1.24-.16-2.5,0-3.72.05-.36.87-.71,1.39-.87.48-.15,1.04-.03,1.3-.03.43-.99.74-1.84,1.15-2.65,1.87-3.7,3.26-7.52,3.27-11.75.01-1.91.45-3.72,1.53-5.34.12-.17.26-.39.25-.57-.11-1.71-.24-3.43-.39-5.14-.02-.27-.16-.55-.32-.78-.22-.32-.54-.57-.77-.89-.32-.44-.52-1.2-.9-1.29-.68-.16-1.82-.2-2.13.21-.9,1.17-1.77.55-2.82.59-1.96.08-3.72,1.15-4.59,3.19-.57,1.33-1.45,1.78-2.53,1.48-.78-.21-1.19-.65-.8-1.43.44-.88,1.01-1.7,1.52-2.55-.09.28-.26.57-.27.85-.01.54.08,1.08.13,1.61.61-.21,1.58-.25,1.78-.66.94-1.95,2.65-2.56,4.52-2.96.88-.19,1.15-.6.83-1.49-2.03.02-3.94.31-5.62,1.48ZM523.99,81.76c.55-.19,1.37-.74,1.64-.54,1.38,1.02,2.72.45,3.73-.26,1.41-.99,2.76-.86,4.23-.58.45.09.9.19,1.34.29.58-2.4,1.6-3.1,3.79-2.18,1.62.68,3.19,1.66,4.51,2.81,1.58,1.38,1.48,3.25-.04,4.72-2.04,1.98-4.57,2.9-7.39,2.77-.78-.04-1.8-.48-2.24-1.08-1.89-2.56-4.54-2.77-7.68-2.9.36.56.56.84.73,1.13.18.32.52.69.48.99-.16,1.11.45,1.4,1.34,1.63,5.74,1.53,11.57,1.78,17.43,1.05,3.79-.47,7.47-1.4,10.82-3.33,1.69-.97,3.21-2.14,4.03-3.99.45-1.04.68-2.07-.32-3-.3-.28-.59-.74-.61-1.14-.09-1.65-1.25-2.46-2.46-3.15-1.4-.79-2.84-1.58-4.36-2.08-8.09-2.7-16.29-2.82-24.52-.67-3.2.83-6.24,2.05-8.56,4.54-2.02,2.17-2.12,4.77-.13,6.94,1.04,1.14,2.37,2.01,3.63,3.05.57-.66.95-1.11,1.39-1.62-.54-.26-.89-.43-1.25-.6,0-.09.01-.19.01-.28.37-.07.73-.15,1.19-.24v1.55c.75.28,1.16.17,1.11-.68-.03-.57.04-1.14-.02-1.7-.04-.31-.27-.59-.41-.88-.27.15-.54.3-.74.41-.18-.25-.4-.58-.67-.98ZM547.47,35.71c-.14-.06-.29-.11-.43-.17-.57-1.59-.03-3.08.54-4.59.12-.33.16-.84-.02-1.11-2.15-3.21-6.04-3.41-8.52-.45-.47.56-.92,1.18-1.24,1.84-2.06,4.31-2.08,8.66-.17,13.04.34.78.79,1.11,1.68,1.08,2.49-.06,4.99-.09,7.47.02,1.42.06,1.75-.72,2.06-2.17-.46.52-.64.83-.91,1-.39.25-.84.4-1.27.59-.15-.51-.58-1.21-.39-1.49.5-.75,1.17-1.65,1.95-1.89,1.28-.4,1.67-1.04,1.73-2.3.08-1.95-.02-3.84-.67-5.77-.67.89-1.24,1.63-1.81,2.37ZM541.88,110.92c2.8.01,5.6,0,8.4.03,1.2.01,1.77-.51,1.73-1.74-.04-1.18-.03-2.36.01-3.54.04-1.19-.55-1.67-1.67-1.67-5.69-.01-11.37-.03-17.06-.05-1.18-.01-1.79.51-1.76,1.74.03,1.09-.01,2.19,0,3.28.01,1.52.41,1.92,1.95,1.93,2.81.01,5.6.01,8.4.02ZM554.53,118.86c-.84-.32-1.45-.66-2.1-.78-7.3-1.26-14.61-1.28-21.92-.14-.81.13-1.59.49-2.51.78,2.6,2.71,23.22,2.85,26.53.14ZM521.74,25.95c1.36.2,1.73,1.57,2.11,2.87.26.92.43,1.87.56,2.81.32,2.48.79,4.91,2.16,7.07,1.27,2.01,3.05,3.31,5.37,3.89,1.19.3,2.02-.06,2.62-1.12.98-1.74.75-3.42-.14-5.1-.33-.62-.73-.74-1.43-.79-1.75-.13-3.51-.43-5.23-.82-1.03-.24-1.64-1.03-1.87-2.14-.44-2.18-.96-4.34-1.49-6.5-.19-.77-.5-1.5-.66-1.97-.75.67-1.41,1.26-2,1.8ZM541.45,124.22h0c-5.28-.01-10.57-.02-15.85-.04-.39,0-.83-.09-1.17.05-.34.14-.83.56-.79.8.05.37.44.75.78,1,.21.15.59.06.9.06,10.74.03,21.49.06,32.23.09.39,0,.84.04,1.15-.13.28-.16.58-.59.57-.89-.01-.28-.37-.66-.66-.8-.33-.15-.77-.09-1.16-.09-5.35-.02-10.68-.04-16-.05ZM552.24,67.41c-.69-.29-1.28-.66-1.91-.78-1.54-.3-3.09-.58-4.65-.68-4.58-.31-9.16-.38-13.68.62-.66.15-1.27.51-2.01.82,2.78,2.6,19.73,2.62,22.25.02ZM540.38,82.56c-1.42,1.64-2.41,1.84-3.81,1.16-.32-.16-.79-.14-1.15-.05-1.05.26-2.07.7-3.13.85-.4.06-1.2-.43-1.26-.77-.08-.41.33-1.08.72-1.37.71-.52,1.49-.42,2.24.37-.74.08-1.32.14-2.26.24,1.05,1.23,2,.71,2.82.39.94-.35,1.1-1.25.25-1.63-1.16-.51-2.51-1-3.71-.86-1.63.18-3.19.97-4.86,1.52v1.58c.26.05.43.09.59.1,2.98.13,5.82.61,8.05,2.87.21.21.66.31.97.26,1.28-.23,2.61-.36,3.78-.85,1.5-.63,2.73-1.75,2.54-3.59-.19-1.81-1.73-2.26-3.18-2.65-1.66-.46-2.32.22-2.01,2.03,1.04.12,2.09.24,3.41.4ZM551.13,40.21c2.56-1.49,4.84-3.38,6.03-6.28.79-1.92-.98-4.85-3.05-5.22-1.4-.25-4.11,1.91-3.98,3.3.26,2.7.65,5.4,1,8.2ZM541.39,57.93c-3.14,0-6.29-.02-9.43-.03-1.31,0-2.62-.04-3.93,0-.29,0-.58.33-.87.5.3.17.59.36.9.49.15.06.34,0,.52,0,8.42.02,16.85.05,25.27.07.35,0,.71.03,1.04-.05.16-.03.41-.3.38-.41-.05-.2-.23-.47-.41-.52-.33-.09-.69-.05-1.04-.05-4.14,0-8.28-.01-12.43-.02ZM550.42,55.97c-6.16-1.01-12.3-1.16-18.44.02,2.82,1.42,16,1.41,18.44-.02ZM541.41,97.53c-2.93-.01-5.86-.03-8.79,0-.34,0-.68.32-1.02.49.35.17.7.49,1.06.49,5.86.04,11.71.06,17.57.04.33,0,.67-.34,1-.53-.35-.15-.69-.44-1.04-.44-2.92-.05-5.85-.05-8.78-.05ZM541.54,51.12c1.7,0,3.4.06,5.1-.02.43-.02.84-.47,1.27-.72-.4-.28-.8-.8-1.22-.81-3.44-.07-6.88-.08-10.32-.03-.42,0-.84.49-1.25.75.4.27.79.76,1.21.78,1.72.1,3.47.05,5.21.05ZM540.27,92.41v.4c.51,0,1.03-.03,1.54.01.93.07,2.06-.06,2.27,1.12.03.17-1.53.8-2.39.92-.94.13-1.93-.1-3.03-.19,1.48,2.22,6.23,2.41,7.68.47.67-.9.35-1.68-.5-2.21-1.77-1.13-3.66-1.12-5.57-.52ZM543.57,93.95c-.01-.14-.03-.28-.04-.42-.5-.11-.99-.33-1.49-.33-5.06.04-10.12.1-15.17.22-.29.01-.57.56-.88.89,5.41.01,10.5.04,15.59.02.66,0,1.32-.25,1.99-.38ZM545.11,60.96c.24.7.38,1.1.52,1.5.69,0,1.38,0,2.07,0,.04-.45.08-.84.11-1.18-4.46,0-8.83-.02-13.28-.04.06.47.11.82.15,1.18h1.58c.18-.45.33-.83.49-1.21.11,0,.22,0,.34.02.14.4.29.79.42,1.17.91,0,1.81,0,2.62,0,.18-.45.33-.81.48-1.17.11,0,.21,0,.32.02.13.39.27.79.4,1.18,1.06,0,2.1,0,3.21,0,0-.25-.04-.47.01-.66.06-.19.22-.35.56-.84ZM548.46,26.27c0-.1-.01-.2-.01-.3-4.59-.01-9.18-.02-13.77-.04v.3c4.59.02,9.19.03,13.78.04ZM524.92,59.77v.12c10.97.03,21.94.06,32.91.09v-.12c-10.97-.03-21.94-.06-32.91-.09ZM538.82,24.27c1.79,1.09,5.32,1.05,6.58-.01-1.35-1.01-4.91-1.04-6.58.01ZM525.35,88.49c.67-.58,1.37-.89,1.45-1.33.18-.92-.64-.94-1.3-.93s-1.58-.18-1.48.87c.04.42.72.78,1.33,1.39ZM533.58,45.88s.03.08.04.12c5.34,0,10.68.03,16.01.04v-.12c-5.35-.01-10.7-.02-16.05-.04ZM546.15,100.59c.54.6.83,1.21,1.2,1.27.86.14.9-.59.87-1.23-.02-.6.08-1.4-.82-1.27-.4.06-.72.68-1.25,1.23ZM551.41,100.71c-.5-.6-.78-1.25-1.17-1.33-.91-.19-.85.59-.85,1.21s-.1,1.38.8,1.28c.36-.05.67-.62,1.22-1.16ZM545.65,100.58c-.52-.54-.82-1.16-1.21-1.21-.91-.13-.79.65-.81,1.26-.03.66.01,1.36.86,1.23.35-.06.63-.68,1.16-1.28ZM540.29,100.56c.52.58.81,1.2,1.21,1.28.77.16.85-.51.81-1.13-.04-.61.22-1.49-.83-1.37-.36.05-.65.65-1.19,1.22ZM534.43,100.57c-.63-.6-.96-1.18-1.36-1.24-.85-.14-.76.61-.75,1.17.01.59-.17,1.4.75,1.32.39-.03.73-.64,1.36-1.25ZM537.4,100.43c.57.65.94,1.06,1.3,1.47.26-.37.69-.71.74-1.1.07-.56.34-1.48-.69-1.46-.37,0-.72.55-1.35,1.09ZM537.54,100.54c-.64-.58-1.01-.92-1.38-1.25-.25.41-.63.8-.72,1.24-.12.57-.16,1.39.74,1.3.39-.04.73-.67,1.36-1.29ZM533.66,62.42c.03-.41.05-.78.08-1.21-1.18,0-2.29,0-3.48,0,.03.41.06.78.08,1.14.1.08.21.15.31.23.36-.44.73-.87,1.2-1.44.18.5.32.87.47,1.28.42,0,.84,0,1.34,0ZM516.31,67.27c-.8-.47-1.24-.93-1.67-.91-.37.01-.72.57-1.07.89.37.35.71.93,1.12.97.39.04.84-.47,1.62-.95ZM569.16,69.78c.5-.68,1.07-1.14,1-1.45-.09-.38-.7-.84-1.12-.86-.33-.02-.98.58-.96.87.01.4.54.77,1.08,1.44ZM562.58,77.59c.14-.07.28-.14.41-.21-.45-.87-.85-1.77-1.36-2.59-.14-.22-.64-.22-.97-.33.03.31-.04.7.12.92.56.77,1.2,1.48,1.8,2.21ZM542,48.66c.54-1.62.28-2.31-1.1-2.11-.27.04-.52.2-.78.31.57.55,1.14,1.09,1.88,1.8ZM542.73,130.74q.14-2.2-.96-2.05-.21,2.1.96,2.05ZM548.7,62.46h1.55v-1.17h-1.66c.05.44.07.77.11,1.17ZM562.45,78.45c.08-.11.15-.22.23-.33-.55-.47-1.07-.98-1.65-1.4-.15-.11-.47.01-.71.03.06.27.02.68.18.77.62.36,1.29.63,1.95.93ZM544.38,47.52c-.34-.45-.57-.76-.8-1.07-.19.34-.51.67-.52,1.02-.01.32.31.65.48.97.25-.26.49-.54.84-.92ZM528.26,53.1c-.31.42-.7.72-.66.95.04.26.49.68.7.65.3-.05.55-.44.82-.69-.24-.25-.47-.5-.86-.91Z" fill="#7c1414"/>
</svg>