<?xml version="1.0" encoding="utf-8"?>
<!-- Generator: Adobe Illustrator 27.8.1, SVG Export Plug-In . SVG Version: 6.00 Build 0)  -->
<svg version="1.1" id="Слой_1" xmlns="http://www.w3.org/2000/svg" xmlns:xlink="http://www.w3.org/1999/xlink" x="0px" y="0px"
	 viewBox="0 0 595.28 199.36" enable-background="new 0 0 595.28 199.36" xml:space="preserve">
<g>
	<path fill="#4B2023" d="M62.57,66.11c8.59,0,13.21,0.92,16.54,2.86c3.6,2.03,5.54,4.9,5.54,9.05c0,3.51-1.48,7.76-3.88,10.53
		c-2.49,2.86-7.21,5.54-11.73,6.65v0.55c4.43-0.09,9.7,1.2,13.12,3.51c3.6,2.49,5.27,5.73,5.27,10.25c0,6-2.86,12.29-9.52,16.44
		c-6.93,4.34-16.07,4.8-20.97,4.8h-26.7v-2.31l5.27-0.83c4.99-0.83,5.27-2.96,5.17-5.73l-1.11-47.39c-0.09-2.49-0.09-4.9-5.45-5.54
		l-4.34-0.55v-2.31H62.57z M48.35,125.6c2.68,0.74,6.1,1.48,9.79,1.48c6.47,0,10.99-1.94,13.67-4.53c3.6-3.51,4.25-8.22,4.25-11.45
		c0-2.68-0.28-6.47-2.86-9.15c-2.12-2.31-6.19-3.79-12.1-3.79c-0.92,0-2.86,0.09-6.74,0.55V94.2c5.36,0.92,11.82-0.19,16.63-5.27
		c2.77-2.96,3.7-5.73,3.7-8.78c0-9.98-10.72-10.35-14.41-10.35c-3.6,0-7.39,0.37-10.62,0.92L48.35,125.6z"/>
	<path fill="#4B2023" d="M110.42,69.81c-8.59,0-13.95,7.21-15.7,14.23l-3.51,0.92l1.02-18.84h56.9l1.02,18.84l-3.51-0.92
		c-1.75-7.02-7.11-14.23-15.7-14.23h-5.17l-1.2,52.1c-0.09,2.77,0.18,4.9,5.17,5.73l5.27,0.83v2.31h-28.64v-2.31l5.27-0.83
		c4.99-0.74,5.27-2.96,5.17-5.73l-1.29-52.1H110.42z"/>
	<path fill="#4B2023" d="M187,64.45c21.06,0,34.36,13.95,34.36,32.7c0,20.42-15.15,35.1-34.36,35.1c-19.03,0-34.27-14.69-34.27-35.1
		C152.73,78.4,165.94,64.45,187,64.45z M187,128.56c16.9,0,22.82-15.89,22.82-31.41c0-20.05-10.35-29.01-22.72-29.01
		c-9.61,0-22.72,5.82-22.72,29.01C164.37,128.1,184.23,128.56,187,128.56z"/>
	<path fill="#4B2023" d="M256.75,66.11c4.43,0,12.75,0.37,17.18,4.43c2.12,1.94,4.16,5.45,4.16,10.53c0,6-2.68,11.82-6.84,15.61
		c-4.62,4.16-11.64,6.37-17.37,6.37c-3.33,0-7.21-0.83-9.52-1.39l0.65-3.33c1.85,0.65,4.62,1.29,8.31,1.29
		c9.7,0,13.86-7.11,13.86-16.07c0-13.02-9.61-13.76-16.07-13.76c-3.05,0-5.36,0.28-7.85,0.65l-1.2,51.45
		c-0.09,2.68,0.18,5.08,5.17,5.73l6.28,0.83v2.31h-29.65v-2.31l5.27-0.83c4.99-0.83,5.27-2.96,5.17-5.73l-1.11-47.39
		c-0.09-2.49-0.09-4.9-5.45-5.54l-4.34-0.55v-2.31H256.75z"/>
	<path fill="#4B2023" d="M357.25,66.11v2.31l-4.34,0.55c-5.36,0.65-5.36,3.05-5.45,5.54l-1.11,47.39c-0.09,2.77,0.18,4.9,5.17,5.73
		l5.27,0.83v2.31h-28.64v-2.31l5.26-0.83c4.99-0.74,5.27-2.96,5.17-5.73l-0.55-22.82c-2.96-0.37-7.02-0.83-17.83-0.83
		c-10.44,0-13.49,0.18-17.92,1.02l-0.55,22.63c-0.09,2.77,0.18,4.99,5.17,5.73l5.27,0.83v2.31h-28.64v-2.31l5.27-0.83
		c4.99-0.83,5.27-2.96,5.17-5.73l-1.11-47.39c-0.09-2.49-0.09-4.9-5.45-5.54l-4.34-0.55v-2.31h29.56v2.31l-4.34,0.55
		c-5.36,0.65-5.36,3.05-5.45,5.54l-0.46,19.49c2.49,0.37,7.85,0.92,17.83,0.92c10.07,0,15.24-0.55,17.74-0.92l-0.46-19.49
		c-0.09-2.49-0.09-4.9-5.45-5.54l-4.34-0.55v-2.31H357.25z"/>
	<path fill="#4B2023" d="M391.8,66.11v2.31l-4.34,0.55c-5.36,0.65-5.36,3.05-5.45,5.54l-0.92,42.22h0.55
		c18.11-20.88,31.04-38.15,39.81-50.62h15.24v2.31l-4.34,0.55c-5.36,0.65-5.36,3.05-5.45,5.54l-1.11,47.39
		c-0.09,2.77,0.19,4.9,5.17,5.73l5.26,0.83v2.31H407.6v-2.31l5.27-0.83c4.99-0.74,5.27-2.96,5.17-5.73l-1.02-41.66
		c-16.44,18.75-29.93,36.03-40.65,50.53H362.7v-2.31l5.27-0.83c4.99-0.83,5.27-2.96,5.17-5.73l-1.11-47.39
		c-0.09-2.49-0.09-4.9-5.45-5.54l-4.34-0.55v-2.31H391.8z"/>
	<path fill="#4B2023" d="M471.24,66.11v2.31l-4.34,0.55c-5.36,0.65-5.36,3.05-5.45,5.54l-1.11,47.39c-0.09,2.77,0.18,4.9,5.17,5.73
		l5.27,0.83v2.31h-28.64v-2.31l5.27-0.83c4.99-0.83,5.27-2.96,5.17-5.73l-1.11-47.39c-0.09-2.49-0.09-4.9-5.45-5.54l-4.34-0.55
		v-2.31H471.24z M482.24,66.11h22.91v2.31c-3.33,0.65-8.5,2.31-17.74,10.25c-10.35,8.96-13.12,12.38-13.86,13.49l-0.09,1.11
		c3.42,5.08,14.13,20.05,19.12,26.33c3.88,4.9,6.19,7.48,8.22,7.48c0.46,0,1.57-0.28,4.06-2.49l1.57,2.4
		c-4.8,3.33-7.11,5.27-9.33,5.27c-3.7,0-9.33-6.47-17.27-15.7c-8.78-10.25-7.39-9.33-12.29-15.06c-2.22-2.59-3.14-3.97-3.14-4.8
		c0-0.65,0.74-1.48,2.49-3.42l16.91-19.12c1.75-1.94,2.86-3.33,2.86-4.06c0-1.02-2.59-1.39-3.23-1.48l-1.2-0.19V66.11z"/>
</g>
<g>
	<path fill="#4B2023" d="M38.81,141.09c-1.67,0-2.72,1.4-3.06,2.77l-0.68,0.18l0.2-3.67h11.09l0.2,3.67l-0.68-0.18
		c-0.34-1.37-1.39-2.77-3.06-2.77H41.8l-0.23,10.15c-0.02,0.54,0.04,0.95,1.01,1.12l1.03,0.16v0.45h-5.58v-0.45l1.03-0.16
		c0.97-0.14,1.03-0.58,1.01-1.12l-0.25-10.15H38.81z"/>
	<path fill="#4B2023" d="M49.72,145.68c0.85-0.72,2.05-0.99,3.1-0.99c1.01,0,2.21,0.27,3.06,0.99c1.22,1.03,1.31,2.5,1.31,3.24
		c0,1.76-0.74,2.79-1.44,3.37c-0.49,0.4-1.4,0.9-2.95,0.9s-2.47-0.5-2.95-0.9c-0.7-0.58-1.44-1.6-1.44-3.37
		C48.4,148.18,48.49,146.71,49.72,145.68z M50.74,151.55c0.36,0.52,1.01,1.08,2.05,1.08s1.69-0.56,2.05-1.08
		c0.5-0.76,0.58-1.75,0.58-2.61c0-0.85-0.07-1.87-0.58-2.63c-0.38-0.56-0.99-1.06-2.05-1.06s-1.67,0.5-2.05,1.06
		c-0.5,0.76-0.58,1.78-0.58,2.63C50.17,149.8,50.24,150.79,50.74,151.55z"/>
	<path fill="#4B2023" d="M65.95,151.26c0.13,0.63,0.25,1.21,1.01,1.44v0.27h-3.64v-0.27l0.61-0.16c0.52-0.14,0.74-0.22,0.74-0.59
		c0-0.2-0.05-0.4-0.16-0.76l-1.58-5.67h-0.38c-0.38,1.91-1.21,4.61-1.93,6.27c-0.54,1.22-1.03,1.4-1.26,1.4
		c-0.16,0-0.58-0.13-0.58-1.15c0-0.72,0.09-1.37,0.85-1.37c0.22,0,0.4,0.07,0.5,0.13c0.36-0.76,0.56-1.3,0.77-1.98
		c0.47-1.44,0.59-2.2,0.59-2.68c0-0.34-0.05-0.61-0.74-0.61c-0.38,0-0.61,0.04-0.86,0.09l0.09-0.61l4.59-0.14L65.95,151.26z"/>
	<path fill="#4B2023" d="M75.28,152.07c-1.15,0.79-1.89,1.12-2.93,1.12c-1.31,0-2.34-0.45-2.99-1.1c-0.32-0.32-1.13-1.24-1.13-2.93
		c0-1.62,0.63-2.85,1.44-3.53c1.04-0.88,2.34-0.94,2.95-0.94c1.94,0,2.77,0.77,2.77,1.49c0,0.38-0.25,0.72-0.77,0.72
		c-0.77,0-0.97-0.58-1.13-0.99c-0.11-0.29-0.27-0.67-0.92-0.67c-1.1,0-2.56,0.85-2.56,3.56c0,0.56,0.05,1.49,0.56,2.29
		c0.49,0.77,1.37,1.33,2.36,1.33c0.81,0,1.62-0.5,2.09-0.85L75.28,152.07z"/>
	<path fill="#4B2023" d="M77.63,147.41l-0.54,0.14v-2.7h7.8l0.11,2.79l-0.65-0.23c-0.2-1.22-1.28-2.07-2.56-2l-0.14,6.14
		c-0.02,0.83,0.22,0.92,0.7,1.03l0.59,0.13v0.27h-3.92v-0.27l0.61-0.13c0.74-0.16,0.72-0.54,0.7-1.03l-0.14-6.14
		C78.91,145.34,77.83,146.19,77.63,147.41z"/>
	<path fill="#4B2023" d="M86.45,144.85h3.96v0.29l-0.32,0.09c-0.41,0.11-0.83,0.25-0.83,1.15l-0.05,5.85
		c0.25,0.11,0.58,0.18,0.95,0.18c0.67,0,1.26-0.25,1.69-0.68c0.52-0.52,0.59-1.08,0.59-1.62c0-1.42-0.95-1.55-1.3-1.55
		c-0.27,0-0.97,0.14-1.17,0.22l-0.09,0.04l-0.11-0.45c0.49-0.22,1.04-0.4,1.73-0.4c0.74,0,1.57,0.14,2.03,0.58
		c0.27,0.23,0.61,0.68,0.61,1.44c0,1.01-0.38,1.69-0.92,2.14c-0.94,0.77-2.25,0.85-2.92,0.85h-3.87v-0.27l0.61-0.13
		c0.67-0.14,0.7-0.47,0.68-1.03l-0.13-5.17c-0.02-0.86-0.32-0.99-0.86-1.15l-0.31-0.09V144.85z M94.3,144.85h3.93v0.29l-0.31,0.09
		c-0.58,0.16-0.79,0.29-0.83,1.15l-0.16,5.17c-0.02,0.83,0.23,0.92,0.7,1.03l0.59,0.13v0.27H94.3v-0.27l0.61-0.13
		c0.68-0.14,0.72-0.45,0.7-1.03l-0.16-5.17c-0.04-0.92-0.38-1.03-0.83-1.15l-0.32-0.09V144.85z"/>
	<path fill="#4B2023" d="M103.01,145.23c-0.45,0.13-0.79,0.23-0.83,1.15l-0.18,4.9h0.11l4.72-6.43h2.4v0.29l-0.31,0.09
		c-0.52,0.16-0.83,0.29-0.85,1.15l-0.14,5.17c-0.02,0.68,0.04,0.9,0.68,1.03l0.61,0.13v0.27h-3.93v-0.27l0.61-0.13
		c0.59-0.13,0.7-0.38,0.68-1.03l-0.18-5.02h-0.11l-4.72,6.45h-2.18v-0.27l0.61-0.13c0.67-0.14,0.7-0.49,0.68-1.03l-0.16-5.17
		c-0.04-0.86-0.25-0.99-0.83-1.15l-0.31-0.09v-0.29h3.93v0.29L103.01,145.23z M105.55,143.21c-0.29,0.43-0.52,0.58-0.77,0.58
		c-0.45,0-0.95-0.27-1.35-0.5l-0.72-0.41l0.32-0.43c0.32,0.2,0.61,0.31,0.94,0.31c0.59,0,1.06-0.47,1.71-1.13
		c0.43-0.45,0.76-0.81,1.17-1.3l0.45,0.23L105.55,143.21z"/>
	<path fill="#4B2023" d="M115.52,144.69c0.34,0.11,0.67,0.16,0.95,0.16c0.25,0,0.45-0.04,1.28-0.11c0.31-0.04,0.4-0.05,1.04-0.05
		c0.52,0,1.3,0,1.94,0.38c0.67,0.4,0.85,0.99,0.85,1.4c0,0.79-0.63,1.66-1.66,1.96v0.2c0.38,0.04,0.94,0.22,1.28,0.5
		c0.29,0.25,0.52,0.67,0.52,1.21c0,0.83-0.49,1.64-1.19,2.14c-0.59,0.41-1.42,0.7-2.45,0.7c-1.8,0-3.22-0.77-3.22-1.76
		c0-0.45,0.29-0.77,0.81-0.77c0.61,0,0.97,0.5,1.06,1.06c0.07,0.34,0.22,0.99,1.13,0.99c1.19,0,2.11-0.88,2.11-2.18
		c0-1.53-1.24-1.6-1.75-1.6c-0.31,0-0.58,0.04-0.86,0.13c-0.09-0.11-0.13-0.22-0.13-0.4c0-0.2,0.02-0.32,0.13-0.43
		c0.38,0.09,0.63,0.13,0.9,0.13c0.88,0,1.73-0.49,1.73-1.71c0-0.9-0.65-1.39-1.46-1.39c-1.49,0-2.29,0.97-2.65,1.84l-0.49-0.09
		L115.52,144.69z"/>
	<path fill="#4B2023" d="M131.65,152.45c-0.36,0.22-0.13,0.05-0.58,0.32c-0.31,0.18-0.59,0.41-0.9,0.41c-0.18,0-0.85-0.11-1.19-1.46
		c-0.85,0.59-2.39,1.46-3.29,1.46c-1.13,0-2.05-1.03-2.05-2.48c0-0.47,0.13-1.26,1.37-1.66l3.82-1.22l0.04-1.46
		c0.04-1.17-1.06-1.17-1.37-1.17c-1.26,0-1.55,0.5-1.66,0.95c-0.07,0.31-0.22,0.97-0.99,0.97c-0.4,0-0.81-0.23-0.81-0.77
		c0-0.79,0.68-1.17,1.26-1.37c0.49-0.16,1.12-0.29,2.05-0.29c0.47,0,1.62,0.04,2.34,0.36c0.85,0.38,0.81,0.92,0.76,1.64
		c-0.05,0.86-0.23,2.79-0.16,4.38c0.04,0.72,0.07,1.17,0.5,1.17c0.23,0,0.38-0.09,0.65-0.25L131.65,152.45z M128.83,148.4
		c-0.58,0.2-0.86,0.29-1.26,0.41c-1.93,0.61-2.47,0.99-2.47,1.91c0,0.52,0.13,1.58,1.15,1.58c0.23,0,1.15-0.02,2.57-1.06V148.4z"/>
	<path fill="#4B2023" d="M138.06,144.85c0.65,0,1.44,0,1.98,0.47c0.31,0.27,0.49,0.7,0.49,1.24c0,0.97-0.85,1.64-1.82,1.91v0.18
		c1.48-0.02,2.09,1.01,2.09,1.87c0,0.7-0.34,1.26-1.01,1.71c-1.06,0.74-2.09,0.74-3.11,0.74h-3.93v-0.27l0.61-0.13
		c0.47-0.09,0.72-0.2,0.7-1.03l-0.16-5.17c-0.04-0.92-0.38-1.03-0.83-1.15l-0.32-0.09v-0.29H138.06z M135.4,152.27
		c0.36,0.07,0.86,0.14,1.53,0.14c0.52,0,1.19-0.07,1.67-0.56c0.4-0.4,0.47-0.9,0.47-1.26c0-1.13-0.76-1.69-1.78-1.69
		c-0.56,0-0.95,0.09-1.24,0.2v-0.72c1.44,0.22,2.88-0.38,2.88-1.87c0-0.99-0.74-1.1-1.37-1.1c-0.56,0-1.37,0.07-1.94,0.14
		L135.4,152.27z"/>
	<path fill="#4B2023" d="M145.89,145.23c-0.45,0.13-0.79,0.23-0.83,1.15l-0.18,4.9h0.11l4.72-6.43h2.4v0.29l-0.31,0.09
		c-0.52,0.16-0.83,0.29-0.85,1.15l-0.14,5.17c-0.02,0.68,0.04,0.9,0.68,1.03l0.61,0.13v0.27h-3.93v-0.27l0.61-0.13
		c0.59-0.13,0.7-0.38,0.68-1.03l-0.18-5.02h-0.11l-4.72,6.45h-2.18v-0.27l0.61-0.13c0.67-0.14,0.7-0.49,0.68-1.03l-0.16-5.17
		c-0.04-0.86-0.25-0.99-0.83-1.15l-0.31-0.09v-0.29h3.93v0.29L145.89,145.23z"/>
	<path fill="#4B2023" d="M160.56,152.07c-1.15,0.79-1.89,1.12-2.93,1.12c-1.31,0-2.34-0.45-2.99-1.1c-0.32-0.32-1.13-1.24-1.13-2.93
		c0-1.62,0.63-2.85,1.44-3.53c1.04-0.88,2.34-0.94,2.95-0.94c1.94,0,2.77,0.77,2.77,1.49c0,0.38-0.25,0.72-0.77,0.72
		c-0.77,0-0.97-0.58-1.13-0.99c-0.11-0.29-0.27-0.67-0.92-0.67c-1.1,0-2.56,0.85-2.56,3.56c0,0.56,0.05,1.49,0.56,2.29
		c0.49,0.77,1.37,1.33,2.36,1.33c0.81,0,1.62-0.5,2.09-0.85L160.56,152.07z"/>
	<path fill="#4B2023" d="M165.71,145.23c-0.45,0.13-0.79,0.23-0.83,1.15l-0.18,4.9h0.11l4.72-6.43h2.4v0.29l-0.31,0.09
		c-0.52,0.16-0.83,0.29-0.85,1.15l-0.14,5.17c-0.02,0.68,0.04,0.9,0.68,1.03l0.61,0.13v0.27H168v-0.27l0.61-0.13
		c0.59-0.13,0.7-0.38,0.68-1.03l-0.18-5.02H169l-4.72,6.45h-2.18v-0.27l0.61-0.13c0.67-0.14,0.7-0.49,0.68-1.03l-0.16-5.17
		c-0.04-0.86-0.25-0.99-0.83-1.15l-0.31-0.09v-0.29h3.93v0.29L165.71,145.23z"/>
	<path fill="#4B2023" d="M178.76,149.19h0.11l1.76-4.34h3.6v0.29l-0.31,0.09c-0.52,0.16-0.83,0.29-0.85,1.15l-0.14,5.17
		c-0.02,0.56,0.02,0.88,0.68,1.03l0.61,0.13v0.27h-3.93v-0.27l0.61-0.13c0.63-0.13,0.72-0.34,0.68-1.03l-0.34-6.03h-0.11l-2.23,5.4
		l-0.65,0.29l-2.67-5.69h-0.09l-0.4,5.78c-0.07,1.1,0.11,0.94,0.74,1.15l0.72,0.25v0.27h-3.48v-0.27c0.86-0.16,1.12-0.59,1.17-1.4
		l0.34-4.54c0.05-0.59,0.31-0.97-0.88-1.37l-0.43-0.14v-0.29h3.82L178.76,149.19z"/>
	<path fill="#4B2023" d="M185.42,144.85h3.96v0.29l-0.32,0.09c-0.41,0.11-0.83,0.25-0.83,1.15l-0.05,5.85
		c0.25,0.11,0.58,0.18,0.95,0.18c0.67,0,1.26-0.25,1.69-0.68c0.52-0.52,0.59-1.08,0.59-1.62c0-1.42-0.95-1.55-1.3-1.55
		c-0.27,0-0.97,0.14-1.17,0.22l-0.09,0.04l-0.11-0.45c0.49-0.22,1.04-0.4,1.73-0.4c0.74,0,1.57,0.14,2.03,0.58
		c0.27,0.23,0.61,0.68,0.61,1.44c0,1.01-0.38,1.69-0.92,2.14c-0.94,0.77-2.25,0.85-2.92,0.85h-3.87v-0.27l0.61-0.13
		c0.67-0.14,0.7-0.47,0.68-1.03l-0.13-5.17c-0.02-0.86-0.32-0.99-0.86-1.15l-0.31-0.09V144.85z M193.27,144.85h3.93v0.29l-0.31,0.09
		c-0.58,0.16-0.79,0.29-0.83,1.15l-0.16,5.17c-0.02,0.83,0.23,0.92,0.7,1.03l0.59,0.13v0.27h-3.93v-0.27l0.61-0.13
		c0.68-0.14,0.72-0.45,0.7-1.03l-0.16-5.17c-0.04-0.92-0.38-1.03-0.83-1.15l-0.32-0.09V144.85z"/>
	<path fill="#4B2023" d="M201.98,145.23c-0.45,0.13-0.79,0.23-0.83,1.15l-0.18,4.9h0.11l4.72-6.43h2.4v0.29l-0.31,0.09
		c-0.52,0.16-0.83,0.29-0.85,1.15l-0.14,5.17c-0.02,0.68,0.04,0.9,0.68,1.03l0.61,0.13v0.27h-3.93v-0.27l0.61-0.13
		c0.59-0.13,0.7-0.38,0.68-1.03l-0.18-5.02h-0.11l-4.72,6.45h-2.18v-0.27l0.61-0.13c0.67-0.14,0.7-0.49,0.68-1.03l-0.16-5.17
		c-0.04-0.86-0.25-0.99-0.83-1.15l-0.31-0.09v-0.29h3.93v0.29L201.98,145.23z M204.52,143.21c-0.29,0.43-0.52,0.58-0.77,0.58
		c-0.45,0-0.95-0.27-1.35-0.5l-0.72-0.41l0.32-0.43c0.32,0.2,0.61,0.31,0.94,0.31c0.59,0,1.06-0.47,1.71-1.13
		c0.43-0.45,0.76-0.81,1.17-1.3l0.45,0.23L204.52,143.21z"/>
	<path fill="#4B2023" d="M213.8,143.84l-1.13,2.2c-0.05,0.11-0.09,0.18-0.25,0.18c-0.09,0-0.14-0.05-0.22-0.11l-0.65-0.43
		c-0.07-0.04-0.11-0.11-0.11-0.16c0-0.14,0.07-0.23,0.14-0.31l1.67-1.75l-0.02-0.09l-0.59-0.11l-1.87-0.31
		c-0.11-0.02-0.25-0.04-0.16-0.38l0.22-0.74c0.02-0.07,0.09-0.23,0.25-0.23c0.09,0,0.23,0.05,0.29,0.09l2.11,1.06l0.07-0.05
		l-0.38-2.32c-0.04-0.18-0.05-0.45,0.32-0.45h0.72c0.38,0,0.36,0.27,0.32,0.45l-0.38,2.32l0.07,0.05l2.11-1.06
		c0.05-0.04,0.2-0.09,0.29-0.09c0.16,0,0.23,0.16,0.25,0.23l0.22,0.74c0.09,0.34-0.05,0.36-0.16,0.38l-1.87,0.31l-0.59,0.11
		l-0.02,0.09l1.67,1.75c0.07,0.07,0.14,0.16,0.14,0.31c0,0.05-0.04,0.13-0.11,0.16l-0.65,0.43c-0.07,0.05-0.13,0.11-0.22,0.11
		c-0.16,0-0.2-0.07-0.25-0.18l-1.13-2.2H213.8z"/>
	<path fill="#4B2023" d="M231,151.26c0.13,0.63,0.25,1.21,1.01,1.44v0.27h-3.64v-0.27l0.61-0.16c0.52-0.14,0.74-0.22,0.74-0.59
		c0-0.2-0.05-0.4-0.16-0.76l-1.58-5.67h-0.38c-0.38,1.91-1.21,4.61-1.93,6.27c-0.54,1.22-1.03,1.4-1.26,1.4
		c-0.16,0-0.58-0.13-0.58-1.15c0-0.72,0.09-1.37,0.85-1.37c0.22,0,0.4,0.07,0.5,0.13c0.36-0.76,0.56-1.3,0.77-1.98
		c0.47-1.44,0.59-2.2,0.59-2.68c0-0.34-0.05-0.61-0.74-0.61c-0.38,0-0.61,0.04-0.86,0.09l0.09-0.61l4.59-0.14L231,151.26z"/>
	<path fill="#4B2023" d="M236.65,145.23c-0.45,0.13-0.79,0.23-0.83,1.15l-0.18,4.9h0.11l4.72-6.43h2.4v0.29l-0.31,0.09
		c-0.52,0.16-0.83,0.29-0.85,1.15l-0.14,5.17c-0.02,0.68,0.04,0.9,0.68,1.03l0.61,0.13v0.27h-3.93v-0.27l0.61-0.13
		c0.59-0.13,0.7-0.38,0.68-1.03l-0.18-5.02h-0.11l-4.72,6.45h-2.18v-0.27l0.61-0.13c0.67-0.14,0.7-0.49,0.68-1.03l-0.16-5.17
		c-0.04-0.86-0.25-0.99-0.83-1.15l-0.31-0.09v-0.29h3.93v0.29L236.65,145.23z"/>
	<path fill="#4B2023" d="M244.85,147.41l-0.54,0.14v-2.7h7.8l0.11,2.79l-0.65-0.23c-0.2-1.22-1.28-2.07-2.56-2l-0.14,6.14
		c-0.02,0.83,0.22,0.92,0.7,1.03l0.59,0.13v0.27h-3.92v-0.27l0.61-0.13c0.74-0.16,0.72-0.54,0.7-1.03l-0.14-6.14
		C246.13,145.34,245.05,146.19,244.85,147.41z"/>
	<path fill="#4B2023" d="M260.82,152.24c-0.97,0.77-2,0.95-2.75,0.95c-1.35,0-2.43-0.49-3.1-1.19c-0.56-0.59-1.08-1.6-1.08-3.04
		c0-1.24,0.43-2.14,0.92-2.77c0.72-0.94,1.73-1.49,3.15-1.49c0.77,0,1.46,0.18,2.05,0.63c0.67,0.5,1.21,1.35,1.21,2.74
		c0,0.54-0.27,0.49-0.56,0.49h-4.99c-0.02,0.92,0.11,1.51,0.25,1.93c0.61,1.76,1.82,1.96,2.61,1.96c0.59,0,1.24-0.16,1.98-0.74
		L260.82,152.24z M259.36,147.93c0.41,0,0.45-0.22,0.45-0.52c0-0.81-0.36-2.16-1.84-2.16c-1.42,0-2.27,1.26-2.3,2.68H259.36z"/>
	<path fill="#4B2023" d="M265.73,145.29h0.11c0.52-0.31,1.24-0.59,2.3-0.59c0.81,0,2.02,0.13,2.88,1.1
		c0.76,0.85,0.88,1.87,0.88,2.68c0,1.82-0.81,2.9-1.42,3.49c-0.86,0.81-2.05,1.22-3.19,1.22c-0.68,0-1.42-0.14-1.73-0.22l-0.07,2.36
		c-0.02,0.41-0.07,0.88,0.7,1.01l0.86,0.14v0.27h-4.19v-0.27l0.63-0.14c0.52-0.13,0.7-0.16,0.68-1.01l-0.18-7.87
		c-0.02-0.7,0.02-1.12-0.14-1.37c-0.23-0.36-0.68-0.36-1.19-0.31v-0.49c1.73-0.05,2.72-0.45,3.08-0.61L265.73,145.29z
		 M265.61,152.29c0.49,0.25,0.92,0.34,1.4,0.34c1.42,0,2.16-0.79,2.52-1.31c0.56-0.81,0.61-1.71,0.61-2.32
		c0-0.95-0.07-1.82-0.45-2.48c-0.49-0.86-1.21-1.12-1.98-1.12c-0.47,0-1.31,0.11-1.98,0.86L265.61,152.29z"/>
	<path fill="#4B2023" d="M281.72,152.45c-0.36,0.22-0.13,0.05-0.58,0.32c-0.31,0.18-0.59,0.41-0.9,0.41c-0.18,0-0.85-0.11-1.19-1.46
		c-0.85,0.59-2.39,1.46-3.29,1.46c-1.13,0-2.05-1.03-2.05-2.48c0-0.47,0.13-1.26,1.37-1.66l3.82-1.22l0.04-1.46
		c0.04-1.17-1.06-1.17-1.37-1.17c-1.26,0-1.55,0.5-1.66,0.95c-0.07,0.31-0.22,0.97-0.99,0.97c-0.4,0-0.81-0.23-0.81-0.77
		c0-0.79,0.68-1.17,1.26-1.37c0.49-0.16,1.12-0.29,2.05-0.29c0.47,0,1.62,0.04,2.34,0.36c0.85,0.38,0.81,0.92,0.76,1.64
		c-0.05,0.86-0.23,2.79-0.16,4.38c0.04,0.72,0.07,1.17,0.5,1.17c0.23,0,0.38-0.09,0.65-0.25L281.72,152.45z M278.89,148.4
		c-0.58,0.2-0.86,0.29-1.26,0.41c-1.93,0.61-2.47,0.99-2.47,1.91c0,0.52,0.13,1.58,1.15,1.58c0.23,0,1.15-0.02,2.57-1.06V148.4z"/>
	<path fill="#4B2023" d="M283.63,147.41l-0.54,0.14v-2.7h7.8l0.11,2.79l-0.65-0.23c-0.2-1.22-1.28-2.07-2.56-2l-0.14,6.14
		c-0.02,0.83,0.22,0.92,0.7,1.03l0.59,0.13v0.27h-3.92v-0.27l0.61-0.13c0.74-0.16,0.72-0.54,0.7-1.03l-0.14-6.14
		C284.9,145.34,283.82,146.19,283.63,147.41z"/>
	<path fill="#4B2023" d="M299.4,146.37c0.04-0.11,0.11-0.47,0.11-0.58c0-0.32-0.52-0.63-1.06-0.65v-0.29h3.15v0.29
		c-0.65,0.09-0.94,0.49-1.46,1.73l-2.58,6.16c-1.04,2.5-2.21,3.91-3.4,3.91c-0.86,0-0.88-0.72-0.88-0.83c0-0.65,0.58-0.95,1.12-0.95
		c0.54,0,0.18,0.16,0.88,0.16c0.63,0,1.06-0.83,1.42-1.67l-2.74-6.64c-0.36-0.86-0.63-1.66-1.55-1.85v-0.29h3.73v0.29
		c-0.81,0.05-0.99,0.45-0.99,0.7c0,0.2,0.25,0.97,0.34,1.21l1.76,4.92h0.11L299.4,146.37z"/>
	<path fill="#4B2023" d="M305.51,145.29h0.11c0.52-0.31,1.24-0.59,2.3-0.59c0.81,0,2.02,0.13,2.88,1.1
		c0.76,0.85,0.88,1.87,0.88,2.68c0,1.82-0.81,2.9-1.42,3.49c-0.86,0.81-2.05,1.22-3.19,1.22c-0.68,0-1.42-0.14-1.73-0.22l-0.07,2.36
		c-0.02,0.41-0.07,0.88,0.7,1.01l0.86,0.14v0.27h-4.2v-0.27l0.63-0.14c0.52-0.13,0.7-0.16,0.68-1.01l-0.18-7.87
		c-0.02-0.7,0.02-1.12-0.14-1.37c-0.23-0.36-0.68-0.36-1.19-0.31v-0.49c1.73-0.05,2.72-0.45,3.08-0.61L305.51,145.29z
		 M305.39,152.29c0.49,0.25,0.92,0.34,1.4,0.34c1.42,0,2.16-0.79,2.52-1.31c0.56-0.81,0.61-1.71,0.61-2.32
		c0-0.95-0.07-1.82-0.45-2.48c-0.49-0.86-1.21-1.12-1.98-1.12c-0.47,0-1.31,0.11-1.98,0.86L305.39,152.29z"/>
	<path fill="#4B2023" d="M316.71,145.23c-0.47,0.14-0.83,0.23-0.85,1.15l-0.05,1.87c1.42,0.09,2.86,0.09,4.29,0l-0.05-1.87
		c-0.02-0.92-0.38-1.03-0.83-1.15l-0.32-0.09v-0.29h3.93v0.29l-0.31,0.09c-0.58,0.16-0.79,0.29-0.83,1.15l-0.16,5.17
		c-0.02,0.54,0.02,0.88,0.68,1.03l0.61,0.13v0.27h-3.93v-0.27l0.61-0.13c0.67-0.14,0.72-0.45,0.7-1.03l-0.09-2.61
		c-1.44-0.09-2.88-0.09-4.32,0l-0.07,2.61c-0.02,0.68,0.04,0.9,0.68,1.03l0.61,0.13v0.27h-3.93v-0.27l0.61-0.13
		c0.67-0.14,0.7-0.47,0.68-1.03l-0.14-5.17c-0.02-0.86-0.32-0.99-0.85-1.15l-0.31-0.09v-0.29h3.93v0.29L316.71,145.23z"/>
	<path fill="#4B2023" d="M325.55,145.68c0.85-0.72,2.05-0.99,3.1-0.99c1.01,0,2.21,0.27,3.06,0.99c1.22,1.03,1.31,2.5,1.31,3.24
		c0,1.76-0.74,2.79-1.44,3.37c-0.49,0.4-1.4,0.9-2.95,0.9c-1.55,0-2.47-0.5-2.95-0.9c-0.7-0.58-1.44-1.6-1.44-3.37
		C324.23,148.18,324.32,146.71,325.55,145.68z M326.57,151.55c0.36,0.52,1.01,1.08,2.05,1.08c1.04,0,1.69-0.56,2.05-1.08
		c0.5-0.76,0.58-1.75,0.58-2.61c0-0.85-0.07-1.87-0.58-2.63c-0.38-0.56-0.99-1.06-2.05-1.06c-1.06,0-1.67,0.5-2.05,1.06
		c-0.5,0.76-0.58,1.78-0.58,2.63C326,149.8,326.07,150.79,326.57,151.55z"/>
	<path fill="#4B2023" d="M335.19,148.06c0.54,0.04,1.17,0.07,1.89,0.07c0.61,0,2.16-0.04,2.72-0.07l-0.25,0.77
		c-0.25,0-1.39-0.04-2.02-0.04c-0.88,0-1.73,0.04-2.63,0.14L335.19,148.06z"/>
	<path fill="#4B2023" d="M347.8,146.15c0.13-0.16,0.23-0.31,0.23-0.45c0-0.11-0.11-0.29-0.36-0.4c-0.11-0.05-0.22-0.07-0.52-0.16
		v-0.29h3.24v0.29c-0.56,0.2-1.01,0.5-1.73,1.31l-1.94,2.21l2.23,2.84c0.56,0.72,0.85,1.03,1.44,1.19v0.27H347v-0.27l0.45-0.05
		c0.11-0.02,0.47-0.04,0.47-0.27c0-0.11-0.23-0.41-0.31-0.49l-1.84-2.2h-0.09l-1.39,2.03c-0.09,0.14-0.27,0.47-0.27,0.59
		c0,0.31,0.31,0.32,0.49,0.34l0.41,0.04v0.27h-3.46v-0.27c0.68-0.16,1.66-1.04,2.12-1.6l1.66-1.98l-2.2-2.77
		c-0.58-0.74-1.04-1.03-1.48-1.21v-0.29h3.82v0.29c-0.67,0.02-0.9,0.36-0.9,0.54c0,0.16,0.31,0.61,0.41,0.76l1.3,1.75h0.14
		L347.8,146.15z"/>
	<path fill="#4B2023" d="M358.7,146.37c0.04-0.11,0.11-0.47,0.11-0.58c0-0.32-0.52-0.63-1.06-0.65v-0.29h3.15v0.29
		c-0.65,0.09-0.94,0.49-1.46,1.73l-2.57,6.16c-1.04,2.5-2.21,3.91-3.4,3.91c-0.86,0-0.88-0.72-0.88-0.83c0-0.65,0.58-0.95,1.12-0.95
		s0.18,0.16,0.88,0.16c0.63,0,1.06-0.83,1.42-1.67l-2.74-6.64c-0.36-0.86-0.63-1.66-1.55-1.85v-0.29h3.73v0.29
		c-0.81,0.05-0.99,0.45-0.99,0.7c0,0.2,0.25,0.97,0.34,1.21l1.76,4.92h0.11L358.7,146.37z"/>
	<path fill="#4B2023" d="M369.83,152.34h0.88v3.06l-0.63,0.27c-0.13-0.56-0.13-0.67-0.18-1.01c-0.29-1.51-0.94-1.69-1.39-1.69h-4.18
		c-0.72,0-1.49,0.23-1.85,2.48l-0.63,0.22v-3.33h0.36c0.58,0,0.88-0.59,1.12-1.1c0.65-1.39,1.31-3.33,1.58-4.1
		c0.2-0.59,0.27-0.81,0.27-1.01c0-0.56-0.49-0.61-1.1-0.58l-0.36,0.02l0.09-0.61l4.09-0.11L369.83,152.34z M366.35,145.59h-0.32
		c-0.07,0.29-0.13,0.52-0.29,1.1c-0.31,1.08-0.45,1.51-0.88,2.74c-0.4,1.1-0.63,1.75-0.83,2.25c-0.18,0.43-0.2,0.5-0.2,0.54
		c0,0.05,0.04,0.2,0.25,0.2h4.43L366.35,145.59z"/>
	<path fill="#4B2023" d="M373.48,145.68c0.85-0.72,2.05-0.99,3.1-0.99c1.01,0,2.21,0.27,3.06,0.99c1.22,1.03,1.31,2.5,1.31,3.24
		c0,1.76-0.74,2.79-1.44,3.37c-0.49,0.4-1.4,0.9-2.95,0.9c-1.55,0-2.47-0.5-2.95-0.9c-0.7-0.58-1.44-1.6-1.44-3.37
		C372.17,148.18,372.26,146.71,373.48,145.68z M374.51,151.55c0.36,0.52,1.01,1.08,2.05,1.08c1.04,0,1.69-0.56,2.05-1.08
		c0.5-0.76,0.58-1.75,0.58-2.61c0-0.85-0.07-1.87-0.58-2.63c-0.38-0.56-0.99-1.06-2.05-1.06c-1.06,0-1.67,0.5-2.05,1.06
		c-0.5,0.76-0.58,1.78-0.58,2.63C373.93,149.8,374,150.79,374.51,151.55z"/>
	<path fill="#4B2023" d="M385.81,145.14c-0.34,0.05-0.76,0.14-0.76,0.43c0,0.18,0.22,0.43,0.49,0.7l1.96,2
		c0.09,0.09,0.29,0.31,0.29,0.43c0,0.25-1.51,2.05-1.64,2.2c-1.66,1.89-2.2,2.29-2.58,2.29s-0.72-0.29-0.97-0.47
		c-0.16-0.11-0.23-0.16-0.4-0.31l0.32-0.41c0.2,0.18,0.5,0.38,0.65,0.38c0.14,0,0.31-0.09,0.88-0.77c0.74-0.88,2-2.59,2.45-3.38
		v-0.07c-0.92-0.81-1.37-1.21-1.8-1.55c-1.12-0.9-1.6-1.26-2.29-1.46v-0.29h3.38V145.14z M390.98,144.85v0.29l-0.31,0.09
		c-0.52,0.16-0.83,0.29-0.85,1.15l-0.14,5.17c-0.02,0.56,0.02,0.88,0.68,1.03l0.61,0.13v0.27h-3.92v-0.27l0.61-0.13
		c0.65-0.13,0.7-0.34,0.68-1.03l-0.14-5.17c-0.02-0.92-0.38-1.01-0.85-1.15l-0.31-0.09v-0.29H390.98z M395.62,144.85v0.29
		c-0.68,0.2-1.17,0.56-2.29,1.46c-0.43,0.34-0.88,0.74-1.8,1.55v0.07c0.45,0.79,1.71,2.5,2.45,3.38c0.58,0.68,0.74,0.77,0.88,0.77
		c0.14,0,0.45-0.2,0.65-0.38l0.32,0.41c-0.16,0.14-0.23,0.2-0.4,0.31c-0.25,0.18-0.59,0.47-0.97,0.47s-0.92-0.4-2.58-2.29
		c-0.13-0.14-1.64-1.94-1.64-2.2c0-0.13,0.2-0.34,0.29-0.43l1.96-2c0.27-0.27,0.49-0.52,0.49-0.7c0-0.29-0.41-0.38-0.76-0.43v-0.29
		H395.62z"/>
	<path fill="#4B2023" d="M404.03,152.24c-0.97,0.77-2,0.95-2.75,0.95c-1.35,0-2.43-0.49-3.1-1.19c-0.56-0.59-1.08-1.6-1.08-3.04
		c0-1.24,0.43-2.14,0.92-2.77c0.72-0.94,1.73-1.49,3.15-1.49c0.77,0,1.46,0.18,2.05,0.63c0.67,0.5,1.21,1.35,1.21,2.74
		c0,0.54-0.27,0.49-0.56,0.49h-4.99c-0.02,0.92,0.11,1.51,0.25,1.93c0.61,1.76,1.82,1.96,2.61,1.96c0.59,0,1.24-0.16,1.98-0.74
		L404.03,152.24z M402.57,147.93c0.41,0,0.45-0.22,0.45-0.52c0-0.81-0.36-2.16-1.84-2.16c-1.42,0-2.27,1.26-2.3,2.68H402.57z"/>
	<path fill="#4B2023" d="M413.15,152.07c-1.15,0.79-1.89,1.12-2.93,1.12c-1.31,0-2.34-0.45-2.99-1.1c-0.32-0.32-1.13-1.24-1.13-2.93
		c0-1.62,0.63-2.85,1.44-3.53c1.04-0.88,2.34-0.94,2.95-0.94c1.95,0,2.77,0.77,2.77,1.49c0,0.38-0.25,0.72-0.77,0.72
		c-0.77,0-0.97-0.58-1.13-0.99c-0.11-0.29-0.27-0.67-0.92-0.67c-1.1,0-2.56,0.85-2.56,3.56c0,0.56,0.05,1.49,0.56,2.29
		c0.49,0.77,1.37,1.33,2.36,1.33c0.81,0,1.62-0.5,2.09-0.85L413.15,152.07z"/>
	<path fill="#4B2023" d="M415.51,147.41l-0.54,0.14v-2.7h7.8l0.11,2.79l-0.65-0.23c-0.2-1.22-1.28-2.07-2.56-2l-0.14,6.14
		c-0.02,0.83,0.22,0.92,0.7,1.03l0.59,0.13v0.27h-3.92v-0.27l0.61-0.13c0.74-0.16,0.72-0.54,0.7-1.03l-0.14-6.14
		C416.79,145.34,415.71,146.19,415.51,147.41z"/>
	<path fill="#4B2023" d="M429.64,144.85c0.65,0,1.44,0,1.98,0.47c0.31,0.27,0.49,0.7,0.49,1.24c0,0.97-0.85,1.64-1.82,1.91v0.18
		c1.48-0.02,2.09,1.01,2.09,1.87c0,0.7-0.34,1.26-1.01,1.71c-1.06,0.74-2.09,0.74-3.11,0.74h-3.93v-0.27l0.61-0.13
		c0.47-0.09,0.72-0.2,0.7-1.03l-0.16-5.17c-0.04-0.92-0.38-1.03-0.83-1.15l-0.32-0.09v-0.29H429.64z M426.97,152.27
		c0.36,0.07,0.86,0.14,1.53,0.14c0.52,0,1.19-0.07,1.67-0.56c0.4-0.4,0.47-0.9,0.47-1.26c0-1.13-0.76-1.69-1.78-1.69
		c-0.56,0-0.96,0.09-1.24,0.2v-0.72c1.44,0.22,2.88-0.38,2.88-1.87c0-0.99-0.74-1.1-1.37-1.1c-0.56,0-1.37,0.07-1.94,0.14
		L426.97,152.27z"/>
	<path fill="#4B2023" d="M441.02,152.24c-0.97,0.77-2,0.95-2.75,0.95c-1.35,0-2.43-0.49-3.1-1.19c-0.56-0.59-1.08-1.6-1.08-3.04
		c0-1.24,0.43-2.14,0.92-2.77c0.72-0.94,1.73-1.49,3.15-1.49c0.77,0,1.46,0.18,2.05,0.63c0.67,0.5,1.21,1.35,1.21,2.74
		c0,0.54-0.27,0.49-0.56,0.49h-4.99c-0.02,0.92,0.11,1.51,0.25,1.93c0.61,1.76,1.82,1.96,2.61,1.96c0.59,0,1.24-0.16,1.98-0.74
		L441.02,152.24z M439.56,147.93c0.41,0,0.45-0.22,0.45-0.52c0-0.81-0.36-2.16-1.84-2.16c-1.42,0-2.27,1.26-2.3,2.68H439.56z"/>
	<path fill="#4B2023" d="M446.49,145.23c-0.47,0.14-0.83,0.23-0.85,1.15l-0.05,1.87c1.42,0.09,2.86,0.09,4.29,0l-0.05-1.87
		c-0.02-0.92-0.38-1.03-0.83-1.15l-0.32-0.09v-0.29h3.93v0.29l-0.31,0.09c-0.58,0.16-0.79,0.29-0.83,1.15l-0.16,5.17
		c-0.02,0.54,0.02,0.88,0.68,1.03l0.61,0.13v0.27h-3.93v-0.27l0.61-0.13c0.67-0.14,0.72-0.45,0.7-1.03l-0.09-2.61
		c-1.44-0.09-2.88-0.09-4.32,0l-0.07,2.61c-0.02,0.68,0.04,0.9,0.68,1.03l0.61,0.13v0.27h-3.93v-0.27l0.61-0.13
		c0.67-0.14,0.7-0.47,0.68-1.03l-0.14-5.17c-0.02-0.86-0.32-0.99-0.85-1.15l-0.31-0.09v-0.29h3.93v0.29L446.49,145.23z"/>
	<path fill="#4B2023" d="M457.41,145.23c-0.47,0.14-0.83,0.23-0.85,1.15l-0.05,1.87c1.42,0.09,2.86,0.09,4.29,0l-0.05-1.87
		c-0.02-0.92-0.38-1.03-0.83-1.15l-0.32-0.09v-0.29h3.93v0.29l-0.31,0.09c-0.58,0.16-0.79,0.29-0.83,1.15l-0.16,5.17
		c-0.02,0.54,0.02,0.88,0.68,1.03l0.61,0.13v0.27h-3.93v-0.27l0.61-0.13c0.67-0.14,0.72-0.45,0.7-1.03l-0.09-2.61
		c-1.44-0.09-2.88-0.09-4.32,0l-0.07,2.61c-0.02,0.68,0.04,0.9,0.68,1.03l0.61,0.13v0.27h-3.93v-0.27l0.61-0.13
		c0.67-0.14,0.7-0.47,0.68-1.03l-0.14-5.17c-0.02-0.86-0.32-0.99-0.85-1.15l-0.31-0.09v-0.29h3.93v0.29L457.41,145.23z"/>
	<path fill="#4B2023" d="M464.72,144.85h3.96v0.29l-0.32,0.09c-0.41,0.11-0.83,0.25-0.83,1.15l-0.05,5.85
		c0.25,0.11,0.58,0.18,0.96,0.18c0.67,0,1.26-0.25,1.69-0.68c0.52-0.52,0.59-1.08,0.59-1.62c0-1.42-0.95-1.55-1.3-1.55
		c-0.27,0-0.97,0.14-1.17,0.22l-0.09,0.04l-0.11-0.45c0.49-0.22,1.04-0.4,1.73-0.4c0.74,0,1.57,0.14,2.04,0.58
		c0.27,0.23,0.61,0.68,0.61,1.44c0,1.01-0.38,1.69-0.92,2.14c-0.94,0.77-2.25,0.85-2.92,0.85h-3.87v-0.27l0.61-0.13
		c0.67-0.14,0.7-0.47,0.68-1.03l-0.13-5.17c-0.02-0.86-0.32-0.99-0.86-1.15l-0.31-0.09V144.85z M472.57,144.85h3.93v0.29l-0.31,0.09
		c-0.58,0.16-0.79,0.29-0.83,1.15l-0.16,5.17c-0.02,0.83,0.23,0.92,0.7,1.03l0.59,0.13v0.27h-3.93v-0.27l0.61-0.13
		c0.68-0.14,0.72-0.45,0.7-1.03l-0.16-5.17c-0.04-0.92-0.38-1.03-0.83-1.15l-0.32-0.09V144.85z"/>
	<path fill="#4B2023" d="M481.28,145.23c-0.45,0.13-0.79,0.23-0.83,1.15l-0.18,4.9h0.11l4.72-6.43h2.39v0.29l-0.31,0.09
		c-0.52,0.16-0.83,0.29-0.85,1.15l-0.14,5.17c-0.02,0.68,0.04,0.9,0.68,1.03l0.61,0.13v0.27h-3.93v-0.27l0.61-0.13
		c0.59-0.13,0.7-0.38,0.68-1.03l-0.18-5.02h-0.11l-4.72,6.45h-2.18v-0.27l0.61-0.13c0.67-0.14,0.7-0.49,0.68-1.03l-0.16-5.17
		c-0.04-0.86-0.25-0.99-0.83-1.15l-0.31-0.09v-0.29h3.93v0.29L481.28,145.23z M483.82,143.21c-0.29,0.43-0.52,0.58-0.77,0.58
		c-0.45,0-0.95-0.27-1.35-0.5l-0.72-0.41l0.32-0.43c0.32,0.2,0.61,0.31,0.94,0.31c0.59,0,1.06-0.47,1.71-1.13
		c0.43-0.45,0.76-0.81,1.17-1.3l0.45,0.23L483.82,143.21z"/>
	<path fill="#4B2023" d="M496.33,145.14c-0.34,0.05-0.76,0.14-0.76,0.43c0,0.18,0.22,0.43,0.49,0.7l1.96,2
		c0.09,0.09,0.29,0.31,0.29,0.43c0,0.25-1.51,2.05-1.64,2.2c-1.66,1.89-2.2,2.29-2.58,2.29s-0.72-0.29-0.97-0.47
		c-0.16-0.11-0.23-0.16-0.4-0.31l0.32-0.41c0.2,0.18,0.5,0.38,0.65,0.38c0.14,0,0.31-0.09,0.88-0.77c0.74-0.88,2-2.59,2.45-3.38
		v-0.07c-0.92-0.81-1.37-1.21-1.8-1.55c-1.12-0.9-1.6-1.26-2.29-1.46v-0.29h3.38V145.14z M501.49,144.85v0.29l-0.31,0.09
		c-0.52,0.16-0.83,0.29-0.85,1.15l-0.14,5.17c-0.02,0.56,0.02,0.88,0.68,1.03l0.61,0.13v0.27h-3.92v-0.27l0.61-0.13
		c0.65-0.13,0.7-0.34,0.68-1.03l-0.14-5.17c-0.02-0.92-0.38-1.01-0.85-1.15l-0.31-0.09v-0.29H501.49z M506.14,144.85v0.29
		c-0.68,0.2-1.17,0.56-2.29,1.46c-0.43,0.34-0.88,0.74-1.8,1.55v0.07c0.45,0.79,1.71,2.5,2.45,3.38c0.58,0.68,0.74,0.77,0.88,0.77
		c0.14,0,0.45-0.2,0.65-0.38l0.32,0.41c-0.16,0.14-0.23,0.2-0.4,0.31c-0.25,0.18-0.59,0.47-0.97,0.47s-0.92-0.4-2.58-2.29
		c-0.13-0.14-1.64-1.94-1.64-2.2c0-0.13,0.2-0.34,0.29-0.43l1.96-2c0.27-0.27,0.49-0.52,0.49-0.7c0-0.29-0.41-0.38-0.76-0.43v-0.29
		H506.14z"/>
	<path fill="#4B2023" d="M514.35,146.37c0.04-0.11,0.11-0.47,0.11-0.58c0-0.32-0.52-0.63-1.06-0.65v-0.29h3.15v0.29
		c-0.65,0.09-0.94,0.49-1.46,1.73l-2.57,6.16c-1.04,2.5-2.21,3.91-3.4,3.91c-0.86,0-0.88-0.72-0.88-0.83c0-0.65,0.58-0.95,1.12-0.95
		s0.18,0.16,0.88,0.16c0.63,0,1.06-0.83,1.42-1.67l-2.74-6.64c-0.36-0.86-0.63-1.66-1.55-1.85v-0.29h3.73v0.29
		c-0.81,0.05-0.99,0.45-0.99,0.7c0,0.2,0.25,0.97,0.34,1.21l1.76,4.92h0.11L514.35,146.37z"/>
	<path fill="#4B2023" d="M520.46,145.29h0.11c0.52-0.31,1.24-0.59,2.3-0.59c0.81,0,2.02,0.13,2.88,1.1
		c0.76,0.85,0.88,1.87,0.88,2.68c0,1.82-0.81,2.9-1.42,3.49c-0.86,0.81-2.05,1.22-3.19,1.22c-0.68,0-1.42-0.14-1.73-0.22l-0.07,2.36
		c-0.02,0.41-0.07,0.88,0.7,1.01l0.86,0.14v0.27h-4.2v-0.27l0.63-0.14c0.52-0.13,0.7-0.16,0.68-1.01l-0.18-7.87
		c-0.02-0.7,0.02-1.12-0.14-1.37c-0.23-0.36-0.68-0.36-1.19-0.31v-0.49c1.73-0.05,2.72-0.45,3.08-0.61L520.46,145.29z
		 M520.34,152.29c0.49,0.25,0.92,0.34,1.4,0.34c1.42,0,2.16-0.79,2.52-1.31c0.56-0.81,0.61-1.71,0.61-2.32
		c0-0.95-0.07-1.82-0.45-2.48c-0.49-0.86-1.21-1.12-1.98-1.12c-0.47,0-1.31,0.11-1.98,0.86L520.34,152.29z"/>
	<path fill="#4B2023" d="M531.66,145.23c-0.47,0.14-0.83,0.23-0.85,1.15l-0.05,1.87c1.42,0.09,2.86,0.09,4.29,0l-0.05-1.87
		c-0.02-0.92-0.38-1.03-0.83-1.15l-0.32-0.09v-0.29h3.93v0.29l-0.31,0.09c-0.58,0.16-0.79,0.29-0.83,1.15l-0.16,5.17
		c-0.02,0.54,0.02,0.88,0.68,1.03l0.61,0.13v0.27h-3.93v-0.27l0.61-0.13c0.67-0.14,0.72-0.45,0.7-1.03l-0.09-2.61
		c-1.44-0.09-2.88-0.09-4.32,0l-0.07,2.61c-0.02,0.68,0.04,0.9,0.68,1.03l0.61,0.13v0.27h-3.93v-0.27l0.61-0.13
		c0.67-0.14,0.7-0.47,0.68-1.03l-0.14-5.17c-0.02-0.86-0.32-0.99-0.85-1.15l-0.31-0.09v-0.29h3.93v0.29L531.66,145.23z"/>
	<path fill="#4B2023" d="M547.38,152.45c-0.36,0.22-0.13,0.05-0.58,0.32c-0.31,0.18-0.59,0.41-0.9,0.41c-0.18,0-0.85-0.11-1.19-1.46
		c-0.85,0.59-2.39,1.46-3.29,1.46c-1.13,0-2.05-1.03-2.05-2.48c0-0.47,0.13-1.26,1.37-1.66l3.82-1.22l0.04-1.46
		c0.04-1.17-1.06-1.17-1.37-1.17c-1.26,0-1.55,0.5-1.66,0.95c-0.07,0.31-0.22,0.97-0.99,0.97c-0.4,0-0.81-0.23-0.81-0.77
		c0-0.79,0.68-1.17,1.26-1.37c0.49-0.16,1.12-0.29,2.05-0.29c0.47,0,1.62,0.04,2.34,0.36c0.85,0.38,0.81,0.92,0.76,1.64
		c-0.05,0.86-0.23,2.79-0.16,4.38c0.04,0.72,0.07,1.17,0.5,1.17c0.23,0,0.38-0.09,0.65-0.25L547.38,152.45z M544.55,148.4
		c-0.58,0.2-0.86,0.29-1.26,0.41c-1.93,0.61-2.47,0.99-2.47,1.91c0,0.52,0.13,1.58,1.15,1.58c0.23,0,1.15-0.02,2.57-1.06V148.4z"/>
	<path fill="#4B2023" d="M555.83,151.26c0.13,0.63,0.25,1.21,1.01,1.44v0.27h-3.64v-0.27l0.61-0.16c0.52-0.14,0.74-0.22,0.74-0.59
		c0-0.2-0.05-0.4-0.16-0.76l-1.58-5.67h-0.38c-0.38,1.91-1.21,4.61-1.93,6.27c-0.54,1.22-1.03,1.4-1.26,1.4
		c-0.16,0-0.58-0.13-0.58-1.15c0-0.72,0.09-1.37,0.85-1.37c0.22,0,0.4,0.07,0.5,0.13c0.36-0.76,0.56-1.3,0.77-1.98
		c0.47-1.44,0.59-2.2,0.59-2.68c0-0.34-0.05-0.61-0.74-0.61c-0.38,0-0.61,0.04-0.86,0.09l0.09-0.61l4.59-0.14L555.83,151.26z"/>
</g>
<g>
	<path fill="#4B2023" d="M428.69,162.48l-0.69,1.34c-0.03,0.07-0.06,0.11-0.15,0.11c-0.05,0-0.09-0.03-0.13-0.07l-0.4-0.26
		c-0.04-0.02-0.07-0.07-0.07-0.1c0-0.09,0.04-0.14,0.09-0.19l1.02-1.07l-0.01-0.05l-0.36-0.07l-1.14-0.19
		c-0.07-0.01-0.15-0.02-0.1-0.23l0.13-0.45c0.01-0.04,0.05-0.14,0.15-0.14c0.05,0,0.14,0.03,0.18,0.05l1.29,0.65l0.04-0.03
		l-0.23-1.42c-0.02-0.11-0.03-0.28,0.2-0.28h0.44c0.23,0,0.22,0.17,0.2,0.28l-0.23,1.42l0.04,0.03l1.29-0.65
		c0.03-0.02,0.12-0.05,0.18-0.05c0.1,0,0.14,0.1,0.15,0.14l0.13,0.45c0.05,0.21-0.03,0.22-0.1,0.23l-1.14,0.19l-0.36,0.07
		l-0.01,0.05l1.02,1.07c0.04,0.04,0.09,0.1,0.09,0.19c0,0.03-0.02,0.08-0.07,0.1l-0.4,0.26c-0.04,0.03-0.08,0.07-0.13,0.07
		c-0.1,0-0.12-0.04-0.15-0.11l-0.69-1.34H428.69z"/>
	<path fill="#4B2023" d="M435.63,163.6c0.52-0.44,1.25-0.6,1.89-0.6c0.62,0,1.35,0.17,1.87,0.6c0.75,0.63,0.8,1.53,0.8,1.98
		c0,1.08-0.45,1.71-0.88,2.06c-0.3,0.24-0.86,0.55-1.8,0.55c-0.95,0-1.51-0.31-1.8-0.55c-0.43-0.35-0.88-0.98-0.88-2.06
		C434.82,165.13,434.88,164.23,435.63,163.6z M436.25,167.19c0.22,0.32,0.62,0.66,1.25,0.66c0.64,0,1.03-0.34,1.25-0.66
		c0.31-0.46,0.35-1.07,0.35-1.6c0-0.52-0.04-1.14-0.35-1.61c-0.23-0.34-0.6-0.65-1.25-0.65c-0.65,0-1.02,0.31-1.25,0.65
		c-0.31,0.46-0.35,1.09-0.35,1.61C435.9,166.12,435.95,166.72,436.25,167.19z"/>
	<path fill="#4B2023" d="M441.54,164.66l-0.33,0.09v-1.65h4.76l0.07,1.71l-0.4-0.14c-0.12-0.75-0.78-1.27-1.56-1.22l-0.09,3.75
		c-0.01,0.51,0.13,0.56,0.43,0.63l0.36,0.08v0.17h-2.4v-0.17l0.37-0.08c0.45-0.1,0.44-0.33,0.43-0.63l-0.09-3.75
		C442.33,163.39,441.67,163.91,441.54,164.66z"/>
	<path fill="#4B2023" d="M454.43,167.67h0.54v1.87l-0.38,0.17c-0.08-0.34-0.08-0.41-0.11-0.62c-0.18-0.92-0.57-1.03-0.85-1.03h-2.55
		c-0.44,0-0.91,0.14-1.13,1.52l-0.38,0.13v-2.04h0.22c0.35,0,0.54-0.36,0.68-0.67c0.4-0.85,0.8-2.04,0.97-2.51
		c0.12-0.36,0.17-0.5,0.17-0.62c0-0.34-0.3-0.37-0.67-0.35l-0.22,0.01l0.06-0.37l2.5-0.07L454.43,167.67z M452.3,163.55h-0.2
		c-0.04,0.18-0.08,0.32-0.18,0.67c-0.19,0.66-0.27,0.92-0.54,1.67c-0.24,0.67-0.39,1.07-0.51,1.38c-0.11,0.26-0.12,0.31-0.12,0.33
		c0,0.03,0.02,0.12,0.15,0.12h2.71L452.3,163.55z"/>
	<path fill="#4B2023" d="M457.93,163.33c-0.29,0.09-0.51,0.14-0.52,0.7l-0.03,1.14c0.87,0.05,1.75,0.05,2.62,0l-0.03-1.14
		c-0.01-0.56-0.23-0.63-0.51-0.7l-0.2-0.06v-0.18h2.4v0.18l-0.19,0.06c-0.35,0.1-0.48,0.18-0.51,0.7l-0.1,3.16
		c-0.01,0.33,0.01,0.54,0.42,0.63l0.37,0.08v0.17h-2.4v-0.17l0.38-0.08c0.41-0.09,0.44-0.27,0.43-0.63l-0.05-1.6
		c-0.88-0.06-1.76-0.06-2.64,0l-0.04,1.6c-0.01,0.42,0.02,0.55,0.42,0.63l0.37,0.08v0.17h-2.4v-0.17l0.37-0.08
		c0.41-0.09,0.43-0.29,0.42-0.63l-0.09-3.16c-0.01-0.53-0.2-0.61-0.52-0.7l-0.19-0.06v-0.18h2.4v0.18L457.93,163.33z"/>
	<path fill="#4B2023" d="M467.52,163.33c-0.29,0.09-0.51,0.14-0.52,0.7l-0.09,3.16c-0.01,0.42,0.02,0.55,0.42,0.63l0.37,0.08v0.17
		h-2.4v-0.17l0.37-0.08c0.41-0.09,0.43-0.29,0.42-0.63l-0.11-3.75h-0.43c-0.59,0-1.53,0.07-1.53,0.96c0,0.36,0.14,0.58,0.39,0.77
		c0.25,0.19,0.6,0.29,0.89,0.29c0.22,0,0.22-0.04,0.32-0.04c0.06,0,0.08,0.04,0.08,0.08c0,0.03-0.03,0.08-0.07,0.12
		c-0.69,0.9-0.31,0.42-0.7,0.94c-0.8,1.07-1.3,1.65-1.66,1.65c-0.14,0-0.35-0.12-0.97-0.58l0.23-0.22c0.19,0.17,0.29,0.23,0.36,0.23
		c0.3,0,0.75-0.65,0.98-0.98c0.26-0.37,0.41-0.6,0.6-0.94v-0.07c-0.37-0.01-0.79-0.14-1.07-0.35c-0.31-0.24-0.44-0.56-0.44-0.85
		c0-0.41,0.21-0.88,0.78-1.13c0.19-0.08,0.58-0.21,1.39-0.21h2.56v0.18L467.52,163.33z"/>
	<path fill="#4B2023" d="M473.2,163.33c-0.29,0.09-0.51,0.14-0.52,0.7l-0.03,1.14c0.87,0.05,1.75,0.05,2.62,0l-0.03-1.14
		c-0.01-0.56-0.23-0.63-0.51-0.7l-0.2-0.06v-0.18h2.4v0.18l-0.19,0.06c-0.35,0.1-0.48,0.18-0.51,0.7l-0.1,3.16
		c-0.01,0.33,0.01,0.54,0.42,0.63l0.37,0.08v0.17h-2.4v-0.17l0.38-0.08c0.41-0.09,0.44-0.27,0.43-0.63l-0.05-1.6
		c-0.88-0.06-1.76-0.06-2.64,0l-0.04,1.6c-0.01,0.42,0.02,0.55,0.42,0.63l0.37,0.08v0.17h-2.4v-0.17l0.37-0.08
		c0.41-0.09,0.43-0.29,0.42-0.63l-0.09-3.16c-0.01-0.53-0.2-0.61-0.52-0.7l-0.19-0.06v-0.18h2.4v0.18L473.2,163.33z"/>
	<path fill="#4B2023" d="M482.03,167.6c-0.59,0.47-1.22,0.58-1.68,0.58c-0.82,0-1.48-0.3-1.89-0.73c-0.34-0.36-0.66-0.98-0.66-1.86
		c0-0.76,0.26-1.31,0.56-1.69c0.44-0.57,1.06-0.91,1.92-0.91c0.47,0,0.89,0.11,1.25,0.38c0.41,0.31,0.74,0.83,0.74,1.67
		c0,0.33-0.17,0.3-0.34,0.3h-3.05c-0.01,0.56,0.07,0.92,0.15,1.18c0.37,1.08,1.11,1.2,1.6,1.2c0.36,0,0.76-0.1,1.21-0.45
		L482.03,167.6z M481.14,164.98c0.25,0,0.28-0.13,0.28-0.32c0-0.5-0.22-1.32-1.12-1.32c-0.87,0-1.39,0.77-1.41,1.64H481.14z"/>
	<path fill="#4B2023" d="M488.1,167.67h0.54v1.87l-0.39,0.17c-0.08-0.34-0.08-0.41-0.11-0.62c-0.18-0.92-0.57-1.03-0.85-1.03h-2.55
		c-0.44,0-0.91,0.14-1.13,1.52l-0.38,0.13v-2.04h0.22c0.35,0,0.54-0.36,0.68-0.67c0.4-0.85,0.8-2.04,0.97-2.51
		c0.12-0.36,0.16-0.5,0.16-0.62c0-0.34-0.3-0.37-0.67-0.35l-0.22,0.01l0.05-0.37l2.5-0.07L488.1,167.67z M485.97,163.55h-0.2
		c-0.04,0.18-0.08,0.32-0.18,0.67c-0.19,0.66-0.28,0.92-0.54,1.67c-0.24,0.67-0.39,1.07-0.51,1.38c-0.11,0.26-0.12,0.31-0.12,0.33
		c0,0.03,0.02,0.12,0.15,0.12h2.71L485.97,163.55z"/>
	<path fill="#4B2023" d="M493.76,167.6c-0.59,0.47-1.22,0.58-1.68,0.58c-0.83,0-1.49-0.3-1.89-0.73c-0.34-0.36-0.66-0.98-0.66-1.86
		c0-0.76,0.26-1.31,0.56-1.69c0.44-0.57,1.06-0.91,1.92-0.91c0.47,0,0.89,0.11,1.25,0.38c0.41,0.31,0.74,0.83,0.74,1.67
		c0,0.33-0.17,0.3-0.34,0.3h-3.05c-0.01,0.56,0.07,0.92,0.15,1.18c0.37,1.08,1.11,1.2,1.59,1.2c0.36,0,0.76-0.1,1.21-0.45
		L493.76,167.6z M492.87,164.98c0.25,0,0.28-0.13,0.28-0.32c0-0.5-0.22-1.32-1.12-1.32c-0.87,0-1.39,0.77-1.41,1.64H492.87z"/>
	<path fill="#4B2023" d="M499.39,167.01c0.08,0.38,0.15,0.74,0.62,0.88v0.17h-2.22v-0.17l0.37-0.1c0.32-0.09,0.45-0.13,0.45-0.36
		c0-0.12-0.03-0.24-0.1-0.46l-0.97-3.47h-0.23c-0.23,1.17-0.74,2.82-1.18,3.83c-0.33,0.75-0.63,0.86-0.77,0.86
		c-0.1,0-0.35-0.08-0.35-0.7c0-0.44,0.06-0.84,0.52-0.84c0.13,0,0.24,0.04,0.31,0.08c0.22-0.46,0.34-0.79,0.47-1.21
		c0.29-0.88,0.36-1.34,0.36-1.64c0-0.21-0.03-0.37-0.45-0.37c-0.23,0-0.37,0.02-0.53,0.06l0.05-0.37l2.8-0.09L499.39,167.01z"/>
	<path fill="#4B2023" d="M502.85,163.33c-0.28,0.08-0.48,0.14-0.51,0.7l-0.11,2.99h0.07l2.88-3.93h1.46v0.18l-0.19,0.06
		c-0.32,0.1-0.51,0.18-0.52,0.7l-0.09,3.16c-0.01,0.42,0.02,0.55,0.42,0.63l0.37,0.08v0.17h-2.4v-0.17l0.37-0.08
		c0.36-0.08,0.43-0.23,0.42-0.63l-0.11-3.07h-0.07l-2.88,3.94h-1.33v-0.17l0.38-0.08c0.41-0.09,0.43-0.3,0.42-0.63l-0.1-3.16
		c-0.02-0.53-0.15-0.61-0.51-0.7l-0.19-0.06v-0.18h2.4v0.18L502.85,163.33z"/>
	<path fill="#4B2023" d="M512.13,163.33c-0.28,0.08-0.48,0.14-0.51,0.7l-0.11,2.99h0.07l2.88-3.93h1.46v0.18l-0.19,0.06
		c-0.32,0.1-0.51,0.18-0.52,0.7l-0.09,3.16c-0.01,0.42,0.02,0.55,0.42,0.63l0.37,0.08v0.17h-2.4v-0.17l0.38-0.08
		c0.36-0.08,0.43-0.23,0.42-0.63l-0.11-3.07h-0.07l-2.88,3.94h-1.33v-0.17l0.37-0.08c0.41-0.09,0.43-0.3,0.42-0.63l-0.1-3.16
		c-0.02-0.53-0.15-0.61-0.51-0.7l-0.19-0.06v-0.18h2.4v0.18L512.13,163.33z"/>
	<path fill="#4B2023" d="M520.79,167.19c-0.01,0.29-0.01,0.54,0.4,0.63l0.37,0.08v0.17h-2.34v-0.17l0.36-0.08
		c0.33-0.07,0.43-0.18,0.42-0.63l-0.09-3.17c-0.01-0.51-0.2-0.6-0.51-0.69l-0.19-0.06v-0.18h5.9v0.18l-0.19,0.06
		c-0.41,0.12-0.5,0.22-0.51,0.7l-0.1,3.16c-0.01,0.51,0.14,0.56,0.43,0.63l0.36,0.08v0.17h-2.4v-0.17l0.37-0.08
		c0.42-0.09,0.44-0.27,0.43-0.63l-0.11-3.75h-2.52L520.79,167.19z"/>
	<path fill="#4B2023" d="M526.77,163.6c0.52-0.44,1.25-0.6,1.89-0.6c0.62,0,1.35,0.17,1.87,0.6c0.75,0.63,0.8,1.53,0.8,1.98
		c0,1.08-0.45,1.71-0.88,2.06c-0.3,0.24-0.86,0.55-1.8,0.55c-0.95,0-1.51-0.31-1.8-0.55c-0.43-0.35-0.88-0.98-0.88-2.06
		C525.97,165.13,526.02,164.23,526.77,163.6z M527.4,167.19c0.22,0.32,0.62,0.66,1.25,0.66c0.64,0,1.03-0.34,1.25-0.66
		c0.31-0.46,0.35-1.07,0.35-1.6c0-0.52-0.04-1.14-0.35-1.61c-0.23-0.34-0.6-0.65-1.25-0.65c-0.65,0-1.02,0.31-1.25,0.65
		c-0.31,0.46-0.35,1.09-0.35,1.61C527.05,166.12,527.09,166.72,527.4,167.19z"/>
	<path fill="#4B2023" d="M534.75,168.06h-2.55v-0.17l0.37-0.08c0.41-0.09,0.43-0.3,0.42-0.63l-0.1-3.16
		c-0.02-0.57-0.19-0.62-0.51-0.7l-0.19-0.06v-0.18h4.16l0.09,1.57l-0.36,0.14c-0.02-0.11-0.08-0.44-0.15-0.69
		c-0.21-0.65-0.58-0.68-0.94-0.68h-1.09l-0.11,3.75c-0.01,0.33,0.01,0.57,0.43,0.63l0.53,0.08V168.06z"/>
	<path fill="#4B2023" d="M538.15,163.6c0.52-0.44,1.25-0.6,1.89-0.6c0.62,0,1.35,0.17,1.87,0.6c0.75,0.63,0.8,1.53,0.8,1.98
		c0,1.08-0.45,1.71-0.88,2.06c-0.3,0.24-0.86,0.55-1.8,0.55c-0.95,0-1.51-0.31-1.8-0.55c-0.43-0.35-0.88-0.98-0.88-2.06
		C537.34,165.13,537.4,164.23,538.15,163.6z M538.77,167.19c0.22,0.32,0.62,0.66,1.25,0.66c0.64,0,1.03-0.34,1.25-0.66
		c0.31-0.46,0.35-1.07,0.35-1.6c0-0.52-0.04-1.14-0.35-1.61c-0.23-0.34-0.61-0.65-1.25-0.65c-0.65,0-1.02,0.31-1.25,0.65
		c-0.31,0.46-0.35,1.09-0.35,1.61C538.42,166.12,538.46,166.72,538.77,167.19z"/>
	<path fill="#4B2023" d="M548.5,167.67h0.54v1.87l-0.39,0.17c-0.08-0.34-0.08-0.41-0.11-0.62c-0.18-0.92-0.57-1.03-0.85-1.03h-2.55
		c-0.44,0-0.91,0.14-1.13,1.52l-0.38,0.13v-2.04h0.22c0.35,0,0.54-0.36,0.68-0.67c0.4-0.85,0.8-2.04,0.97-2.51
		c0.12-0.36,0.16-0.5,0.16-0.62c0-0.34-0.3-0.37-0.67-0.35l-0.22,0.01l0.05-0.37l2.5-0.07L548.5,167.67z M546.37,163.55h-0.2
		c-0.04,0.18-0.08,0.32-0.18,0.67c-0.19,0.66-0.28,0.92-0.54,1.67c-0.24,0.67-0.39,1.07-0.51,1.38c-0.11,0.26-0.12,0.31-0.12,0.33
		c0,0.03,0.02,0.12,0.15,0.12h2.71L546.37,163.55z"/>
	<path fill="#4B2023" d="M549.79,163.09h2.42v0.18l-0.2,0.06c-0.25,0.07-0.51,0.15-0.51,0.7l-0.03,3.58
		c0.15,0.07,0.35,0.11,0.58,0.11c0.41,0,0.77-0.15,1.03-0.42c0.32-0.32,0.36-0.66,0.36-0.99c0-0.87-0.58-0.95-0.79-0.95
		c-0.17,0-0.59,0.09-0.71,0.13l-0.06,0.02l-0.07-0.27c0.3-0.13,0.64-0.24,1.06-0.24c0.45,0,0.96,0.09,1.24,0.35
		c0.17,0.14,0.37,0.42,0.37,0.88c0,0.62-0.23,1.03-0.56,1.31c-0.57,0.47-1.38,0.52-1.78,0.52h-2.37v-0.17l0.37-0.08
		c0.41-0.09,0.43-0.29,0.42-0.63l-0.08-3.16c-0.01-0.53-0.2-0.61-0.53-0.7l-0.19-0.06V163.09z M554.59,163.09h2.4v0.18l-0.19,0.06
		c-0.35,0.1-0.48,0.18-0.51,0.7l-0.1,3.16c-0.01,0.51,0.14,0.56,0.43,0.63l0.36,0.08v0.17h-2.4v-0.17l0.37-0.08
		c0.42-0.09,0.44-0.27,0.43-0.63l-0.1-3.16c-0.02-0.56-0.23-0.63-0.51-0.7l-0.2-0.06V163.09z"/>
</g>
<g>
	<path fill="#4B2023" d="M518.82,95.09c0.79-1.47,2.19-1.8,3.69-2.13c0.73-0.16,1.97,0.44,2.16-1.13c0,1-0.05,1.89,0.02,2.78
		c0.02,0.28,0.31,0.55,0.48,0.82c0.21-0.28,0.59-0.55,0.6-0.83c0.06-1.96,0.04-3.92,0.04-5.87c-0.95-0.06-0.95-0.06-1.29,2.16
		c-3.36-1.95-6.81-3.72-7.69-7.91c-0.64-3.03,0.18-5.73,2.64-7.77c1.55-1.28,1.9-3.1,0.89-4.88c-0.7-1.24-1.86-1.82-3.17-2.12
		c-0.26-0.06-0.66,0.26-0.94,0.47c-0.96,0.76-2.15,0.8-3,0.07c-0.84-0.72-0.94-1.85-0.24-2.68c0.71-0.85,2.13-0.96,3.1-0.29
		c0.59,0.41,1.23,0.78,1.89,1.05c2.75,1.14,4.56,3.15,5.77,6.25c1.43-0.98,2.9-1.74,4.07-2.83c1.45-1.35,1.51-3,0.3-4.61
		c-1.59-2.13-3.57-3.8-6.21-4.55c-0.2-0.06-0.35-0.3-0.53-0.45c0.2-0.18,0.38-0.5,0.59-0.51c0.75-0.06,1.36-0.03,1.88-0.88
		c0.25-0.41,1.46-0.22,2.24-0.31c0.17-1.69,0.17-1.69,2.12-2.19c-0.32-0.64-0.53-1.29-0.92-1.79c-0.65-0.83-0.41-1.44,0.67-1.85
		c0.1-0.62,0.1-1.16,0.31-1.61c0.07-0.14,0.91-0.16,1-0.01c0.23,0.4,0.24,0.93,0.39,1.67c1.37,0.55,0.59,1.5-0.15,2.52
		c2.5-1.87,5.42-2.28,8.54-2.8c-0.39-0.24-0.56-0.43-0.76-0.47c-2.94-0.55-4.11-1.88-4.31-4.84c-0.04-0.58-0.29-1.14-0.49-1.84
		c0.56-0.69,0.34-2.29-0.58-2.57c-5-1.5-7.12-5.31-8.08-10.02c-0.27-1.32-0.37-2.68-0.54-4.02c-0.25-1.96-0.81-2.55-2.74-2.61
		c0.61-0.96,1.1-1.88,1.74-2.68c0.82-1.03,1.45-0.94,1.84,0.31c0.66,2.12,1.14,4.29,1.74,6.44c0.81,2.92,3.3,4.69,6.35,4.6
		c0.76-2.52,1.53-5.01,2.26-7.51c0.06-0.2,0.01-0.54-0.12-0.69c-0.73-0.81-0.52-1.3,0.47-1.59c0.2-0.06,0.43-0.13,0.55-0.28
		c1.16-1.43,2.75-1.93,4.48-2.14c0.81-0.1,1.45-0.26,0.7-1.28c-0.15-0.2,0.03-0.95,0.09-0.95c0.64-0.04,1.28,0.02,1.92,0.06
		c-0.04,0.34,0.05,0.81-0.14,1c-0.81,0.8-0.28,0.94,0.43,1.15c1.25,0.36,2.46,0.87,3.72,1.13c0.45,0.09,1.01-0.32,1.51-0.53
		c0.39-0.17,0.8-0.59,1.11-0.52c0.38,0.08,0.67,0.57,0.99,0.88c-0.3,0.27-0.56,0.64-0.9,0.78c-0.47,0.19-1.02,0.19-1.79,0.32
		c0.38,0.23,0.62,0.33,0.79,0.5c0.26,0.26,0.71,0.72,0.65,0.83c-0.77,1.22,0.29,2.12,0.45,3.32c0.76-0.53,1.39-1.05,2.1-1.44
		c0.87-0.48,1.78-0.95,2.73-1.23c1.81-0.54,3.05,0.14,3.74,1.88c1.35,3.38,0.46,7.3-2.34,9.84c-1,0.9-2.1,1.75-3.29,2.36
		c-1.33,0.68-2.12,1.57-2.23,3.06c-0.03,0.34-0.15,0.68-0.24,1.07c0.32,0.16,0.64,0.32,0.7,0.35c-0.23,0.99-0.49,1.8-0.59,2.63
		c-0.26,2.21-1.14,4.16-4.17,4.32c-0.25,0.01-0.5,0.21-1.07,0.46c3.16,0.69,6.12,1,8.45,3.18c-0.09-0.27-0.1-0.62-0.28-0.81
		c-1.11-1.15-1.05-1.56,0.16-2.08c0.05-0.6-0.01-1.13,0.18-1.54c0.08-0.18,0.91-0.29,0.99-0.16c0.28,0.42,0.37,0.96,0.64,1.76
		c0.71,0.37,1.1,0.98,0.05,2.01c-0.31,0.31-0.21,1.04-0.31,1.68c1.48,0.02,1.98,0.77,1.73,2.08c0.43,0.02,0.77,0.05,1.12,0.06
		c0.31,0.01,0.73-0.11,0.9,0.05c0.93,0.84,2,1.16,3.22,1.16c0.08,0,0.25,0.33,0.21,0.4c-0.12,0.19-0.3,0.43-0.5,0.48
		c-2.61,0.59-4.5,2.25-6.13,4.22c-1.54,1.87-1.41,3.76,0.45,5.31c1.28,1.07,2.84,1.82,4.39,2.78c0.36-0.62,0.58-1.03,0.82-1.43
		c1.24-2.06,2.99-3.5,5.27-4.31c0.51-0.18,1.01-0.47,1.44-0.8c1.03-0.8,2.38-0.79,3.21,0.07c0.74,0.76,0.72,1.94-0.04,2.71
		c-0.85,0.86-2.13,0.81-3.22,0.05c-0.4-0.28-1.1-0.42-1.57-0.29c-1.67,0.47-2.79,1.55-3.1,3.35c-0.19,1.11-0.01,1.92,0.96,2.73
		c3.29,2.74,3.58,7.98,0.56,11.13c-1.34,1.39-3.04,2.47-4.66,3.57c-1.19,0.81-2.51,1.41-3.77,2.11c-1.1,0.61-2.03,1.36-2.23,2.73
		c-0.04,0.29-0.16,0.66-0.37,0.82c-1.43,1.11-1.05,2.67-1.1,4.14c-0.02,0.78-0.1,1.56-0.14,2.34c-0.01,0.16-0.05,0.39,0.03,0.49
		c1.92,2.36,1.37,5.2,1.63,7.91c0.22,2.33,0.6,4.66,1.16,6.93c0.34,1.35,1,2.65,2.41,3.43c0.43,0.23,0.48,1.16,0.8,2.02
		c-0.2-0.09-0.09-0.02,0.02,0.01c0.84,0.22,2.27,0.24,2.41,0.69c0.39,1.18,0.64,2.73,0.16,3.78c-0.54,1.2-0.6,2.3-0.64,3.49
		c-0.01,0.21-0.04,0.42-0.07,0.71c-1.03,0-2.02-0.01-3-0.01c0.36-1,0.73-2.02,1.16-3.18c-5.18-0.01-9.97-0.03-14.86-0.04
		c0,1.11-0.01,2.1-0.01,3.17c-1.09,0-2.07-0.01-3.27-0.01c0-0.77-0.02-1.53,0.01-2.3c0.03-0.67-0.23-0.93-0.91-0.93
		c-3.94,0.01-7.87,0-11.81-0.04c-0.83-0.01-1.07,0.33-1.03,1.1c0.04,0.69,0.01,1.38,0,2.15c-1.16,0-2.18-0.01-3.33-0.01
		c-0.02-0.51,0.01-0.99-0.07-1.44c-0.17-0.87-0.51-1.71-0.58-2.58c-0.11-1.24-0.16-2.5,0-3.72c0.05-0.36,0.87-0.71,1.39-0.87
		c0.48-0.15,1.04-0.03,1.3-0.03c0.43-0.99,0.74-1.84,1.15-2.65c1.87-3.7,3.26-7.52,3.27-11.75c0.01-1.91,0.45-3.72,1.53-5.34
		c0.12-0.17,0.26-0.39,0.25-0.57c-0.11-1.71-0.24-3.43-0.39-5.14c-0.02-0.27-0.16-0.55-0.32-0.78c-0.22-0.32-0.54-0.57-0.77-0.89
		c-0.32-0.44-0.52-1.2-0.9-1.29c-0.68-0.16-1.82-0.2-2.13,0.21c-0.9,1.17-1.77,0.55-2.82,0.59c-1.96,0.08-3.72,1.15-4.59,3.19
		c-0.57,1.33-1.45,1.78-2.53,1.48c-0.78-0.21-1.19-0.65-0.8-1.43c0.44-0.88,1.01-1.7,1.52-2.55c-0.09,0.28-0.26,0.57-0.27,0.85
		c-0.01,0.54,0.08,1.08,0.13,1.61c0.61-0.21,1.58-0.25,1.78-0.66c0.94-1.95,2.65-2.56,4.52-2.96c0.88-0.19,1.15-0.6,0.83-1.49
		C522.41,93.63,520.5,93.92,518.82,95.09z M523.99,81.76c0.55-0.19,1.37-0.74,1.64-0.54c1.38,1.02,2.72,0.45,3.73-0.26
		c1.41-0.99,2.76-0.86,4.23-0.58c0.45,0.09,0.9,0.19,1.34,0.29c0.58-2.4,1.6-3.1,3.79-2.18c1.62,0.68,3.19,1.66,4.51,2.81
		c1.58,1.38,1.48,3.25-0.04,4.72c-2.04,1.98-4.57,2.9-7.39,2.77c-0.78-0.04-1.8-0.48-2.24-1.08c-1.89-2.56-4.54-2.77-7.68-2.9
		c0.36,0.56,0.56,0.84,0.73,1.13c0.18,0.32,0.52,0.69,0.48,0.99c-0.16,1.11,0.45,1.4,1.34,1.63c5.74,1.53,11.57,1.78,17.43,1.05
		c3.79-0.47,7.47-1.4,10.82-3.33c1.69-0.97,3.21-2.14,4.03-3.99c0.45-1.04,0.68-2.07-0.32-3c-0.3-0.28-0.59-0.74-0.61-1.14
		c-0.09-1.65-1.25-2.46-2.46-3.15c-1.4-0.79-2.84-1.58-4.36-2.08c-8.09-2.7-16.29-2.82-24.52-0.67c-3.2,0.83-6.24,2.05-8.56,4.54
		c-2.02,2.17-2.12,4.77-0.13,6.94c1.04,1.14,2.37,2.01,3.63,3.05c0.57-0.66,0.95-1.11,1.39-1.62c-0.54-0.26-0.89-0.43-1.25-0.6
		c0-0.09,0.01-0.19,0.01-0.28c0.37-0.07,0.73-0.15,1.19-0.24c0,0.62,0,1.09,0,1.55c0.75,0.28,1.16,0.17,1.11-0.68
		c-0.03-0.57,0.04-1.14-0.02-1.7c-0.04-0.31-0.27-0.59-0.41-0.88c-0.27,0.15-0.54,0.3-0.74,0.41
		C524.48,82.49,524.26,82.16,523.99,81.76z M547.47,35.71c-0.14-0.06-0.29-0.11-0.43-0.17c-0.57-1.59-0.03-3.08,0.54-4.59
		c0.12-0.33,0.16-0.84-0.02-1.11c-2.15-3.21-6.04-3.41-8.52-0.45c-0.47,0.56-0.92,1.18-1.24,1.84c-2.06,4.31-2.08,8.66-0.17,13.04
		c0.34,0.78,0.79,1.11,1.68,1.08c2.49-0.06,4.99-0.09,7.47,0.02c1.42,0.06,1.75-0.72,2.06-2.17c-0.46,0.52-0.64,0.83-0.91,1
		c-0.39,0.25-0.84,0.4-1.27,0.59c-0.15-0.51-0.58-1.21-0.39-1.49c0.5-0.75,1.17-1.65,1.95-1.89c1.28-0.4,1.67-1.04,1.73-2.3
		c0.08-1.95-0.02-3.84-0.67-5.77C548.61,34.23,548.04,34.97,547.47,35.71z M541.88,110.92c2.8,0.01,5.6,0,8.4,0.03
		c1.2,0.01,1.77-0.51,1.73-1.74c-0.04-1.18-0.03-2.36,0.01-3.54c0.04-1.19-0.55-1.67-1.67-1.67c-5.69-0.01-11.37-0.03-17.06-0.05
		c-1.18-0.01-1.79,0.51-1.76,1.74c0.03,1.09-0.01,2.19,0,3.28c0.01,1.52,0.41,1.92,1.95,1.93
		C536.29,110.91,539.08,110.91,541.88,110.92z M554.53,118.86c-0.84-0.32-1.45-0.66-2.1-0.78c-7.3-1.26-14.61-1.28-21.92-0.14
		c-0.81,0.13-1.59,0.49-2.51,0.78C530.6,121.43,551.22,121.57,554.53,118.86z M521.74,25.95c1.36,0.2,1.73,1.57,2.11,2.87
		c0.26,0.92,0.43,1.87,0.56,2.81c0.32,2.48,0.79,4.91,2.16,7.07c1.27,2.01,3.05,3.31,5.37,3.89c1.19,0.3,2.02-0.06,2.62-1.12
		c0.98-1.74,0.75-3.42-0.14-5.1c-0.33-0.62-0.73-0.74-1.43-0.79c-1.75-0.13-3.51-0.43-5.23-0.82c-1.03-0.24-1.64-1.03-1.87-2.14
		c-0.44-2.18-0.96-4.34-1.49-6.5c-0.19-0.77-0.5-1.5-0.66-1.97C522.99,24.82,522.33,25.41,521.74,25.95z M541.45,124.22
		C541.45,124.22,541.45,124.22,541.45,124.22c-5.28-0.01-10.57-0.02-15.85-0.04c-0.39,0-0.83-0.09-1.17,0.05
		c-0.34,0.14-0.83,0.56-0.79,0.8c0.05,0.37,0.44,0.75,0.78,1c0.21,0.15,0.59,0.06,0.9,0.06c10.74,0.03,21.49,0.06,32.23,0.09
		c0.39,0,0.84,0.04,1.15-0.13c0.28-0.16,0.58-0.59,0.57-0.89c-0.01-0.28-0.37-0.66-0.66-0.8c-0.33-0.15-0.77-0.09-1.16-0.09
		C552.1,124.25,546.77,124.23,541.45,124.22z M552.24,67.41c-0.69-0.29-1.28-0.66-1.91-0.78c-1.54-0.3-3.09-0.58-4.65-0.68
		c-4.58-0.31-9.16-0.38-13.68,0.62c-0.66,0.15-1.27,0.51-2.01,0.82C532.77,69.99,549.72,70.01,552.24,67.41z M540.38,82.56
		c-1.42,1.64-2.41,1.84-3.81,1.16c-0.32-0.16-0.79-0.14-1.15-0.05c-1.05,0.26-2.07,0.7-3.13,0.85c-0.4,0.06-1.2-0.43-1.26-0.77
		c-0.08-0.41,0.33-1.08,0.72-1.37c0.71-0.52,1.49-0.42,2.24,0.37c-0.74,0.08-1.32,0.14-2.26,0.24c1.05,1.23,2,0.71,2.82,0.39
		c0.94-0.35,1.1-1.25,0.25-1.63c-1.16-0.51-2.51-1-3.71-0.86c-1.63,0.18-3.19,0.97-4.86,1.52c0,0.39,0,0.97,0,1.58
		c0.26,0.05,0.43,0.09,0.59,0.1c2.98,0.13,5.82,0.61,8.05,2.87c0.21,0.21,0.66,0.31,0.97,0.26c1.28-0.23,2.61-0.36,3.78-0.85
		c1.5-0.63,2.73-1.75,2.54-3.59c-0.19-1.81-1.73-2.26-3.18-2.65c-1.66-0.46-2.32,0.22-2.01,2.03
		C538.01,82.28,539.06,82.4,540.38,82.56z M551.13,40.21c2.56-1.49,4.84-3.38,6.03-6.28c0.79-1.92-0.98-4.85-3.05-5.22
		c-1.4-0.25-4.11,1.91-3.98,3.3C550.39,34.71,550.78,37.41,551.13,40.21z M541.39,57.93c-3.14-0.01-6.29-0.02-9.43-0.03
		c-1.31,0-2.62-0.04-3.93,0.01c-0.29,0.01-0.58,0.33-0.87,0.5c0.3,0.17,0.59,0.36,0.9,0.49c0.15,0.06,0.34,0.01,0.52,0.01
		c8.42,0.02,16.85,0.05,25.27,0.07c0.35,0,0.71,0.03,1.04-0.05c0.16-0.03,0.41-0.3,0.38-0.41c-0.05-0.2-0.23-0.47-0.41-0.52
		c-0.33-0.09-0.69-0.05-1.04-0.05C549.68,57.95,545.54,57.94,541.39,57.93z M550.42,55.97c-6.16-1.01-12.3-1.16-18.44,0.02
		C534.8,57.41,547.98,57.4,550.42,55.97z M541.41,97.53c-2.93-0.01-5.86-0.03-8.79,0c-0.34,0-0.68,0.32-1.02,0.49
		c0.35,0.17,0.7,0.49,1.06,0.49c5.86,0.04,11.71,0.06,17.57,0.04c0.33,0,0.67-0.34,1-0.53c-0.35-0.15-0.69-0.44-1.04-0.44
		C547.27,97.53,544.34,97.53,541.41,97.53z M541.54,51.12c1.7,0,3.4,0.06,5.1-0.02c0.43-0.02,0.84-0.47,1.27-0.72
		c-0.4-0.28-0.8-0.8-1.22-0.81c-3.44-0.07-6.88-0.08-10.32-0.03c-0.42,0.01-0.84,0.49-1.25,0.75c0.4,0.27,0.79,0.76,1.21,0.78
		C538.05,51.17,539.8,51.12,541.54,51.12z M540.27,92.41c0,0.13,0,0.26,0,0.4c0.51,0,1.03-0.03,1.54,0.01
		c0.93,0.07,2.06-0.06,2.27,1.12c0.03,0.17-1.53,0.8-2.39,0.92c-0.94,0.13-1.93-0.1-3.03-0.19c1.48,2.22,6.23,2.41,7.68,0.47
		c0.67-0.9,0.35-1.68-0.5-2.21C544.07,91.8,542.18,91.81,540.27,92.41z M543.57,93.95c-0.01-0.14-0.03-0.28-0.04-0.42
		c-0.5-0.11-0.99-0.33-1.49-0.33c-5.06,0.04-10.12,0.1-15.17,0.22c-0.29,0.01-0.57,0.56-0.88,0.89c5.41,0.01,10.5,0.04,15.59,0.02
		C542.24,94.33,542.9,94.08,543.57,93.95z M545.11,60.96c0.24,0.7,0.38,1.1,0.52,1.5c0.69,0,1.38,0,2.07,0.01
		c0.04-0.45,0.08-0.84,0.11-1.18c-4.46-0.01-8.83-0.02-13.28-0.04c0.06,0.47,0.11,0.82,0.15,1.18c0.62,0,1.14,0,1.58,0
		c0.18-0.45,0.33-0.83,0.49-1.21c0.11,0.01,0.22,0.01,0.34,0.02c0.14,0.4,0.29,0.79,0.42,1.17c0.91,0,1.81,0,2.62,0.01
		c0.18-0.45,0.33-0.81,0.48-1.17c0.11,0.01,0.21,0.01,0.32,0.02c0.13,0.39,0.27,0.79,0.4,1.18c1.06,0,2.1,0.01,3.21,0.01
		c0-0.25-0.04-0.47,0.01-0.66C544.61,61.61,544.77,61.45,545.11,60.96z M548.46,26.27c0-0.1-0.01-0.2-0.01-0.3
		c-4.59-0.01-9.18-0.02-13.77-0.04c0,0.1,0,0.2,0,0.3C539.27,26.25,543.87,26.26,548.46,26.27z M524.92,59.77c0,0.04,0,0.08,0,0.12
		c10.97,0.03,21.94,0.06,32.91,0.09c0-0.04,0-0.08,0-0.12C546.86,59.83,535.89,59.8,524.92,59.77z M538.82,24.27
		c1.79,1.09,5.32,1.05,6.58-0.01C544.05,23.25,540.49,23.22,538.82,24.27z M525.35,88.49c0.67-0.58,1.37-0.89,1.45-1.33
		c0.18-0.92-0.64-0.94-1.3-0.93c-0.66,0.01-1.58-0.18-1.48,0.87C524.06,87.52,524.74,87.88,525.35,88.49z M533.58,45.88
		c0.01,0.04,0.03,0.08,0.04,0.12c5.34,0.01,10.68,0.03,16.01,0.04c0-0.04,0-0.08,0-0.12C544.28,45.91,538.93,45.9,533.58,45.88z
		 M546.15,100.59c0.54,0.6,0.83,1.21,1.2,1.27c0.86,0.14,0.9-0.59,0.87-1.23c-0.02-0.6,0.08-1.4-0.82-1.27
		C547,99.42,546.68,100.04,546.15,100.59z M551.41,100.71c-0.5-0.6-0.78-1.25-1.17-1.33c-0.91-0.19-0.85,0.59-0.85,1.21
		c0,0.61-0.1,1.38,0.8,1.28C550.55,101.82,550.86,101.25,551.41,100.71z M545.65,100.58c-0.52-0.54-0.82-1.16-1.21-1.21
		c-0.91-0.13-0.79,0.65-0.81,1.26c-0.03,0.66,0.01,1.36,0.86,1.23C544.84,101.8,545.12,101.18,545.65,100.58z M540.29,100.56
		c0.52,0.58,0.81,1.2,1.21,1.28c0.77,0.16,0.85-0.51,0.81-1.13c-0.04-0.61,0.22-1.49-0.83-1.37
		C541.12,99.39,540.83,99.99,540.29,100.56z M534.43,100.57c-0.63-0.6-0.96-1.18-1.36-1.24c-0.85-0.14-0.76,0.61-0.75,1.17
		c0.01,0.59-0.17,1.4,0.75,1.32C533.46,101.79,533.8,101.18,534.43,100.57z M537.4,100.43c0.57,0.65,0.94,1.06,1.3,1.47
		c0.26-0.37,0.69-0.71,0.74-1.1c0.07-0.56,0.34-1.48-0.69-1.46C538.38,99.34,538.03,99.89,537.4,100.43z M537.54,100.54
		c-0.64-0.58-1.01-0.92-1.38-1.25c-0.25,0.41-0.63,0.8-0.72,1.24c-0.12,0.57-0.16,1.39,0.74,1.3
		C536.57,101.79,536.91,101.16,537.54,100.54z M533.66,62.42c0.03-0.41,0.05-0.78,0.08-1.21c-1.18,0-2.29-0.01-3.48-0.01
		c0.03,0.41,0.06,0.78,0.08,1.14c0.1,0.08,0.21,0.15,0.31,0.23c0.36-0.44,0.73-0.87,1.2-1.44c0.18,0.5,0.32,0.87,0.47,1.28
		C532.74,62.42,533.16,62.42,533.66,62.42z M516.31,67.27c-0.8-0.47-1.24-0.93-1.67-0.91c-0.37,0.01-0.72,0.57-1.07,0.89
		c0.37,0.35,0.71,0.93,1.12,0.97C515.08,68.26,515.53,67.75,516.31,67.27z M569.16,69.78c0.5-0.68,1.07-1.14,1-1.45
		c-0.09-0.38-0.7-0.84-1.12-0.86c-0.33-0.02-0.98,0.58-0.96,0.87C568.09,68.74,568.62,69.11,569.16,69.78z M562.58,77.59
		c0.14-0.07,0.28-0.14,0.41-0.21c-0.45-0.87-0.85-1.77-1.36-2.59c-0.14-0.22-0.64-0.22-0.97-0.33c0.03,0.31-0.04,0.7,0.12,0.92
		C561.34,76.15,561.98,76.86,562.58,77.59z M542,48.66c0.54-1.62,0.28-2.31-1.1-2.11c-0.27,0.04-0.52,0.2-0.78,0.31
		C540.69,47.41,541.26,47.95,542,48.66z M542.73,130.74c0.14-2.2,0.14-2.2-0.96-2.05C541.56,130.79,541.56,130.79,542.73,130.74z
		 M548.7,62.46c0.56,0,1.02,0,1.55,0c0-0.44,0-0.83,0-1.17c-0.62,0-1.15,0-1.66,0C548.64,61.73,548.66,62.06,548.7,62.46z
		 M562.45,78.45c0.08-0.11,0.15-0.22,0.23-0.33c-0.55-0.47-1.07-0.98-1.65-1.4c-0.15-0.11-0.47,0.01-0.71,0.03
		c0.06,0.27,0.02,0.68,0.18,0.77C561.12,77.88,561.79,78.15,562.45,78.45z M544.38,47.52c-0.34-0.45-0.57-0.76-0.8-1.07
		c-0.19,0.34-0.51,0.67-0.52,1.02c-0.01,0.32,0.31,0.65,0.48,0.97C543.79,48.18,544.03,47.9,544.38,47.52z M528.26,53.1
		c-0.31,0.42-0.7,0.72-0.66,0.95c0.04,0.26,0.49,0.68,0.7,0.65c0.3-0.05,0.55-0.44,0.82-0.69C528.88,53.76,528.65,53.51,528.26,53.1
		z"/>
</g>
<g>
</g>
<g>
</g>
<g>
</g>
<g>
</g>
<g>
</g>
<g>
</g>
</svg>
