<?xml version="1.0" encoding="UTF-8"?>
<svg id="_Слой_1" data-name="Слой_1" xmlns="http://www.w3.org/2000/svg" baseProfile="tiny" version="1.2" viewBox="0 0 62.1 111.67">
  <!-- Generator: Adobe Illustrator 30.2.1, SVG Export Plug-In . SVG Version: 2.1.1 Build 1)  -->
  <path d="M9.61,74.83c.79-1.47,2.19-1.8,3.69-2.13.73-.16,1.97.44,2.16-1.13,0,1-.05,1.89.02,2.78.02.28.31.55.48.82.21-.28.59-.55.6-.83.06-1.96.04-3.92.04-5.87-.63-.04-1.06.68-1.29,2.16-3.36-1.95-6.81-3.72-7.69-7.91-.64-3.03.18-5.73,2.64-7.77,1.55-1.28,1.9-3.1.89-4.88-.7-1.24-1.86-1.82-3.17-2.12-.26-.06-.66.26-.94.47-.96.76-2.15.8-3,.07-.84-.72-.94-1.85-.24-2.68.71-.85,2.13-.96,3.1-.29.59.41,1.23.78,1.89,1.05,2.75,1.14,4.56,3.15,5.77,6.25,1.43-.98,2.9-1.74,4.07-2.83,1.45-1.35,1.51-3,.3-4.61-1.59-2.13-3.57-3.8-6.21-4.55-.2-.06-.35-.3-.53-.45.2-.18.38-.5.59-.51.75-.06,1.36-.03,1.88-.88.25-.41,1.46-.22,2.24-.31.11-1.13.82-1.86,2.12-2.19-.32-.64-.53-1.29-.92-1.79-.65-.83-.41-1.44.67-1.85.1-.62.1-1.16.31-1.61.07-.14.91-.16,1,0,.23.4.24.93.39,1.67,1.37.55.59,1.5-.15,2.52,2.5-1.87,5.42-2.28,8.54-2.8-.39-.24-.56-.43-.76-.47-2.94-.55-4.11-1.88-4.31-4.84-.04-.58-.29-1.14-.49-1.84.56-.69.34-2.29-.58-2.57-5-1.5-7.12-5.31-8.08-10.02-.27-1.32-.37-2.68-.54-4.02-.25-1.96-.81-2.55-2.74-2.61.61-.96,1.1-1.88,1.74-2.68.82-1.03,1.45-.94,1.84.31.66,2.12,1.14,4.29,1.74,6.44.81,2.92,3.3,4.69,6.35,4.6.76-2.52,1.53-5.01,2.26-7.51.06-.2.01-.54-.12-.69-.73-.81-.52-1.3.47-1.59.2-.06.43-.13.55-.28,1.16-1.43,2.75-1.93,4.48-2.14.81-.1,1.45-.26.7-1.28-.15-.2.03-.95.09-.95.64-.04,1.28.02,1.92.06-.04.34.05.81-.14,1-.81.8-.28.94.43,1.15,1.25.36,2.46.87,3.72,1.13.45.09,1.01-.32,1.51-.53.39-.17.8-.59,1.11-.52.38.08.67.57.99.88-.3.27-.56.64-.9.78-.47.19-1.02.19-1.79.32.38.23.62.33.79.5.26.26.71.72.65.83-.77,1.22.29,2.12.45,3.32.76-.53,1.39-1.05,2.1-1.44.87-.48,1.78-.95,2.73-1.23,1.81-.54,3.05.14,3.74,1.88,1.35,3.38.46,7.3-2.34,9.84-1,.9-2.1,1.75-3.29,2.36-1.33.68-2.12,1.57-2.23,3.06-.03.34-.15.68-.24,1.07.32.16.64.32.7.35-.23.99-.49,1.8-.59,2.63-.26,2.21-1.14,4.16-4.17,4.32-.25,0-.5.21-1.07.46,3.16.69,6.12,1,8.45,3.18-.09-.27-.1-.62-.28-.81-1.11-1.15-1.05-1.56.16-2.08.05-.6-.01-1.13.18-1.54.08-.18.91-.29.99-.16.28.42.37.96.64,1.76.71.37,1.1.98.05,2.01-.31.31-.21,1.04-.31,1.68,1.48.02,1.98.77,1.73,2.08.43.02.77.05,1.12.06.31,0,.73-.11.9.05.93.84,2,1.16,3.22,1.16.08,0,.25.33.21.4-.12.19-.3.43-.5.48-2.61.59-4.5,2.25-6.13,4.22-1.54,1.87-1.41,3.76.45,5.31,1.28,1.07,2.84,1.82,4.39,2.78.36-.62.58-1.03.82-1.43,1.24-2.06,2.99-3.5,5.27-4.31.51-.18,1.01-.47,1.44-.8,1.03-.8,2.38-.79,3.21.07.74.76.72,1.94-.04,2.71-.85.86-2.13.81-3.22.05-.4-.28-1.1-.42-1.57-.29-1.67.47-2.79,1.55-3.1,3.35-.19,1.11-.01,1.92.96,2.73,3.29,2.74,3.58,7.98.56,11.13-1.34,1.39-3.04,2.47-4.66,3.57-1.19.81-2.51,1.41-3.77,2.11-1.1.61-2.03,1.36-2.23,2.73-.04.29-.16.66-.37.82-1.43,1.11-1.05,2.67-1.1,4.14-.02.78-.1,1.56-.14,2.34-.01.16-.05.39.03.49,1.92,2.36,1.37,5.2,1.63,7.91.22,2.33.6,4.66,1.16,6.93.34,1.35,1,2.65,2.41,3.43.43.23.48,1.16.8,2.02-.2-.09-.09-.02.02.01.84.22,2.27.24,2.41.69.39,1.18.64,2.73.16,3.78-.54,1.2-.6,2.3-.64,3.49-.01.21-.04.42-.07.71h-3c.36-1,.73-2.02,1.16-3.18-5.18,0-9.97-.03-14.86-.04,0,1.11-.01,2.1-.01,3.17h-3.27c0-.77-.02-1.53.01-2.3.03-.67-.23-.93-.91-.93-3.94,0-7.87,0-11.81-.04-.83,0-1.07.33-1.03,1.1.04.69.01,1.38,0,2.15h-3.33c-.02-.51.01-.99-.07-1.44-.17-.87-.51-1.71-.58-2.58-.11-1.24-.16-2.5,0-3.72.05-.36.87-.71,1.39-.87.48-.15,1.04-.03,1.3-.03.43-.99.74-1.84,1.15-2.65,1.87-3.7,3.26-7.52,3.27-11.75.01-1.91.45-3.72,1.53-5.34.12-.17.26-.39.25-.57-.11-1.71-.24-3.43-.39-5.14-.02-.27-.16-.55-.32-.78-.22-.32-.54-.57-.77-.89-.32-.44-.52-1.2-.9-1.29-.68-.16-1.82-.2-2.13.21-.9,1.17-1.77.55-2.82.59-1.96.08-3.72,1.15-4.59,3.19-.57,1.33-1.45,1.78-2.53,1.48-.78-.21-1.19-.65-.8-1.43.44-.88,1.01-1.7,1.52-2.55-.09.28-.26.57-.27.85-.01.54.08,1.08.13,1.61.61-.21,1.58-.25,1.78-.66.94-1.95,2.65-2.56,4.52-2.96.88-.19,1.15-.6.83-1.49-2.03.02-3.94.31-5.62,1.48v-.04ZM14.78,61.5c.55-.19,1.37-.74,1.64-.54,1.38,1.02,2.72.45,3.73-.26,1.41-.99,2.76-.86,4.23-.58.45.09.9.19,1.34.29.58-2.4,1.6-3.1,3.79-2.18,1.62.68,3.19,1.66,4.51,2.81,1.58,1.38,1.48,3.25-.04,4.72-2.04,1.98-4.57,2.9-7.39,2.77-.78-.04-1.8-.48-2.24-1.08-1.89-2.56-4.54-2.77-7.68-2.9.36.56.56.84.73,1.13.18.32.52.69.48.99-.16,1.11.45,1.4,1.34,1.63,5.74,1.53,11.57,1.78,17.43,1.05,3.79-.47,7.47-1.4,10.82-3.33,1.69-.97,3.21-2.14,4.03-3.99.45-1.04.68-2.07-.32-3-.3-.28-.59-.74-.61-1.14-.09-1.65-1.25-2.46-2.46-3.15-1.4-.79-2.84-1.58-4.36-2.08-8.09-2.7-16.29-2.82-24.52-.67-3.2.83-6.24,2.05-8.56,4.54-2.02,2.17-2.12,4.77-.13,6.94,1.04,1.14,2.37,2.01,3.63,3.05.57-.66.95-1.11,1.39-1.62-.54-.26-.89-.43-1.25-.6,0-.09.01-.19.01-.28.37-.07.73-.15,1.19-.24v1.55c.75.28,1.16.17,1.11-.68-.03-.57.04-1.14-.02-1.7-.04-.31-.27-.59-.41-.88-.27.15-.54.3-.74.41-.18-.25-.4-.58-.67-.98h0ZM38.26,15.45c-.14-.06-.29-.11-.43-.17-.57-1.59-.03-3.08.54-4.59.12-.33.16-.84-.02-1.11-2.15-3.21-6.04-3.41-8.52-.45-.47.56-.92,1.18-1.24,1.84-2.06,4.31-2.08,8.66-.17,13.04.34.78.79,1.11,1.68,1.08,2.49-.06,4.99-.09,7.47.02,1.42.06,1.75-.72,2.06-2.17-.46.52-.64.83-.91,1-.39.25-.84.4-1.27.59-.15-.51-.58-1.21-.39-1.49.5-.75,1.17-1.65,1.95-1.89,1.28-.4,1.67-1.04,1.73-2.3.08-1.95-.02-3.84-.67-5.77-.67.89-1.24,1.63-1.81,2.37h0ZM32.67,90.66c2.8.01,5.6,0,8.4.03,1.2.01,1.77-.51,1.73-1.74-.04-1.18-.03-2.36.01-3.54.04-1.19-.55-1.67-1.67-1.67-5.69-.01-11.37-.03-17.06-.05-1.18-.01-1.79.51-1.76,1.74.03,1.09-.01,2.19,0,3.28.01,1.52.41,1.92,1.95,1.93,2.81.01,5.6.01,8.4.02h0ZM45.32,98.6c-.84-.32-1.45-.66-2.1-.78-7.3-1.26-14.61-1.28-21.92-.14-.81.13-1.59.49-2.51.78,2.6,2.71,23.22,2.85,26.53.14h0ZM12.53,5.69c1.36.2,1.73,1.57,2.11,2.87.26.92.43,1.87.56,2.81.32,2.48.79,4.91,2.16,7.07,1.27,2.01,3.05,3.31,5.37,3.89,1.19.3,2.02-.06,2.62-1.12.98-1.74.75-3.42-.14-5.1-.33-.62-.73-.74-1.43-.79-1.75-.13-3.51-.43-5.23-.82-1.03-.24-1.64-1.03-1.87-2.14-.44-2.18-.96-4.34-1.49-6.5-.19-.77-.5-1.5-.66-1.97-.75.67-1.41,1.26-2,1.8ZM32.24,103.96h0c-5.28-.01-10.57-.02-15.85-.04-.39,0-.83-.09-1.17.05-.34.14-.83.56-.79.8.05.37.44.75.78,1,.21.15.59.06.9.06,10.74.03,21.49.06,32.23.09.39,0,.84.04,1.15-.13.28-.16.58-.59.57-.89-.01-.28-.37-.66-.66-.8-.33-.15-.77-.09-1.16-.09-5.35-.02-10.68-.04-16-.05h0ZM43.03,47.15c-.69-.29-1.28-.66-1.91-.78-1.54-.3-3.09-.58-4.65-.68-4.58-.31-9.16-.38-13.68.62-.66.15-1.27.51-2.01.82,2.78,2.6,19.73,2.62,22.25.02ZM31.17,62.3c-1.42,1.64-2.41,1.84-3.81,1.16-.32-.16-.79-.14-1.15-.05-1.05.26-2.07.7-3.13.85-.4.06-1.2-.43-1.26-.77-.08-.41.33-1.08.72-1.37.71-.52,1.49-.42,2.24.37-.74.08-1.32.14-2.26.24,1.05,1.23,2,.71,2.82.39.94-.35,1.1-1.25.25-1.63-1.16-.51-2.51-1-3.71-.86-1.63.18-3.19.97-4.86,1.52v1.58c.26.05.43.09.59.1,2.98.13,5.82.61,8.05,2.87.21.21.66.31.97.26,1.28-.23,2.61-.36,3.78-.85,1.5-.63,2.73-1.75,2.54-3.59-.19-1.81-1.73-2.26-3.18-2.65-1.66-.46-2.32.22-2.01,2.03,1.04.12,2.09.24,3.41.4h0ZM41.92,19.95c2.56-1.49,4.84-3.38,6.03-6.28.79-1.92-.98-4.85-3.05-5.22-1.4-.25-4.11,1.91-3.98,3.3.26,2.7.65,5.4,1,8.2h0ZM32.18,37.67c-3.14,0-6.29-.02-9.43-.03-1.31,0-2.62-.04-3.93,0-.29,0-.58.33-.87.5.3.17.59.36.9.49.15.06.34,0,.52,0,8.42.02,16.85.05,25.27.07.35,0,.71.03,1.04-.05.16-.03.41-.3.38-.41-.05-.2-.23-.47-.41-.52-.33-.09-.69-.05-1.04-.05-4.14,0-8.28,0-12.43-.02v.02ZM41.21,35.71c-6.16-1.01-12.3-1.16-18.44.02,2.82,1.42,16,1.41,18.44-.02ZM32.2,77.27c-2.93-.01-5.86-.03-8.79,0-.34,0-.68.32-1.02.49.35.17.7.49,1.06.49,5.86.04,11.71.06,17.57.04.33,0,.67-.34,1-.53-.35-.15-.69-.44-1.04-.44-2.92-.05-5.85-.05-8.78-.05ZM32.33,30.86c1.7,0,3.4.06,5.1-.02.43-.02.84-.47,1.27-.72-.4-.28-.8-.8-1.22-.81-3.44-.07-6.88-.08-10.32-.03-.42,0-.84.49-1.25.75.4.27.79.76,1.21.78,1.72.1,3.47.05,5.21.05h0ZM31.06,72.15v.4c.51,0,1.03-.03,1.54.01.93.07,2.06-.06,2.27,1.12.03.17-1.53.8-2.39.92-.94.13-1.93-.1-3.03-.19,1.48,2.22,6.23,2.41,7.68.47.67-.9.35-1.68-.5-2.21-1.77-1.13-3.66-1.12-5.57-.52h0ZM34.36,73.69c-.01-.14-.03-.28-.04-.42-.5-.11-.99-.33-1.49-.33-5.06.04-10.12.1-15.17.22-.29.01-.57.56-.88.89,5.41.01,10.5.04,15.59.02.66,0,1.32-.25,1.99-.38h0ZM35.9,40.7c.24.7.38,1.1.52,1.5h2.07c.04-.45.08-.84.11-1.18-4.46,0-8.83-.02-13.28-.04.06.47.11.82.15,1.18h1.58c.18-.45.33-.83.49-1.21.11,0,.22,0,.34.02.14.4.29.79.42,1.17h2.62c.18-.45.33-.81.48-1.17.11,0,.21,0,.32.02.13.39.27.79.4,1.18h3.21c0-.25-.04-.47.01-.66.06-.19.22-.35.56-.84v.03ZM39.25,6.01c0-.1-.01-.2-.01-.3-4.59-.01-9.18-.02-13.77-.04v.3c4.59.02,9.19.03,13.78.04ZM15.71,39.51v.12c10.97.03,21.94.06,32.91.09v-.12c-10.97-.03-21.94-.06-32.91-.09ZM29.61,4.01c1.79,1.09,5.32,1.05,6.58-.01-1.35-1.01-4.91-1.04-6.58.01ZM16.14,68.23c.67-.58,1.37-.89,1.45-1.33.18-.92-.64-.94-1.3-.93s-1.58-.18-1.48.87c.04.42.72.78,1.33,1.39h0ZM24.37,25.62s.03.08.04.12c5.34,0,10.68.03,16.01.04v-.12c-5.35,0-10.7-.02-16.05-.04ZM36.94,80.33c.54.6.83,1.21,1.2,1.27.86.14.9-.59.87-1.23-.02-.6.08-1.4-.82-1.27-.4.06-.72.68-1.25,1.23ZM42.2,80.45c-.5-.6-.78-1.25-1.17-1.33-.91-.19-.85.59-.85,1.21s-.1,1.38.8,1.28c.36-.05.67-.62,1.22-1.16ZM36.44,80.32c-.52-.54-.82-1.16-1.21-1.21-.91-.13-.79.65-.81,1.26-.03.66.01,1.36.86,1.23.35-.06.63-.68,1.16-1.28h0ZM31.08,80.3c.52.58.81,1.2,1.21,1.28.77.16.85-.51.81-1.13-.04-.61.22-1.49-.83-1.37-.36.05-.65.65-1.19,1.22ZM25.22,80.31c-.63-.6-.96-1.18-1.36-1.24-.85-.14-.76.61-.75,1.17.01.59-.17,1.4.75,1.32.39-.03.73-.64,1.36-1.25ZM28.19,80.17c.57.65.94,1.06,1.3,1.47.26-.37.69-.71.74-1.1.07-.56.34-1.48-.69-1.46-.37,0-.72.55-1.35,1.09ZM28.33,80.28c-.64-.58-1.01-.92-1.38-1.25-.25.41-.63.8-.72,1.24-.12.57-.16,1.39.74,1.3.39-.04.73-.67,1.36-1.29ZM24.45,42.16c.03-.41.05-.78.08-1.21h-3.48c.03.41.06.78.08,1.14.1.08.21.15.31.23.36-.44.73-.87,1.2-1.44.18.5.32.87.47,1.28h1.34,0ZM7.1,47.01c-.8-.47-1.24-.93-1.67-.91-.37.01-.72.57-1.07.89.37.35.71.93,1.12.97.39.04.84-.47,1.62-.95ZM59.95,49.52c.5-.68,1.07-1.14,1-1.45-.09-.38-.7-.84-1.12-.86-.33-.02-.98.58-.96.87.01.4.54.77,1.08,1.44ZM53.37,57.33c.14-.07.28-.14.41-.21-.45-.87-.85-1.77-1.36-2.59-.14-.22-.64-.22-.97-.33.03.31-.04.7.12.92.56.77,1.2,1.48,1.8,2.21ZM32.79,28.4c.54-1.62.28-2.31-1.1-2.11-.27.04-.52.2-.78.31.57.55,1.14,1.09,1.88,1.8ZM33.52,110.48c.09-1.47-.23-2.15-.96-2.05-.14,1.4.18,2.08.96,2.05ZM39.49,42.2h1.55v-1.17h-1.66c.05.44.07.77.11,1.17ZM53.24,58.19c.08-.11.15-.22.23-.33-.55-.47-1.07-.98-1.65-1.4-.15-.11-.47.01-.71.03.06.27.02.68.18.77.62.36,1.29.63,1.95.93h0ZM35.17,27.26c-.34-.45-.57-.76-.8-1.07-.19.34-.51.67-.52,1.02-.01.32.31.65.48.97.25-.26.49-.54.84-.92ZM19.05,32.84c-.31.42-.7.72-.66.95.04.26.49.68.7.65.3-.05.55-.44.82-.69-.24-.25-.47-.5-.86-.91h0Z" fill="#571516"/>
</svg>